<svg width="1920" height="1068" viewBox="0 0 1920 1068" fill="none" xmlns="http://www.w3.org/2000/svg">
<rect width="1920" height="1068" fill="white"/>
<path d="M993.489 156.851C1069.63 158.962 1143.34 184.032 1204.96 228.769C1266.57 273.505 1313.19 335.814 1338.7 407.508C1364.21 479.203 1367.41 556.929 1347.88 630.475C1328.35 704.021 1287.01 769.945 1229.29 819.586L1082.8 649.598C1106.19 629.484 1122.94 602.772 1130.86 572.972C1138.77 543.171 1137.47 511.677 1127.14 482.627C1116.8 453.577 1097.91 428.329 1072.94 410.203C1047.98 392.076 1018.11 381.917 987.26 381.062L993.489 156.851Z" fill="url(#paint0_linear_344_4287)" fill-opacity="0.16"/>
<path d="M993.489 156.851C1069.63 158.962 1143.34 184.032 1204.96 228.769C1266.57 273.505 1313.19 335.814 1338.7 407.508C1364.21 479.203 1367.41 556.929 1347.88 630.475C1328.35 704.021 1287.01 769.945 1229.29 819.586L1082.8 649.598C1106.19 629.484 1122.94 602.772 1130.86 572.972C1138.77 543.171 1137.47 511.677 1127.14 482.627C1116.8 453.577 1097.91 428.329 1072.94 410.203C1047.98 392.076 1018.11 381.917 987.26 381.062L993.489 156.851Z" fill="black" fill-opacity="0.16"/>
<path fill-rule="evenodd" clip-rule="evenodd" d="M993.489 156.851C995.045 156.894 996.599 156.946 998.153 157.009C1072.63 159.994 1144.6 184.946 1204.96 228.769C1266.57 273.505 1313.19 335.814 1338.7 407.508C1364.21 479.203 1367.41 556.929 1347.88 630.475C1328.75 702.518 1288.69 767.248 1232.81 816.523C1231.64 817.551 1230.47 818.572 1229.29 819.586L1082.8 649.598C1082.8 649.598 1082.8 649.598 1082.8 649.598C1106.19 629.484 1122.94 602.772 1130.86 572.972C1138.77 543.171 1137.47 511.677 1127.14 482.627C1116.8 453.577 1097.91 428.329 1072.94 410.203C1047.99 392.086 1018.14 381.929 987.313 381.063C987.296 381.063 987.278 381.062 987.26 381.062L993.489 156.851ZM992.051 376.601C1022.18 378.329 1051.22 388.667 1075.69 406.432C1101.41 425.112 1120.88 451.129 1131.53 481.066C1142.18 511.002 1143.52 543.457 1135.37 574.167C1127.61 603.372 1111.62 629.7 1089.34 650.037L1229.76 812.99C1284.93 764.329 1324.48 700.414 1343.37 629.28C1362.66 556.643 1359.5 479.878 1334.3 409.069C1309.11 338.261 1263.06 276.722 1202.21 232.539C1142.62 189.27 1071.56 164.628 998.023 161.668L992.051 376.601Z" fill="white"/>
<path d="M1258.82 856.993C1206.44 901.618 1143.99 932.84 1076.87 947.968C1009.75 963.096 939.953 961.679 873.498 943.837C807.044 925.996 745.92 892.265 695.39 845.549C644.861 798.833 606.439 740.533 583.434 675.667C560.428 610.801 553.529 541.314 563.329 473.189C573.13 405.064 599.336 340.342 639.692 284.596C680.049 228.851 733.345 183.753 794.993 153.184C856.641 122.616 924.793 107.493 993.58 109.119L987.61 361.864C959.773 361.206 932.193 367.326 907.245 379.697C882.297 392.067 860.728 410.318 844.397 432.878C828.065 455.437 817.46 481.629 813.494 509.198C809.528 536.768 812.32 564.888 821.63 591.138C830.94 617.389 846.488 640.982 866.937 659.887C887.386 678.793 912.122 692.443 939.015 699.663C965.908 706.884 994.153 707.457 1021.32 701.335C1048.48 695.213 1073.75 682.578 1094.95 664.518L1258.82 856.993Z" fill="url(#paint1_linear_344_4287)"/>
<path d="M1258.82 856.993C1206.44 901.618 1143.99 932.84 1076.87 947.968C1009.75 963.096 939.953 961.679 873.498 943.837C807.044 925.996 745.92 892.265 695.39 845.549C644.861 798.833 606.439 740.533 583.434 675.667C560.428 610.801 553.529 541.314 563.329 473.189C573.13 405.064 599.336 340.342 639.692 284.596C680.049 228.851 733.345 183.753 794.993 153.184C856.641 122.616 924.793 107.493 993.58 109.119L987.61 361.864C959.773 361.206 932.193 367.326 907.245 379.697C882.297 392.067 860.728 410.318 844.397 432.878C828.065 455.437 817.46 481.629 813.494 509.198C809.528 536.768 812.32 564.888 821.63 591.138C830.94 617.389 846.488 640.982 866.937 659.887C887.386 678.793 912.122 692.443 939.015 699.663C965.908 706.884 994.153 707.457 1021.32 701.335C1048.48 695.213 1073.75 682.578 1094.95 664.518L1258.82 856.993Z" fill="white" fill-opacity="0.2"/>
<path fill-rule="evenodd" clip-rule="evenodd" d="M1258.82 856.993C1258.81 857.003 1258.8 857.014 1258.78 857.025C1257.61 858.023 1256.43 859.014 1255.25 859.999C1203.61 903.022 1142.48 933.182 1076.87 947.968C1009.75 963.096 939.953 961.679 873.498 943.837C807.044 925.996 745.92 892.265 695.39 845.549C644.861 798.833 606.439 740.533 583.434 675.667C560.428 610.801 553.529 541.314 563.329 473.189C573.13 405.064 599.336 340.342 639.692 284.596C680.049 228.851 733.345 183.753 794.993 153.184C855.247 123.307 921.714 108.185 988.916 109.034C990.47 109.054 992.025 109.082 993.58 109.119L987.61 361.864C959.773 361.206 932.193 367.326 907.245 379.697C882.297 392.068 860.728 410.318 844.397 432.878C828.065 455.437 817.46 481.629 813.494 509.198C809.528 536.768 812.32 564.888 821.63 591.138C830.94 617.389 846.488 640.982 866.937 659.887C887.386 678.793 912.122 692.443 939.015 699.663C965.908 706.884 994.153 707.457 1021.32 701.335C1048.48 695.213 1073.75 682.578 1094.95 664.518L1258.82 856.993ZM1094.38 671.05C1073.37 688.013 1048.73 699.941 1022.34 705.887C994.441 712.176 965.429 711.586 937.806 704.17C910.182 696.754 884.775 682.733 863.771 663.314C842.767 643.896 826.796 619.662 817.233 592.698C807.67 565.735 804.803 536.851 808.876 508.534C812.95 480.216 823.843 453.313 840.619 430.141C857.394 406.969 879.548 388.223 905.173 375.516C929.404 363.501 956.052 357.226 983.055 357.151L988.805 113.699C922.36 112.868 856.642 127.823 797.065 157.365C736.095 187.598 683.384 232.201 643.471 287.333C603.558 342.466 577.639 406.477 567.947 473.853C558.254 541.23 565.078 609.953 587.83 674.106C610.583 738.26 648.582 795.92 698.557 842.122C748.531 888.325 808.983 921.685 874.708 939.331C940.432 956.976 1009.46 958.378 1075.85 943.416C1140.71 928.796 1201.16 898.979 1252.23 856.446L1094.38 671.05Z" fill="white"/>
<path d="M654.9 481.752V479.492H645.85V481.752C645.813 488.205 642.091 494.803 633.369 497.793L637.967 504.574C644.025 502.423 648.112 498.413 650.484 493.491C652.637 498.595 656.542 502.897 662.782 505.157C668.73 502.824 672.598 498.376 674.788 493.236C677.087 498.376 681.247 502.423 687.596 504.574L692.121 497.793C683.254 495.059 679.568 488.679 679.641 481.752V479.492H670.445V481.752C670.445 486.674 668.037 492.361 662.526 496.262C657.162 492.616 654.9 487.075 654.9 481.752ZM631.764 458.566C631.764 467.789 639.573 474.424 649.937 474.388C660.264 474.424 668.073 467.789 668.11 458.566C668.073 449.16 660.264 442.598 649.937 442.598C639.573 442.598 631.764 449.16 631.764 458.566ZM640.887 458.566C640.814 453.425 644.609 450.399 649.937 450.399C655.119 450.399 658.877 453.425 658.914 458.566C658.877 463.56 655.119 466.695 649.937 466.659C644.609 466.695 640.814 463.56 640.887 458.566ZM677.014 476.721H686.356V439.244H677.014V476.721Z" fill="white"/>
<path d="M747.735 439.171H738.393V505.667H747.735V471.398H757.515V463.815H747.735V439.171ZM697.96 489.554H703.58C715.294 489.59 724.344 489.335 734.671 487.585L733.649 479.783C724.818 481.315 716.863 481.825 707.229 481.898V452.806H729.124V445.296H697.96V489.554Z" fill="white"/>
<path d="M629.647 610.808H641.033L663.293 567.133V558.019H625.998V566.987H651.907V567.352L629.647 610.808Z" fill="white"/>
<path d="M693.362 558.019H682.998L669.934 566.331V576.028L682.05 568.445H682.342V610.808H693.362V558.019Z" fill="white"/>
<path d="M734.379 598.121V600.892C734.416 607.198 738.466 612.594 745.984 612.63C753.428 612.594 757.552 607.198 757.588 600.892V598.121C757.552 591.777 753.537 586.418 745.984 586.455C738.576 586.418 734.416 591.814 734.379 598.121ZM707.302 570.706C707.302 576.976 711.353 582.335 718.907 582.299C726.351 582.335 730.475 577.049 730.438 570.706V567.935C730.475 561.555 726.46 556.196 718.907 556.196C711.535 556.196 707.302 561.555 707.302 567.935V570.706ZM710.659 610.808H717.374L753.72 558.019H747.005L710.659 610.808ZM714.746 570.706V567.935C714.783 565.419 715.768 562.722 718.907 562.758C722.154 562.722 722.994 565.383 722.994 567.935V570.706C722.994 573.221 722.045 575.81 718.907 575.81C715.805 575.81 714.783 573.221 714.746 570.706ZM741.824 600.892V598.121C741.824 595.605 742.882 592.944 745.984 592.944C749.231 592.944 750.107 595.605 750.071 598.121V600.892C750.107 603.443 749.122 606.032 745.984 605.995C742.809 606.032 741.824 603.371 741.824 600.892Z" fill="white"/>
<path d="M1228.65 485.992H1222.73V504.311H1239.5V500.802L1242.11 504.71C1245.82 503.291 1248.33 500.677 1249.84 497.516C1251.29 500.777 1253.83 503.366 1257.77 504.71L1261.08 499.98C1255.36 498.139 1253.12 493.758 1253.15 489.128V485.643H1246.72V489.128C1246.72 493.235 1244.57 497.466 1239.5 499.756V485.992H1233.57V490.522H1228.65V485.992ZM1218.26 471.854C1218.21 478.176 1223.38 482.607 1230.41 482.607C1236.23 482.607 1240.9 479.346 1242.13 474.442H1249.79V483.503H1256.16V459.508H1249.79V469.215H1242.11C1240.85 464.411 1236.21 461.225 1230.41 461.2C1223.38 461.225 1218.21 465.631 1218.26 471.854ZM1224.34 471.854C1224.31 468.518 1226.82 466.452 1230.41 466.427C1233.87 466.452 1236.36 468.518 1236.38 471.854C1236.36 475.289 1233.87 477.404 1230.41 477.429C1226.82 477.404 1224.31 475.289 1224.34 471.854ZM1228.65 499.483V495.201H1233.57V499.483H1228.65Z" fill="white"/>
<path d="M1298.12 459.508H1291.7V504.909H1298.12V481.511H1304.85V476.334H1298.12V459.508ZM1263.89 493.907H1267.75C1275.81 493.932 1282.03 493.758 1289.14 492.563L1288.43 487.236C1282.36 488.282 1276.89 488.63 1270.26 488.68V468.817H1285.32V463.689H1263.89V493.907Z" fill="white"/>
<path d="M1210.13 576.694H1236.13V570.521H1220.62V570.322L1226.14 564.996C1233.62 558.275 1235.63 554.915 1235.63 550.808C1235.63 544.56 1230.46 540.154 1222.68 540.154C1215.03 540.154 1209.76 544.66 1209.78 551.704H1216.96C1216.93 548.244 1219.17 546.103 1222.58 546.128C1225.92 546.103 1228.35 548.095 1228.35 551.306C1228.35 554.168 1226.52 556.159 1223.13 559.37L1210.08 571.268L1210.13 576.694Z" fill="white"/>
<path d="M1254.75 540.154C1246.55 540.13 1241 545.406 1241 552.65C1241.05 559.37 1245.87 564.249 1252.4 564.249C1256.44 564.249 1260.02 562.357 1261.73 559.171H1262.03C1262.01 566.365 1259.4 570.77 1254.45 570.77C1251.54 570.77 1249.46 569.202 1248.83 566.539H1241.4C1242.13 572.637 1247.15 577.192 1254.45 577.192C1263.59 577.192 1269.44 569.974 1269.41 557.727C1269.41 544.635 1262.28 540.179 1254.75 540.154ZM1248.38 552.451C1248.33 548.866 1251.09 546.054 1254.8 546.029C1258.52 546.054 1261.23 548.966 1261.28 552.401C1261.28 555.861 1258.44 558.773 1254.75 558.773C1251.02 558.773 1248.38 556.01 1248.38 552.451Z" fill="white"/>
<path d="M1294.31 568.032V569.924C1294.33 574.23 1297.12 577.914 1302.29 577.939C1307.41 577.914 1310.24 574.23 1310.27 569.924V568.032C1310.24 563.701 1307.48 560.042 1302.29 560.067C1297.19 560.042 1294.33 563.726 1294.31 568.032ZM1275.69 549.314C1275.69 553.596 1278.47 557.254 1283.67 557.23C1288.79 557.254 1291.62 553.645 1291.6 549.314V547.423C1291.62 543.067 1288.86 539.408 1283.67 539.408C1278.6 539.408 1275.69 543.067 1275.69 547.423V549.314ZM1277.99 576.694H1282.61L1307.61 540.652H1302.99L1277.99 576.694ZM1280.8 549.314V547.423C1280.83 545.705 1281.51 543.863 1283.67 543.888C1285.9 543.863 1286.48 545.68 1286.48 547.423V549.314C1286.48 551.032 1285.82 552.799 1283.67 552.799C1281.53 552.799 1280.83 551.032 1280.8 549.314ZM1299.43 569.924V568.032C1299.43 566.315 1300.15 564.498 1302.29 564.498C1304.52 564.498 1305.12 566.315 1305.1 568.032V569.924C1305.12 571.666 1304.45 573.434 1302.29 573.409C1300.1 573.434 1299.43 571.617 1299.43 569.924Z" fill="white"/>
<path d="M1167.9 532.48C1167.9 633.565 1085.96 715.51 984.872 715.51C883.787 715.51 801.842 633.565 801.842 532.48C801.842 431.396 883.787 349.451 984.872 349.451C1085.96 349.451 1167.9 431.396 1167.9 532.48Z" fill="white"/>
<g filter="url(#filter0_d_344_4287)">
<path d="M1181.06 533.677C1181.06 643.35 1092.42 732.258 983.079 732.258C873.736 732.258 785.096 643.35 785.096 533.677C785.096 424.003 873.736 335.095 983.079 335.095C1092.42 335.095 1181.06 424.003 1181.06 533.677Z" fill="white"/>
</g>
<path opacity="0.05" fill-rule="evenodd" clip-rule="evenodd" d="M983.083 704.874C1077.95 704.874 1154.86 628.226 1154.86 533.677C1154.86 439.127 1077.95 362.48 983.083 362.48C888.212 362.48 811.304 439.127 811.304 533.677C811.304 628.226 888.212 704.874 983.083 704.874ZM983.083 709.529C1080.53 709.529 1159.53 630.797 1159.53 533.677C1159.53 436.556 1080.53 357.825 983.083 357.825C885.632 357.825 806.633 436.556 806.633 533.677C806.633 630.797 885.632 709.529 983.083 709.529Z" fill="#454459"/>
<path d="M932.038 500.935H944.845V499.2H934.819V499.065L939.777 493.807C943.22 490.229 944.239 488.576 944.239 486.38C944.239 483.372 941.746 481.041 938.29 481.041C934.792 481.041 932.203 483.372 932.203 486.678H934.076C934.076 484.375 935.715 482.735 938.235 482.748C940.603 482.735 942.394 484.212 942.421 486.38C942.394 488.237 941.333 489.592 938.786 492.343L932.038 499.526V500.935Z" fill="#3D3D3D" fill-opacity="0.8"/>
<path d="M954.926 501.206C959.167 501.206 961.646 497.493 961.646 491.123C961.646 484.795 959.14 481.041 954.926 481.041C950.698 481.041 948.178 484.795 948.178 491.123C948.178 497.493 950.67 501.206 954.926 501.206ZM950.106 491.123C950.092 485.811 951.896 482.735 954.926 482.748C957.928 482.735 959.732 485.811 959.746 491.123C959.732 496.436 957.942 499.471 954.926 499.471C951.882 499.471 950.092 496.436 950.106 491.123Z" fill="#3D3D3D" fill-opacity="0.8"/>
<path d="M965.089 500.935H977.896V499.2H967.871V499.065L972.829 493.807C976.271 490.229 977.291 488.576 977.291 486.38C977.291 483.372 974.798 481.041 971.341 481.041C967.843 481.041 965.254 483.372 965.254 486.678H967.127C967.127 484.375 968.766 482.735 971.286 482.748C973.655 482.735 975.445 484.212 975.473 486.38C975.445 488.237 974.385 489.592 971.837 492.343L965.089 499.526V500.935Z" fill="#3D3D3D" fill-opacity="0.8"/>
<path d="M981.697 500.935H994.505V499.2H984.479V499.065L989.437 493.807C992.88 490.229 993.899 488.576 993.899 486.38C993.899 483.372 991.406 481.041 987.95 481.041C984.452 481.041 981.863 483.372 981.863 486.678H983.736C983.736 484.375 985.374 482.735 987.895 482.748C990.263 482.735 992.054 484.212 992.081 486.38C992.054 488.237 990.993 489.592 988.445 492.343L981.697 499.526V500.935Z" fill="#3D3D3D" fill-opacity="0.8"/>
<path d="M999.821 501.071C1000.62 501.084 1001.28 500.42 1001.28 499.634C1001.28 498.834 1000.62 498.184 999.821 498.17C999.008 498.184 998.333 498.834 998.333 499.634C998.333 500.42 999.008 501.084 999.821 501.071Z" fill="#3D3D3D" fill-opacity="0.8"/>
<path d="M1010.67 501.206C1014.91 501.206 1017.39 497.493 1017.39 491.123C1017.39 484.795 1014.89 481.041 1010.67 481.041C1006.44 481.041 1003.92 484.795 1003.92 491.123C1003.92 497.493 1006.42 501.206 1010.67 501.206ZM1005.85 491.123C1005.84 485.811 1007.64 482.735 1010.67 482.748C1013.67 482.735 1015.48 485.811 1015.49 491.123C1015.48 496.436 1013.69 499.471 1010.67 499.471C1007.63 499.471 1005.84 496.436 1005.85 491.123Z" fill="#3D3D3D" fill-opacity="0.8"/>
<path d="M1027.17 481.041C1023.15 481.014 1020.52 483.941 1020.53 487.491C1020.52 491.191 1023.41 493.874 1026.9 493.861C1029.1 493.874 1031.05 492.777 1032.07 491.042H1032.29C1032.28 496.422 1030.3 499.471 1026.9 499.471C1024.51 499.471 1023.05 497.994 1022.68 495.975H1020.73C1021.15 499.092 1023.49 501.206 1026.9 501.206C1031.67 501.206 1034.14 496.788 1034.14 490.283C1034.14 483.358 1030.64 481.068 1027.17 481.041ZM1022.43 487.464C1022.42 484.876 1024.46 482.748 1027.17 482.748C1029.8 482.748 1031.73 484.768 1031.94 487.356C1032.1 489.877 1029.94 492.153 1027.17 492.153C1024.44 492.153 1022.43 490.08 1022.43 487.464Z" fill="#3D3D3D" fill-opacity="0.8"/>
<path d="M930.826 520.775H929.09V544.708H930.826V520.775ZM912.344 538.853H923.692V522.835H921.957V529.313H914.08V522.835H912.344V538.853ZM914.08 537.417V530.722H921.957V537.417H914.08Z" fill="#3D3D3D" fill-opacity="0.8"/>
<path d="M955.201 520.775H953.466V538.149H955.201V520.775ZM935.701 534.11L936.417 535.52C943.495 533.324 948.136 528.703 948.15 522.591H936.913V524.055H946.236C945.823 528.635 941.719 532.24 935.701 534.11ZM939.529 544.112H955.89V542.675H941.264V536.766H939.529V544.112Z" fill="#3D3D3D" fill-opacity="0.8"/>
<path d="M966.108 522.672C962.555 522.686 960.076 525.911 960.104 530.939C960.076 535.98 962.555 539.206 966.108 539.206C969.51 539.206 971.92 536.211 972.099 531.481H977.952V544.708H979.659V520.775H977.952V530.072H972.085C971.81 525.545 969.427 522.686 966.108 522.672ZM961.756 530.939C961.743 526.941 963.533 524.204 966.108 524.19C968.67 524.204 970.474 526.941 970.46 530.939C970.474 534.937 968.67 537.688 966.108 537.688C963.533 537.688 961.743 534.937 961.756 530.939Z" fill="#3D3D3D" fill-opacity="0.8"/>
<path d="M1006.27 539.938H984.011V541.374H1006.27V539.938ZM986.71 534.869H1003.46V522.537H1001.75V527.172H988.473V522.537H986.71V534.869ZM988.473 533.487V528.581H1001.75V533.487H988.473Z" fill="#3D3D3D" fill-opacity="0.8"/>
<path d="M1028.93 520.775H1027.28V528.039H1023.45V521.236H1021.8V537.851H1023.45V529.503H1027.28V538.61H1028.93V520.775ZM1009.49 524.299H1017.01V528.093H1009.54V534.923H1011.11C1014.6 534.91 1017.24 534.761 1020.51 534.137L1020.29 532.728C1017.2 533.351 1014.58 533.487 1011.25 533.487V529.476H1018.66V522.862H1009.49V524.299ZM1013.18 544.112H1029.73V542.675H1014.91V536.983H1013.18V544.112Z" fill="#3D3D3D" fill-opacity="0.8"/>
<path d="M1052.32 532.403H1037.39V524.515H1052.07V523.079H1035.68V533.839H1052.32V532.403ZM1032.76 541.293H1055.02V539.829H1032.76V541.293Z" fill="#3D3D3D" fill-opacity="0.8"/>
<path d="M915.443 570.023V566.364H921.117V564.9H907.979V566.364H913.763V570.023C913.749 574.129 910.43 578.696 907.125 580.323L908.199 581.678C910.871 580.282 913.501 577.07 914.617 573.479C915.705 576.813 918.17 579.74 920.869 581.081L921.888 579.726C918.542 578.127 915.429 573.899 915.443 570.023ZM924.449 586.313H926.185V573.709H930.371V572.246H926.185V562.407H924.449V586.313Z" fill="#3D3D3D" fill-opacity="0.8"/>
<path d="M938.827 569.806V568.397H943.619V566.96H938.854V563.301H937.174V566.96H932.327V568.397H937.174V569.806C937.147 573.831 934.998 578.1 931.748 579.97L932.823 581.271C935.301 579.78 937.161 576.907 938.014 573.669C938.896 576.718 940.782 579.387 943.261 580.756L944.28 579.455C941.03 577.734 938.813 573.696 938.827 569.806ZM941.857 573.438H945.988V585.012H947.641V563.03H945.988V571.975H941.857V573.438ZM950.863 586.313H952.543V562.407H950.863V586.313Z" fill="#3D3D3D" fill-opacity="0.8"/>
<path d="M983.061 562.407H981.326V567.069H975.652V568.505H981.326V574.82H983.061V562.407ZM963.065 573.465L964.029 574.848C966.893 573.777 969.22 571.595 970.24 568.736C971.3 571.27 973.6 573.248 976.285 574.224L977.249 572.869C973.806 571.731 971.011 568.817 971.025 565.578V563.139H969.372V565.578C969.344 569.223 966.604 572.246 963.065 573.465ZM967.444 577.531H981.353V580.214H967.527V585.96H984.052V584.551H969.207V581.569H983.061V576.121H967.444V577.531Z" fill="#3D3D3D" fill-opacity="0.8"/>
<path d="M1009.61 574.766H987.385V576.203H997.769V581.353H999.476V576.203H1009.61V574.766ZM990.305 585.743H1007.13V584.307H992.04V578.913H990.305V585.743ZM990.305 571.758H1006.69V563.572H990.305V571.758ZM992.012 570.375V564.982H1004.98V570.375H992.012Z" fill="#3D3D3D" fill-opacity="0.8"/>
<path d="M1034.04 581.678H1023.77V575.688H1022.03V581.678H1011.79V583.141H1034.04V581.678ZM1012.94 575.091L1013.69 576.474C1017.1 575.728 1021.36 573.276 1022.9 569.82C1024.43 573.262 1028.7 575.661 1032.17 576.392L1032.91 575.01C1029.13 574.387 1023.77 571.08 1023.77 567.123V566.174H1032.14V564.684H1013.63V566.174H1021.98V567.123C1021.98 571.08 1016.65 574.441 1012.94 575.091Z" fill="#3D3D3D" fill-opacity="0.8"/>
<path d="M1044.07 569.156V564.548H1042.36V569.156C1042.33 573.492 1039.22 578.073 1035.86 579.78L1036.99 581.136C1039.68 579.672 1042.15 576.514 1043.23 572.883C1044.33 576.311 1046.78 579.266 1049.44 580.675L1050.51 579.293C1047.21 577.68 1044.04 573.343 1044.07 569.156ZM1053.13 586.313H1054.87V573.763H1059.05V572.246H1054.87V562.407H1053.13V586.313Z" fill="#3D3D3D" fill-opacity="0.8"/>
<g filter="url(#filter1_d_344_4287)">
<path d="M545 166H252C235.431 166 222 179.431 222 196V341.722C222 358.291 235.431 371.722 252 371.722H545C561.569 371.722 575 358.291 575 341.722V196C575 179.431 561.569 166 545 166Z" fill="white"/>
<path d="M430 370H474.958L479.701 379.458C483.261 386.558 488.183 393.173 494.291 399.067C496.343 401.047 493.573 403.865 490.673 402.745L480.057 398.648C465.491 393.026 451.994 385.79 439.967 377.155L430 370Z" fill="white"/>
</g>
<path d="M275.988 222.18H278.395C278.299 219.172 275.537 216.93 271.695 216.93C267.854 216.93 264.873 219.131 264.887 222.48C264.873 225.16 266.814 226.746 269.918 227.648L272.352 228.305C274.43 228.893 276.262 229.631 276.262 231.559C276.262 233.719 274.211 235.127 271.477 235.113C269.125 235.127 267.061 234.074 266.855 231.859H264.34C264.572 235.141 267.211 237.342 271.477 237.355C276.07 237.342 278.668 234.84 278.668 231.613C278.668 227.908 275.182 226.691 273.062 226.145L271.094 225.598C269.59 225.229 267.279 224.449 267.266 222.371C267.279 220.484 268.988 219.117 271.613 219.117C273.979 219.117 275.783 220.238 275.988 222.18ZM297.918 217.203H295.484V232.652H295.293L284.574 217.203H282.195V237H284.656V221.578H284.848L295.566 237H297.918V217.203ZM313.094 222.18H315.5C315.404 219.172 312.643 216.93 308.801 216.93C304.959 216.93 301.979 219.131 301.992 222.48C301.979 225.16 303.92 226.746 307.023 227.648L309.457 228.305C311.535 228.893 313.367 229.631 313.367 231.559C313.367 233.719 311.316 235.127 308.582 235.113C306.23 235.127 304.166 234.074 303.961 231.859H301.445C301.678 235.141 304.316 237.342 308.582 237.355C313.176 237.342 315.773 234.84 315.773 231.613C315.773 227.908 312.287 226.691 310.168 226.145L308.199 225.598C306.695 225.229 304.385 224.449 304.371 222.371C304.385 220.484 306.094 219.117 308.719 219.117C311.084 219.117 312.889 220.238 313.094 222.18ZM338.934 214.906H336.855V239.215H338.934V214.906ZM318.398 225.406C318.412 230.574 320.463 233.869 323.621 233.855C326.615 233.869 328.652 230.902 328.857 226.172H331.988V237.984H334.039V215.426H331.988V224.395H328.844C328.57 219.814 326.574 216.971 323.621 216.957C320.463 216.971 318.412 220.238 318.398 225.406ZM320.422 225.406C320.395 221.455 321.652 218.98 323.621 218.98C325.604 218.98 326.861 221.455 326.848 225.406C326.861 229.344 325.604 231.832 323.621 231.805C321.652 231.832 320.395 229.344 320.422 225.406ZM350.855 221.441V217.012H348.668V221.441C348.654 225.926 345.838 230.602 342.27 232.352L343.664 234.074C346.426 232.611 348.709 229.494 349.789 225.857C350.869 229.316 353.152 232.215 355.914 233.637L357.199 231.887C353.672 230.273 350.842 225.844 350.855 221.441ZM354.547 224.969H360.316V239.27H362.449V214.906H360.316V223.219H354.547V224.969ZM392.5 214.934H390.34V229.891H392.5V223.602H396.137V221.797H392.5V214.934ZM373.469 227.484L373.715 229.18C378.035 229.152 383.846 229.029 388.891 228.195L388.754 226.691C386.662 226.979 384.393 227.156 382.137 227.279V224.586H386.895V215.973H384.789V218.543H377.324V215.973H375.219V224.586H379.977V227.361C377.652 227.443 375.41 227.471 373.469 227.484ZM374.234 237.301L375.328 238.914C377.666 238.094 379.348 236.494 380.209 234.566C380.947 236.508 382.451 238.244 384.762 239.105C387.059 238.23 388.535 236.453 389.287 234.498C390.121 236.453 391.83 238.08 394.195 238.914L395.289 237.301C392.172 236.289 390.354 233.883 390.34 231.477V230.82H388.262V231.477C388.262 233.473 387.045 235.756 384.721 237.068C382.41 235.77 381.262 233.5 381.262 231.477V230.82H379.184V231.477C379.197 233.883 377.352 236.289 374.234 237.301ZM377.324 222.836V220.266H384.789V222.836H377.324ZM408.797 215.344C403.369 215.344 400.184 216.834 400.184 219.527C400.184 222.289 403.369 223.779 408.797 223.793C414.197 223.779 417.369 222.289 417.383 219.527C417.369 216.834 414.197 215.344 408.797 215.344ZM397.723 227.184H419.871V225.434H397.723V227.184ZM400.402 230.93H414.922V233.145H400.457V238.941H417.766V237.246H402.59V234.73H417.027V229.289H400.402V230.93ZM402.426 219.527C402.398 217.928 404.764 216.971 408.797 216.957C412.83 216.971 415.182 217.928 415.195 219.527C415.182 221.223 412.83 222.152 408.797 222.152C404.764 222.152 402.398 221.223 402.426 219.527ZM445.055 215.453H443.059V238.012H445.055V226.637H448.008V239.215H450.059V214.906H448.008V224.859H445.055V215.453ZM429.688 232.871H430.645C431.684 232.885 433.27 232.857 435.32 232.406L435.129 230.574C433.803 230.902 432.6 231.012 431.684 231.053V219.773H434.965V217.996H429.688V232.871ZM436.031 232.871H437.016C438.424 232.885 440.105 232.857 442.129 232.324L441.938 230.492C440.475 230.916 439.121 231.025 437.973 231.053V219.773H441.418V217.996H436.031V232.871ZM472.809 222.289H458.289V215.809H456.156V224.012H472.809V222.289ZM453.121 229.07H475.379V227.32H453.121V229.07ZM456.02 238.613H472.945V236.836H458.152V231.559H456.02V238.613ZM504.555 214.906H502.395V222.945H494.82V224.723H502.395V239.27H504.555V214.906ZM485.715 233.363H487.574C491.512 233.363 494.93 233.158 498.812 232.352L498.539 230.574C494.889 231.326 491.594 231.518 487.875 231.559V217.641H485.715V233.363ZM530.805 229.043H508.547V230.82H518.555V239.215H520.66V230.82H530.805V229.043ZM511.418 225.734H527.906V216.273H511.418V225.734ZM513.523 224.039V218.023H525.773V224.039H513.523ZM284.82 256.906H282.742V281.215H284.82V256.906ZM264.285 267.406C264.299 272.574 266.35 275.869 269.508 275.855C271.586 275.869 273.199 274.447 274.061 272H277.93V279.984H279.98V257.426H277.93V262.812H274.061C273.186 260.379 271.586 258.971 269.508 258.957C266.35 258.971 264.299 262.238 264.285 267.406ZM266.281 267.406C266.268 263.455 267.512 260.98 269.508 260.98C271.49 260.98 272.762 263.455 272.762 267.406C272.762 271.344 271.49 273.832 269.508 273.805C267.512 273.832 266.268 271.344 266.281 267.406ZM274.512 264.59H277.93V270.195H274.525C274.676 269.348 274.758 268.404 274.758 267.406C274.758 266.395 274.676 265.451 274.512 264.59ZM296.551 273.422V272.055H294.5V273.422C294.473 275.732 292.627 278.344 289.551 279.465L290.617 281.078C292.955 280.189 294.637 278.48 295.512 276.525C296.236 278.576 297.713 280.381 300.051 281.297C302.334 280.312 303.824 278.426 304.59 276.457C305.424 278.494 307.119 280.203 309.512 281.078L310.633 279.465C307.502 278.398 305.643 275.91 305.656 273.422V272.055H303.551V273.422C303.537 275.281 302.334 277.729 300.01 279.164C297.713 277.852 296.564 275.582 296.551 273.422ZM288.84 269.73H295.484V258.438H293.652V262.32H290.672V258.438H288.84V269.73ZM290.672 268.008V264.043H293.652V268.008H290.672ZM297.016 269.73H303.496V264.863H306.641V271.207H308.773V256.906H306.641V263.059H303.496V258.438H301.719V262.32H298.848V258.438H297.016V269.73ZM298.848 268.008V264.043H301.719V268.008H298.848ZM332.043 264.289H317.523V257.809H315.391V266.012H332.043V264.289ZM312.355 271.07H334.613V269.32H312.355V271.07ZM315.254 280.613H332.18V278.836H317.387V273.559H315.254V280.613ZM357.391 256.906H355.312V281.215H357.391V256.906ZM337.539 275.363H339.07C342.98 275.35 345.359 275.227 348.176 274.652L347.957 272.82C345.346 273.408 343.131 273.531 339.617 273.559V261.691H346.699V259.914H337.539V275.363ZM345.059 268.008H350.363V279.957H352.414V257.508H350.363V266.203H345.059V268.008ZM364.773 277.168H362.121L360.617 284.605H362.641L364.773 277.168Z" fill="#3D3D3D"/>
<path d="M395.016 256.906H392.91V269.512H395.016V256.906ZM375.137 267.57L376.258 269.266C379.143 268.227 381.426 265.998 382.52 263.168C383.613 265.793 385.869 267.83 388.727 268.801L389.793 267.133C386.184 265.943 383.559 262.908 383.586 259.477V257.617H381.398V259.477C381.398 263.045 378.801 266.299 375.137 267.57ZM379.238 272.465H392.91V274.898H379.293V280.941H395.918V279.191H381.398V276.566H395.043V270.742H379.238V272.465ZM419.953 256.906H417.902V281.215H419.953V256.906ZM398.871 274.734L400.238 276.348C402.672 274.83 404.436 271.973 405.311 268.623C406.158 271.713 407.854 274.338 410.246 275.773L411.559 274.188C408.209 272.246 406.309 268.049 406.309 263.852V261.555H410.766V259.777H399.555V261.555H404.23V263.852C404.244 268.268 402.262 272.711 398.871 274.734ZM408.906 267.434H413.008V279.957H415.031V257.508H413.008V265.684H408.906V267.434ZM445.629 276.402H435.484V271.809H443.387V270.031H428.293V266.066H442.812V258.711H426.105V260.488H440.707V264.316H426.16V271.809H433.379V276.402H423.371V278.207H445.629V276.402ZM473.41 256.906H471.277V281.215H473.41V268.609H477.348V266.805H473.41V256.906ZM454.762 274.898L455.965 276.594C463.881 272.684 467.107 266.408 467.121 259.531H455.883V261.336H464.947C464.455 267.092 461.037 271.781 454.762 274.898ZM501.055 276.32H490.91V271.07H498.32V258.629H496.215V263.031H483.582V258.629H481.422V271.07H488.805V276.32H478.797V278.098H501.055V276.32ZM483.582 269.32V264.781H496.215V269.32H483.582ZM523.039 256.906H520.906V281.215H523.039V256.906ZM504.582 274.953H506.551C510.447 274.953 514.289 274.652 518.609 273.75L518.309 271.918C514.234 272.779 510.406 273.066 506.688 273.094V259.312H504.582V274.953ZM271.23 303.746V300.438H269.18V303.746C269.166 306.453 267.211 309.598 264.012 310.992L265.188 312.66C267.58 311.621 269.33 309.557 270.219 307.246C271.094 309.338 272.775 311.074 275.113 311.977L276.234 310.336C273.117 309.16 271.244 306.439 271.23 303.746ZM268.441 318.84C268.414 321.561 271.531 323.16 276.59 323.16C281.621 323.16 284.752 321.561 284.766 318.84C284.752 316.092 281.621 314.479 276.59 314.492C271.531 314.479 268.414 316.092 268.441 318.84ZM270.574 318.84C270.547 317.158 272.857 316.146 276.59 316.133C280.281 316.146 282.605 317.158 282.633 318.84C282.605 320.494 280.281 321.506 276.59 321.492C272.857 321.506 270.547 320.494 270.574 318.84ZM277.328 313.18H279.352V307.246H282.578V313.945H284.629V298.934H282.578V305.469H279.352V299.398H277.328V313.18ZM307.188 298.906H305.055V313.18H307.188V306.918H310.852V305.086H307.188V298.906ZM288.156 311.238L289.031 312.906C296.209 311.006 300.502 306.617 300.516 300.465H289.25V302.242H298.232C297.795 306.371 294.117 309.625 288.156 311.238ZM291.273 316.051H305.055V323.215H307.188V314.301H291.273V316.051ZM334.641 318.32H324.496V313.07H331.906V300.629H329.801V305.031H317.168V300.629H315.008V313.07H322.391V318.32H312.383V320.098H334.641V318.32ZM317.168 311.32V306.781H329.801V311.32H317.168ZM355.395 298.906H353.262V323.27H355.395V310.336H359.469V308.531H355.395V298.906ZM337.648 317.172H339.562C344.184 317.172 347.369 317.035 351.184 316.352L350.91 314.492C347.287 315.162 344.184 315.354 339.781 315.367V303.062H348.996V301.285H337.648V317.172ZM372.895 299.316H370.762V307.301H377.789V309.707H367.809V311.457H389.957V309.707H379.895V307.301H387.059V299.316H384.926V301.641H372.895V299.316ZM370.488 315.121H385.008V317.281H370.543V322.941H387.852V321.246H372.676V318.867H387.113V313.48H370.488V315.121ZM372.895 305.633V303.281H384.926V305.633H372.895ZM412.816 298.906H410.766V323.215H412.816V298.906ZM392.035 316.406L393.293 317.965C396.684 315.969 399.035 313.467 400.498 310.637H405.652V321.984H407.703V299.562H405.652V308.887H401.291C402.125 306.727 402.508 304.416 402.508 302.023H393.074V303.801H400.375C399.965 308.887 397.312 313.275 392.035 316.406ZM428.074 313.18H426.051V322.887H434.5V313.18H432.504V316.215H428.074V313.18ZM423.617 305.578C423.604 308.914 426.229 311.184 429.934 311.184C433.229 311.184 435.73 309.297 436.154 306.426H441.227V311.785H443.387V298.906H441.227V304.648H436.141C435.676 301.846 433.201 300 429.934 300C426.229 300 423.604 302.256 423.617 305.578ZM425.668 305.578C425.668 303.363 427.432 301.805 429.934 301.805C432.381 301.805 434.145 303.363 434.145 305.578C434.145 307.807 432.381 309.393 429.934 309.406C427.432 309.393 425.668 307.807 425.668 305.578ZM428.074 321.191V317.855H432.504V321.191H428.074ZM434.828 321.438L435.949 323.078C438.096 322.162 439.586 320.439 440.352 318.457C441.104 320.467 442.566 322.189 444.809 323.078L445.93 321.438C442.963 320.344 441.418 317.65 441.445 315.094V313.016H439.312V315.094C439.299 317.555 437.754 320.221 434.828 321.438ZM455.801 315.203V313.727H453.75V315.203C453.723 317.555 451.877 320.193 448.801 321.301L449.867 322.914C452.191 322.025 453.859 320.316 454.734 318.361C455.473 320.412 456.977 322.203 459.301 323.105C461.57 322.148 463.061 320.262 463.826 318.279C464.646 320.33 466.342 322.025 468.762 322.914L469.883 321.301C466.711 320.248 464.893 317.719 464.906 315.203V313.727H462.801V315.203C462.787 317.076 461.598 319.551 459.26 321.014C456.949 319.674 455.787 317.391 455.801 315.203ZM447.844 305.988C447.844 309.338 450.496 311.676 454.133 311.676C457.387 311.676 459.916 309.707 460.326 306.809H465.426V312.797H467.586V298.906H465.426V305.031H460.312C459.834 302.215 457.332 300.287 454.133 300.301C450.496 300.287 447.844 302.652 447.844 305.988ZM449.922 305.988C449.895 303.732 451.686 302.105 454.133 302.133C456.525 302.105 458.316 303.732 458.316 305.988C458.316 308.244 456.525 309.885 454.133 309.898C451.686 309.885 449.895 308.244 449.922 305.988ZM478.168 300.793C474.572 300.807 472.057 304.102 472.07 309.27C472.057 314.451 474.572 317.732 478.168 317.719C481.559 317.732 483.992 314.752 484.225 309.98H489.652V323.27H491.785V298.906H489.652V308.203H484.197C483.869 303.65 481.477 300.807 478.168 300.793ZM474.121 309.27C474.135 305.318 475.775 302.721 478.168 302.707C480.547 302.721 482.215 305.318 482.215 309.27C482.215 313.221 480.547 315.818 478.168 315.805C475.775 315.818 474.135 313.221 474.121 309.27ZM518.09 318.293H512.566V311.676C514.576 310.596 515.793 308.873 515.793 306.699C515.793 302.939 512.102 300.465 506.906 300.438C501.711 300.465 498.02 302.939 498.02 306.699C498.02 308.914 499.277 310.664 501.355 311.744V318.293H495.832V320.098H518.09V318.293ZM500.098 306.699C500.084 303.979 502.914 302.188 506.906 302.215C510.857 302.188 513.715 303.979 513.715 306.699C513.715 309.42 510.857 311.238 506.906 311.238C502.914 311.238 500.084 309.42 500.098 306.699ZM503.461 318.293V312.523C504.5 312.797 505.662 312.934 506.906 312.934C508.178 312.934 509.354 312.783 510.406 312.51V318.293H503.461Z" fill="#4B7AF2"/>
<g filter="url(#filter2_d_344_4287)">
<path d="M592.312 700H204.688C182.769 700 165 715.408 165 734.415V901.585C165 920.592 182.769 936 204.688 936H592.312C614.231 936 632 920.592 632 901.585V734.415C632 715.408 614.231 700 592.312 700Z" fill="white"/>
<path d="M430 936H474.958L479.701 945.458C483.261 952.558 488.183 959.173 494.291 965.067C496.343 967.047 493.573 969.865 490.673 968.745L480.057 964.648C465.491 959.026 451.994 951.79 439.967 943.155L430 936Z" fill="white"/>
<path d="M214.246 755.393H211.656V774.219H213.516C217.118 774.202 220.438 774.053 224.373 773.223L224.008 770.965C220.472 771.712 217.45 771.895 214.246 771.928V755.393ZM219.924 764.291H226.664V780.195H229.154V752.902H226.664V762.133H219.924V764.291ZM232.973 781.689H235.463V752.172H232.973V781.689ZM263.918 752.172H261.295V781.756H263.918V752.172ZM241.307 774.617H255.252V754.695H252.695V762.498H243.896V754.695H241.307V774.617ZM243.896 772.426V764.59H252.695V772.426H243.896ZM291.809 752.172H289.219V781.689H291.809V766.383H296.59V764.191H291.809V752.172ZM269.164 774.02L270.625 776.078C280.237 771.33 284.155 763.71 284.172 755.359H270.525V757.551H281.532C280.935 764.54 276.784 770.234 269.164 774.02ZM329.959 752.172H327.369V767.213H329.959V760.771H334.408V758.58H329.959V752.172ZM307.447 759.809C307.431 763.693 310.685 766.366 315.117 766.383C319.566 766.366 322.787 763.693 322.787 759.809C322.787 755.94 319.566 753.284 315.117 753.268C310.685 753.284 307.431 755.94 307.447 759.809ZM310.004 759.809C309.987 757.252 312.162 755.426 315.117 755.459C318.056 755.426 320.247 757.252 320.23 759.809C320.247 762.398 318.056 764.258 315.117 764.258C312.162 764.258 309.987 762.398 310.004 759.809ZM311.133 770.699H327.369V773.82H311.199V781.291H331.055V779.199H313.756V775.812H329.959V768.607H311.133V770.699ZM360.705 752.172H358.115V758.912H352.205V761.104H358.115V766.98H351.973V769.172H358.115V781.756H360.705V752.172ZM337.297 757.02H347.723V763.229H337.396V774.85H339.588C344.303 774.85 348.088 774.684 352.803 773.953L352.57 771.762C348.088 772.459 344.419 772.625 339.986 772.625V765.354H350.279V754.861H337.297V757.02ZM380.793 755.857V755.791H390.156V753.666H368.109V755.791H377.406V755.857C377.423 759.493 372.509 762.448 367.312 763.162L368.275 765.221C373.057 764.523 377.489 762.149 379.1 758.696C380.693 762.149 385.159 764.523 389.924 765.221L390.953 763.162C385.724 762.448 380.776 759.493 380.793 755.857ZM365.619 769.537H378.037V775.58H380.627V769.537H392.646V767.379H365.619V769.537ZM369.072 781.059H389.625V778.867H371.695V772.625H369.072V781.059ZM428.041 752.205H425.418V757.717H418.528C418.777 756.671 418.91 755.559 418.91 754.396H405.463V756.588H416.071C415.557 761.701 411.091 765.702 403.969 767.811L405.064 769.869C411.39 767.993 415.938 764.557 417.881 759.809H425.418V763.793H417.582V765.951H425.418V769.936H428.041V752.205ZM408.518 775.879C408.501 779.415 412.336 781.557 418.379 781.557C424.355 781.557 428.207 779.415 428.207 775.879C428.207 772.359 424.355 770.234 418.379 770.234C412.336 770.234 408.501 772.359 408.518 775.879ZM411.074 775.879C411.091 773.654 413.93 772.31 418.379 772.326C422.762 772.31 425.601 773.654 425.617 775.879C425.601 778.104 422.762 779.448 418.379 779.432C413.93 779.448 411.091 778.104 411.074 775.879ZM459.982 775.846H447.664V770.268H457.26V768.109H438.932V763.295H456.562V754.363H436.275V756.521H454.006V761.17H436.342V770.268H445.107V775.846H432.955V778.037H459.982V775.846ZM489.367 775.846H477.049V770.268H486.645V768.109H468.316V763.295H485.947V754.363H465.66V756.521H483.391V761.17H465.727V770.268H474.492V775.846H462.34V778.037H489.367V775.846ZM523.334 752.139H520.744V768.707H523.334V761.734H527.783V759.576H523.334V752.139ZM500.291 767.18L501.287 769.271C510.036 766.931 515.282 761.535 515.299 754.064H501.619V756.223H512.46C511.929 761.236 507.513 765.188 500.291 767.18ZM501.52 779.432L502.848 781.357C505.637 780.312 507.646 778.236 508.691 775.829C509.555 778.336 511.348 780.527 514.236 781.623C517.025 780.461 518.802 778.17 519.715 775.763C520.711 778.253 522.753 780.312 525.691 781.357L527.02 779.432C523.201 778.153 520.993 775.099 521.01 772.027V769.836H518.453V772.027C518.437 774.302 517.042 777.307 514.17 779.1C511.364 777.456 509.986 774.667 509.986 772.027V769.836H507.529V772.027C507.513 774.883 505.222 778.054 501.52 779.432ZM553.516 761.137H535.885V753.268H533.295V763.229H553.516V761.137ZM529.609 769.371H556.637V767.246H529.609V769.371ZM533.129 780.959H553.682V778.801H535.719V772.393H533.129V780.959ZM584.295 752.172H581.771V781.689H584.295V752.172ZM560.189 774.584H562.049C566.797 774.567 569.686 774.418 573.105 773.721L572.84 771.496C569.669 772.21 566.979 772.359 562.713 772.393V757.982H571.312V755.824H560.189V774.584ZM569.32 765.652H575.762V780.162H578.252V752.902H575.762V763.461H569.32V765.652ZM219.492 815.59H217.234V823.376C214.545 823.459 211.955 823.459 209.93 823.459L210.229 825.684C214.445 825.65 220.92 825.567 226.1 824.588L225.9 822.695C223.941 822.978 221.717 823.16 219.492 823.276V815.59ZM210.66 808.783H214.246C214.213 810.892 214.08 813.963 213.018 818.246L215.375 818.578C216.587 813.614 216.554 810.111 216.57 807.986V806.625H210.66V808.783ZM218.064 808.783H222.613V808.816C222.597 811.24 222.597 814.179 221.949 818.246L224.24 818.578C224.904 814.461 224.871 811.307 224.871 808.816V806.625H218.064V808.783ZM227.162 831.229H229.619V817.648H232.939V832.689H235.43V803.172H232.939V815.49H229.619V803.836H227.162V831.229ZM271.82 811.107H254.322V806.492H271.521V804.334H251.699V813.199H260.266V816.055H248.113V818.18H275.008V816.055H262.855V813.199H271.82V811.107ZM251.367 822.695H268.998V825.352H251.434V832.357H272.451V830.266H254.023V827.277H271.555V820.703H251.367V822.695ZM285.4 805.463C281.018 805.479 277.946 809.48 277.963 815.756C277.946 822.048 281.018 826.032 285.4 826.016C289.75 826.032 292.838 822.048 292.871 815.756C292.838 809.48 289.75 805.479 285.4 805.463ZM280.42 815.756C280.437 810.958 282.479 807.804 285.4 807.787C288.355 807.804 290.348 810.958 290.348 815.756C290.348 820.554 288.355 823.708 285.4 823.691C282.479 823.708 280.437 820.554 280.42 815.756ZM297.752 832.689H300.342V817.217H305.289V814.959H300.342V803.172H297.752V832.689ZM317.275 811.107V805.729H314.619V811.107C314.603 816.553 311.183 822.23 306.85 824.355L308.543 826.447C311.896 824.671 314.669 820.886 315.98 816.47C317.292 820.67 320.064 824.189 323.418 825.916L324.979 823.791C320.695 821.832 317.259 816.453 317.275 811.107ZM321.758 815.391H328.764V832.756H331.354V803.172H328.764V813.266H321.758V815.391ZM367.877 803.172H365.254V824.787H367.877V814.361H372.326V812.17H367.877V803.172ZM344.834 819.275L345.963 821.367C354.479 818.711 359.908 813.066 359.908 805.463H346.062V807.654H357.069C356.521 812.867 351.923 817.067 344.834 819.275ZM349.383 832.059H369.238V829.867H351.973V822.596H349.383V832.059ZM407.09 803.172H404.5V818.279H407.09V803.172ZM383.217 816.719L384.18 818.91C392.912 816.868 398.241 812.17 398.258 804.633H384.711V806.791H395.402C394.938 811.539 390.621 815.075 383.217 816.719ZM387.898 821.766H404.5V824.82H387.965V832.424H408.152V830.332H390.555V826.812H407.09V819.674H387.898V821.766ZM436.441 803.172H433.818V832.756H436.441V803.172ZM413.199 815.756C413.216 822.048 416.337 826.032 420.736 826.016C425.119 826.032 428.29 822.048 428.273 815.756C428.29 809.48 425.119 805.479 420.736 805.463C416.337 805.479 413.216 809.48 413.199 815.756ZM415.723 815.756C415.723 810.958 417.781 807.804 420.736 807.787C423.708 807.804 425.75 810.958 425.75 815.756C425.75 820.554 423.708 823.708 420.736 823.691C417.781 823.708 415.723 820.554 415.723 815.756ZM456.529 805.994H442.982V825.451H445.24C450.901 825.451 454.504 825.252 458.854 824.422L458.521 822.264C454.438 823.061 450.935 823.243 445.605 823.227V808.186H456.529V805.994ZM454.77 816.088H463.369V832.756H465.992V803.172H463.369V813.93H454.77V816.088ZM493.717 803.172H491.127V832.756H493.717V817.117H498.664V814.926H493.717V803.172ZM472.035 808.086H482.859V814.328H472.102V825.617H474.459C480.153 825.584 484.088 825.368 488.736 824.521L488.471 822.363C484.005 823.193 480.17 823.409 474.691 823.393V816.486H485.449V805.928H472.035V808.086ZM523.6 805.098H503.645V807.256H521.01V807.688C521.01 810.443 521.01 813.531 520.113 817.781H500.258V819.939H512.344V832.756H514.967V819.939H527.152V817.781H522.753C523.6 813.548 523.6 810.477 523.6 807.688V805.098ZM556.67 826.713H549.963V818.678C552.403 817.366 553.881 815.274 553.881 812.635C553.881 808.069 549.398 805.064 543.09 805.031C536.781 805.064 532.299 808.069 532.299 812.635C532.299 815.324 533.826 817.449 536.35 818.761V826.713H529.643V828.904H556.67V826.713ZM534.822 812.635C534.806 809.331 538.242 807.156 543.09 807.189C547.888 807.156 551.357 809.331 551.357 812.635C551.357 815.938 547.888 818.146 543.09 818.146C538.242 818.146 534.806 815.938 534.822 812.635ZM538.906 826.713V819.707C540.168 820.039 541.579 820.205 543.09 820.205C544.634 820.205 546.062 820.022 547.34 819.69V826.713H538.906Z" fill="#3D3D3D"/>
<path d="M233.271 854.172H230.682V869.213H233.271V862.771H237.721V860.58H233.271V854.172ZM210.76 861.809C210.743 865.693 213.997 868.366 218.43 868.383C222.879 868.366 226.1 865.693 226.1 861.809C226.1 857.94 222.879 855.284 218.43 855.268C213.997 855.284 210.743 857.94 210.76 861.809ZM213.316 861.809C213.3 859.252 215.475 857.426 218.43 857.459C221.368 857.426 223.56 859.252 223.543 861.809C223.56 864.398 221.368 866.258 218.43 866.258C215.475 866.258 213.3 864.398 213.316 861.809ZM214.445 872.699H230.682V875.82H214.512V883.291H234.367V881.199H217.068V877.812H233.271V870.607H214.445V872.699ZM263.254 857.16H242.436V859.318H260.631V860.115C260.614 863.651 260.614 867.785 259.502 873.43L262.158 873.729C263.221 867.785 263.221 863.734 263.254 860.115V857.16ZM239.58 879.506H266.475V877.348H252.695V866.789H250.139V877.348H239.58V879.506ZM295.992 877.746H283.674V871.371H292.672V856.264H290.115V861.609H274.775V856.264H272.152V871.371H281.117V877.746H268.965V879.904H295.992V877.746ZM274.775 869.246V863.734H290.115V869.246H274.775ZM322.688 854.172H320.098V883.689H322.688V854.172ZM300.275 876.086H302.666C307.397 876.086 312.062 875.721 317.309 874.625L316.943 872.4C311.996 873.446 307.348 873.795 302.832 873.828V857.094H300.275V876.086ZM346.826 863.236V859.385H353.865V857.227H337.23V859.385H344.203V863.236C344.187 868.35 340.501 873.928 336.268 875.953L337.828 878.012C341.198 876.318 344.187 872.566 345.564 868.233C346.942 872.317 349.914 875.721 353.367 877.281L354.828 875.223C350.479 873.347 346.843 868.25 346.826 863.236ZM357.982 883.689H360.605V854.172H357.982V883.689ZM392.646 869.412H365.619V871.57H392.646V869.412ZM369.039 856.994H386.537V859.916H369.139V866.855H389.791V864.83H371.729V861.875H389.16V854.902H369.039V856.994ZM369.305 883.291H389.16V874.26H369.305V883.291ZM371.861 881.166V876.385H386.604V881.166H371.861ZM419.408 854.172H416.818V869.279H419.408V854.172ZM395.535 867.719L396.498 869.91C405.23 867.868 410.56 863.17 410.576 855.633H397.029V857.791H407.721C407.256 862.539 402.939 866.075 395.535 867.719ZM400.217 872.766H416.818V875.82H400.283V883.424H420.471V881.332H402.873V877.812H419.408V870.674H400.217V872.766ZM448.76 854.172H446.137V883.756H448.76V854.172ZM425.518 866.756C425.534 873.048 428.655 877.032 433.055 877.016C437.438 877.032 440.608 873.048 440.592 866.756C440.608 860.48 437.438 856.479 433.055 856.463C428.655 856.479 425.534 860.48 425.518 866.756ZM428.041 866.756C428.041 861.958 430.1 858.804 433.055 858.787C436.026 858.804 438.068 861.958 438.068 866.756C438.068 871.554 436.026 874.708 433.055 874.691C430.1 874.708 428.041 871.554 428.041 866.756ZM472.334 873.994V872.367H469.811V873.994C469.777 876.816 467.536 879.971 463.801 881.365L465.129 883.291C467.951 882.229 469.977 880.17 471.039 877.796C471.919 880.27 473.745 882.428 476.617 883.523C479.34 882.378 481.149 880.104 482.062 877.713C483.092 880.187 485.15 882.245 488.105 883.291L489.4 881.365C485.615 880.054 483.374 877.032 483.391 873.994V872.367H480.834V873.994C480.851 876.269 479.356 879.224 476.534 880.967C473.729 879.373 472.317 876.601 472.334 873.994ZM463.037 862.838C463.021 866.889 466.291 869.678 470.773 869.678C475.256 869.678 478.493 866.889 478.51 862.838C478.493 858.721 475.256 855.915 470.773 855.932C466.291 855.915 463.021 858.721 463.037 862.838ZM465.594 862.838C465.561 860.082 467.735 858.123 470.773 858.156C473.778 858.123 475.953 860.082 475.953 862.838C475.953 865.577 473.778 867.503 470.773 867.52C467.735 867.503 465.561 865.577 465.594 862.838ZM484.121 871.072H486.711V854.205H484.121V871.072ZM501.885 873.961V872.168H499.395V873.961C499.361 876.816 497.12 880.021 493.385 881.365L494.68 883.324C497.502 882.245 499.527 880.17 500.59 877.796C501.486 880.286 503.312 882.461 506.135 883.557C508.891 882.395 510.7 880.104 511.63 877.696C512.626 880.187 514.685 882.245 517.623 883.324L518.984 881.365C515.133 880.087 512.925 877.016 512.941 873.961V872.168H510.385V873.961C510.368 876.235 508.924 879.24 506.085 881.017C503.279 879.39 501.868 876.617 501.885 873.961ZM492.223 862.771C492.223 866.839 495.443 869.678 499.859 869.678C503.811 869.678 506.882 867.287 507.38 863.768H513.572V871.039H516.195V854.172H513.572V861.609H507.363C506.782 858.189 503.744 855.849 499.859 855.865C495.443 855.849 492.223 858.721 492.223 862.771ZM494.746 862.771C494.713 860.032 496.888 858.057 499.859 858.09C502.765 858.057 504.939 860.032 504.939 862.771C504.939 865.511 502.765 867.503 499.859 867.52C496.888 867.503 494.713 865.511 494.746 862.771ZM529.045 856.463C524.679 856.479 521.624 860.48 521.641 866.756C521.624 873.048 524.679 877.032 529.045 877.016C533.162 877.032 536.117 873.413 536.399 867.619H542.99V883.756H545.58V854.172H542.99V865.461H536.366C535.968 859.933 533.062 856.479 529.045 856.463ZM524.131 866.756C524.147 861.958 526.14 858.804 529.045 858.787C531.934 858.804 533.959 861.958 533.959 866.756C533.959 871.554 531.934 874.708 529.045 874.691C526.14 874.708 524.147 871.554 524.131 866.756ZM577.521 877.713H570.814V869.678C573.255 868.366 574.732 866.274 574.732 863.635C574.732 859.069 570.25 856.064 563.941 856.031C557.633 856.064 553.15 859.069 553.15 863.635C553.15 866.324 554.678 868.449 557.201 869.761V877.713H550.494V879.904H577.521V877.713ZM555.674 863.635C555.657 860.331 559.094 858.156 563.941 858.189C568.739 858.156 572.209 860.331 572.209 863.635C572.209 866.938 568.739 869.146 563.941 869.146C559.094 869.146 555.657 866.938 555.674 863.635ZM559.758 877.713V870.707C561.02 871.039 562.431 871.205 563.941 871.205C565.485 871.205 566.913 871.022 568.191 870.69V877.713H559.758Z" fill="#4B7AF2"/>
</g>
<g filter="url(#filter3_d_344_4287)">
<path d="M1753.31 225H1365.69C1343.77 225 1326 240.408 1326 259.415V426.585C1326 445.592 1343.77 461 1365.69 461H1753.31C1775.23 461 1793 445.592 1793 426.585V259.415C1793 240.408 1775.23 225 1753.31 225Z" fill="white"/>
<path d="M1376.33 279.617H1383.9V301H1386.92V279.617H1394.46V276.961H1376.33V279.617ZM1399.54 276.961H1396.38L1405.18 301H1408.34L1417.13 276.961H1413.98L1406.88 297.115H1406.61L1399.54 276.961ZM1444.23 274.172H1441.71V303.689H1444.23V274.172ZM1419.29 286.922C1419.31 293.197 1421.8 297.198 1425.63 297.182C1429.27 297.198 1431.74 293.596 1431.99 287.852H1435.79V302.195H1438.29V274.803H1435.79V285.693H1431.98C1431.64 280.132 1429.22 276.679 1425.63 276.662C1421.8 276.679 1419.31 280.646 1419.29 286.922ZM1421.75 286.922C1421.72 282.124 1423.24 279.119 1425.63 279.119C1428.04 279.119 1429.57 282.124 1429.55 286.922C1429.57 291.703 1428.04 294.725 1425.63 294.691C1423.24 294.725 1421.72 291.703 1421.75 286.922ZM1458.71 282.107V276.729H1456.05V282.107C1456.03 287.553 1452.61 293.23 1448.28 295.355L1449.97 297.447C1453.33 295.671 1456.1 291.886 1457.41 287.47C1458.72 291.67 1461.49 295.189 1464.85 296.916L1466.41 294.791C1462.12 292.832 1458.69 287.453 1458.71 282.107ZM1463.19 286.391H1470.19V303.756H1472.78V274.172H1470.19V284.266H1463.19V286.391ZM1501.57 283.137H1483.94V275.268H1481.35V285.229H1501.57V283.137ZM1477.66 291.371H1504.69V289.246H1477.66V291.371ZM1481.18 302.959H1501.74V300.801H1483.77V294.393H1481.18V302.959ZM1530.22 276.43H1516.88V289.545H1530.22V276.43ZM1518.47 301.498L1519.5 303.557C1523.88 302.743 1527.95 300.502 1529.76 297.099C1531.52 300.502 1535.57 302.743 1539.95 303.557L1541.02 301.498C1535.79 300.618 1531 297.53 1531.02 293.264V292.367H1528.43V293.264C1528.43 297.53 1523.67 300.618 1518.47 301.498ZM1519.43 287.42V278.588H1527.63V287.42H1519.43ZM1536.1 293.828H1538.69V284.465H1543.14V282.273H1538.69V274.172H1536.1V293.828ZM1555.62 279.053V278.289H1562.43V276.164H1546.1V278.289H1553V279.053C1552.99 283.104 1549.81 286.739 1545.37 288.15L1546.73 290.209C1550.25 289.014 1553.04 286.457 1554.35 283.187C1555.67 286.241 1558.45 288.615 1561.9 289.711L1563.23 287.652C1558.83 286.324 1555.64 282.904 1555.62 279.053ZM1550.25 303.291H1569.37V291.604H1566.78V295.189H1552.84V291.604H1550.25V303.291ZM1552.84 301.166V297.281H1566.78V301.166H1552.84ZM1566.78 290.143H1569.37V274.172H1566.78V290.143ZM1598.72 274.172H1596.1V303.756H1598.72V274.172ZM1575.48 286.756C1575.5 293.048 1578.62 297.032 1583.02 297.016C1587.4 297.032 1590.57 293.048 1590.55 286.756C1590.57 280.48 1587.4 276.479 1583.02 276.463C1578.62 276.479 1575.5 280.48 1575.48 286.756ZM1578 286.756C1578 281.958 1580.06 278.804 1583.02 278.787C1585.99 278.804 1588.03 281.958 1588.03 286.756C1588.03 291.554 1585.99 294.708 1583.02 294.691C1580.06 294.708 1578 291.554 1578 286.756ZM1628.84 274.205H1626.35V281.842H1622.2V274.77H1619.77V291.537H1622.2V284H1626.35V291.77H1628.84V274.205ZM1605.06 278.355H1613.76V282.207H1605.13V290.408H1607.06C1611.34 290.441 1614.48 290.292 1618.31 289.578L1618.01 287.453C1614.53 288.167 1611.54 288.333 1607.65 288.35V284.199H1616.25V276.264H1605.06V278.355ZM1605.63 301.365L1606.96 303.357C1609.76 302.312 1611.8 300.27 1612.87 297.912C1613.75 300.353 1615.56 302.494 1618.41 303.557C1621.17 302.411 1622.96 300.153 1623.87 297.763C1624.89 300.236 1626.95 302.295 1629.9 303.324L1631.2 301.365C1627.41 300.137 1625.17 297.148 1625.19 294.127V292.799H1622.63V294.127C1622.6 296.368 1621.17 299.307 1618.36 301.033C1615.56 299.439 1614.18 296.7 1614.2 294.127V292.799H1611.67V294.16C1611.66 296.933 1609.36 300.037 1605.63 301.365ZM1657.03 283.137H1639.4V275.268H1636.81V285.229H1657.03V283.137ZM1633.12 291.371H1660.15V289.246H1633.12V291.371ZM1636.64 302.959H1657.19V300.801H1639.23V294.393H1636.64V302.959ZM1687.81 274.172H1685.28V303.689H1687.81V274.172ZM1663.7 296.584H1665.56C1670.31 296.567 1673.2 296.418 1676.62 295.721L1676.35 293.496C1673.18 294.21 1670.49 294.359 1666.22 294.393V279.982H1674.82V277.824H1663.7V296.584ZM1672.83 287.652H1679.27V302.162H1681.76V274.902H1679.27V285.461H1672.83V287.652ZM1695.04 301.199C1696.22 301.183 1697.19 300.22 1697.17 299.041C1697.19 297.879 1696.22 296.916 1695.04 296.916C1693.88 296.916 1692.89 297.879 1692.92 299.041C1692.89 300.22 1693.88 301.183 1695.04 301.199ZM1703.68 301.199C1704.86 301.183 1705.82 300.22 1705.8 299.041C1705.82 297.879 1704.86 296.916 1703.68 296.916C1702.52 296.916 1701.52 297.879 1701.55 299.041C1701.52 300.22 1702.52 301.183 1703.68 301.199ZM1710.92 294.061V294.227H1713.77V294.061C1713.84 291.188 1714.58 289.91 1716.66 288.648C1718.72 287.387 1719.95 285.577 1719.95 282.971C1719.95 279.302 1717.24 276.629 1713.07 276.629C1709.27 276.629 1706.23 278.97 1706.07 283.004H1709.09C1709.27 280.265 1711.18 279.136 1713.07 279.152C1715.27 279.136 1717.03 280.58 1717.03 282.838C1717.03 284.697 1715.98 286.025 1714.6 286.855C1712.31 288.25 1710.95 289.611 1710.92 294.061ZM1710.32 299.041C1710.29 300.22 1711.28 301.183 1712.44 301.199C1713.62 301.183 1714.58 300.22 1714.57 299.041C1714.58 297.879 1713.62 296.916 1712.44 296.916C1711.28 296.916 1710.29 297.879 1710.32 299.041ZM1390.8 327.43H1377.46V340.545H1390.8V327.43ZM1379.05 352.498L1380.08 354.557C1384.46 353.743 1388.53 351.502 1390.34 348.099C1392.1 351.502 1396.15 353.743 1400.53 354.557L1401.6 352.498C1396.37 351.618 1391.58 348.53 1391.6 344.264V343.367H1389.01V344.264C1389.01 348.53 1384.25 351.618 1379.05 352.498ZM1380.01 338.42V329.588H1388.21V338.42H1380.01ZM1396.68 344.828H1399.27V335.465H1403.72V333.273H1399.27V325.172H1396.68V344.828ZM1429.42 339.018H1411.66V329.721H1429.12V327.596H1409.03V341.143H1417.73V348.779H1405.58V350.971H1432.61V348.779H1420.29V341.143H1429.42V339.018ZM1449.38 342.504H1446.92V354.291H1457.18V342.504H1454.75V346.189H1449.38V342.504ZM1443.96 333.273C1443.95 337.324 1447.13 340.08 1451.63 340.08C1455.63 340.08 1458.67 337.789 1459.19 334.303H1465.35V340.811H1467.97V325.172H1465.35V332.145H1459.17C1458.61 328.741 1455.6 326.5 1451.63 326.5C1447.13 326.5 1443.95 329.239 1443.96 333.273ZM1446.45 333.273C1446.45 330.584 1448.59 328.691 1451.63 328.691C1454.6 328.691 1456.75 330.584 1456.75 333.273C1456.75 335.979 1454.6 337.905 1451.63 337.922C1448.59 337.905 1446.45 335.979 1446.45 333.273ZM1449.38 352.232V348.182H1454.75V352.232H1449.38ZM1457.58 352.531L1458.94 354.523C1461.54 353.411 1463.35 351.319 1464.28 348.912C1465.2 351.353 1466.97 353.444 1469.7 354.523L1471.06 352.531C1467.45 351.203 1465.58 347.933 1465.61 344.828V342.305H1463.02V344.828C1463 347.816 1461.13 351.054 1457.58 352.531ZM1496.56 328.16H1475.74V330.318H1493.93V331.115C1493.92 334.651 1493.92 338.785 1492.8 344.43L1495.46 344.729C1496.52 338.785 1496.52 334.734 1496.56 331.115V328.16ZM1472.88 350.506H1499.78V348.348H1486V337.789H1483.44V348.348H1472.88V350.506ZM1507.12 349.775H1503.89L1502.07 358.807H1504.53L1507.12 349.775Z" fill="#3D3D3D"/>
<path d="M1534.64 327.861H1520.79V347.584H1523.12C1528.71 347.567 1532.58 347.401 1537.2 346.621L1536.9 344.463C1532.48 345.227 1528.75 345.426 1523.42 345.426V338.287H1533.98V336.162H1523.42V330.053H1534.64V327.861ZM1539.75 354.689H1542.34V339.283H1547.29V337.059H1542.34V325.172H1539.75V354.689ZM1559.44 334.236V330.385H1566.48V328.227H1549.85V330.385H1556.82V334.236C1556.8 339.35 1553.12 344.928 1548.88 346.953L1550.45 349.012C1553.82 347.318 1556.8 343.566 1558.18 339.233C1559.56 343.317 1562.53 346.721 1565.98 348.281L1567.45 346.223C1563.1 344.347 1559.46 339.25 1559.44 334.236ZM1570.6 354.689H1573.22V325.172H1570.6V354.689ZM1596.7 333.107V327.729H1594.14V333.107C1594.11 338.503 1590.69 344.164 1586.37 346.289L1588.03 348.381C1591.35 346.604 1594.14 342.869 1595.45 338.52C1596.76 342.62 1599.49 346.123 1602.74 347.816L1604.33 345.725C1600.13 343.666 1596.7 338.304 1596.7 333.107ZM1607.06 354.689H1609.65V339.416H1614.59V337.158H1609.65V325.172H1607.06V354.689ZM1639.26 325.205H1636.67V342.803H1639.26V335H1643.75V332.775H1639.26V325.205ZM1617.45 328.957H1628.27V332.842H1617.52V341.242H1619.81C1625.3 341.242 1629.25 341.076 1633.98 340.246L1633.72 338.154C1629.12 338.901 1625.32 339.067 1620.07 339.051V334.867H1630.83V326.799H1617.45V328.957ZM1620.57 354.291H1639.26V344.264H1620.57V354.291ZM1623.13 352.166V346.289H1636.74V352.166H1623.13ZM1672.5 337.59H1645.57V339.682H1672.5V337.59ZM1648.83 344.363H1666.46V347.219H1648.89V354.357H1669.91V352.232H1651.48V349.178H1669.01V342.338H1648.83V344.363ZM1649.16 335.166H1669.28V333.041H1651.78V328.293H1668.98V326.201H1649.16V335.166ZM1689.87 327.861H1676.22V341.441H1689.87V327.861ZM1678.78 339.35V329.986H1687.34V339.35H1678.78ZM1679.57 354.059H1699.39V351.867H1682.13V344.762H1679.57V354.059ZM1695.44 346.82H1698.03V336.361H1702.48V334.17H1698.03V325.172H1695.44V346.82ZM1399.04 376.172H1396.45V405.689H1399.04V390.051H1403.99V387.793H1399.04V376.172ZM1377.42 398.617H1391.24V378.695H1388.65V386.498H1380.01V378.695H1377.42V398.617ZM1380.01 396.426V388.59H1388.65V396.426H1380.01ZM1429.05 377.467H1409V379.592H1426.46C1426.48 381.534 1426.45 383.941 1425.77 387.229H1405.58V389.32H1432.61V387.229H1428.39C1429.05 383.908 1429.05 381.352 1429.05 379.359V377.467ZM1408.8 394.4H1426.56V397.688H1408.83V405.357H1429.92V403.232H1411.46V399.746H1429.15V392.309H1408.8V394.4ZM1457.81 376.172H1455.22V405.689H1457.81V390.051H1462.76V387.793H1457.81V376.172ZM1436.19 398.617H1450.01V378.695H1447.42V386.498H1438.78V378.695H1436.19V398.617ZM1438.78 396.426V388.59H1447.42V396.426H1438.78ZM1487.82 377.467H1467.77V379.592H1485.23C1485.25 381.534 1485.22 383.941 1484.54 387.229H1464.35V389.32H1491.38V387.229H1487.16C1487.82 383.908 1487.82 381.352 1487.82 379.359V377.467ZM1467.57 394.4H1485.33V397.688H1467.6V405.357H1488.69V403.232H1470.23V399.746H1487.92V392.309H1467.57V394.4ZM1516.81 376.205H1514.22V398.318H1516.81V388.125H1521.26V385.934H1516.81V376.205ZM1493.8 381.949H1511.4V379.824H1503.89V376.205H1501.3V379.824H1493.8V381.949ZM1495.49 389.088C1495.48 392.408 1498.33 394.55 1502.6 394.533C1506.82 394.55 1509.67 392.408 1509.71 389.088C1509.67 385.734 1506.82 383.576 1502.6 383.576C1498.33 383.576 1495.48 385.734 1495.49 389.088ZM1497.98 389.088C1497.97 386.979 1499.81 385.618 1502.6 385.635C1505.36 385.618 1507.21 386.979 1507.25 389.088C1507.21 391.163 1505.36 392.508 1502.6 392.475C1499.81 392.508 1497.97 391.163 1497.98 389.088ZM1498.35 405.059H1518.17V402.867H1500.91V396.559H1498.35V405.059ZM1554.93 379.326H1534.57V381.484H1552.37V382.281C1552.37 385.9 1552.37 390.316 1551.18 396.359L1553.83 396.625C1554.93 390.2 1554.93 386 1554.93 382.281V379.326ZM1531.65 401.34H1558.55V399.182H1531.65V401.34ZM1575.38 378.264H1562.2V380.389H1572.79V384.771H1562.27V393.803H1564.52C1570.38 393.819 1573.89 393.67 1578.07 393.006L1577.84 390.814C1573.85 391.495 1570.47 391.661 1564.89 391.645V386.896H1575.38V378.264ZM1566.35 405.059H1586.4V402.867H1568.94V396.227H1566.35V405.059ZM1577.27 386.166H1582.88V397.887H1585.51V376.205H1582.88V383.908H1577.27V386.166ZM1609.58 381.053V380.289H1616.39V378.164H1600.05V380.289H1606.96V381.053C1606.94 385.104 1603.77 388.739 1599.32 390.15L1600.68 392.209C1604.2 391.014 1606.99 388.457 1608.3 385.187C1609.63 388.241 1612.4 390.615 1615.86 391.711L1617.18 389.652C1612.78 388.324 1609.6 384.904 1609.58 381.053ZM1604.2 405.291H1623.33V393.604H1620.74V397.189H1606.79V393.604H1604.2V405.291ZM1606.79 403.166V399.281H1620.74V403.166H1606.79ZM1620.74 392.143H1623.33V376.172H1620.74V392.143ZM1652.68 376.172H1650.05V405.756H1652.68V376.172ZM1629.44 388.756C1629.45 395.048 1632.57 399.032 1636.97 399.016C1641.36 399.032 1644.53 395.048 1644.51 388.756C1644.53 382.48 1641.36 378.479 1636.97 378.463C1632.57 378.479 1629.45 382.48 1629.44 388.756ZM1631.96 388.756C1631.96 383.958 1634.02 380.804 1636.97 380.787C1639.94 380.804 1641.99 383.958 1641.99 388.756C1641.99 393.554 1639.94 396.708 1636.97 396.691C1634.02 396.708 1631.96 393.554 1631.96 388.756ZM1667.88 395.961V394.168H1665.39V395.961C1665.36 398.816 1663.12 402.021 1659.38 403.365L1660.68 405.324C1663.5 404.245 1665.53 402.17 1666.59 399.796C1667.49 402.286 1669.31 404.461 1672.13 405.557C1674.89 404.395 1676.7 402.104 1677.63 399.696C1678.63 402.187 1680.68 404.245 1683.62 405.324L1684.98 403.365C1681.13 402.087 1678.92 399.016 1678.94 395.961V394.168H1676.38V395.961C1676.37 398.235 1674.92 401.24 1672.08 403.017C1669.28 401.39 1667.87 398.617 1667.88 395.961ZM1658.22 384.771C1658.22 388.839 1661.44 391.678 1665.86 391.678C1669.81 391.678 1672.88 389.287 1673.38 385.768H1679.57V393.039H1682.2V376.172H1679.57V383.609H1673.36C1672.78 380.189 1669.74 377.849 1665.86 377.865C1661.44 377.849 1658.22 380.721 1658.22 384.771ZM1660.75 384.771C1660.71 382.032 1662.89 380.057 1665.86 380.09C1668.76 380.057 1670.94 382.032 1670.94 384.771C1670.94 387.511 1668.76 389.503 1665.86 389.52C1662.89 389.503 1660.71 387.511 1660.75 384.771ZM1695.04 378.463C1690.68 378.479 1687.62 382.48 1687.64 388.756C1687.62 395.048 1690.68 399.032 1695.04 399.016C1699.16 399.032 1702.12 395.413 1702.4 389.619H1708.99V405.756H1711.58V376.172H1708.99V387.461H1702.37C1701.97 381.933 1699.06 378.479 1695.04 378.463ZM1690.13 388.756C1690.15 383.958 1692.14 380.804 1695.04 380.787C1697.93 380.804 1699.96 383.958 1699.96 388.756C1699.96 393.554 1697.93 396.708 1695.04 396.691C1692.14 396.708 1690.15 393.554 1690.13 388.756ZM1743.52 399.713H1736.81V391.678C1739.25 390.366 1740.73 388.274 1740.73 385.635C1740.73 381.069 1736.25 378.064 1729.94 378.031C1723.63 378.064 1719.15 381.069 1719.15 385.635C1719.15 388.324 1720.68 390.449 1723.2 391.761V399.713H1716.49V401.904H1743.52V399.713ZM1721.67 385.635C1721.66 382.331 1725.09 380.156 1729.94 380.189C1734.74 380.156 1738.21 382.331 1738.21 385.635C1738.21 388.938 1734.74 391.146 1729.94 391.146C1725.09 391.146 1721.66 388.938 1721.67 385.635ZM1725.76 399.713V392.707C1727.02 393.039 1728.43 393.205 1729.94 393.205C1731.49 393.205 1732.91 393.022 1734.19 392.69V399.713H1725.76Z" fill="#4B7AF2"/>
<path d="M1475 461H1430.04L1425.3 470.458C1421.74 477.558 1416.82 484.173 1410.71 490.067C1408.66 492.047 1411.43 494.865 1414.33 493.745L1424.94 489.648C1439.51 484.026 1453.01 476.79 1465.03 468.155L1475 461Z" fill="white"/>
</g>
<g clip-path="url(#clip0_344_4287)">
<path d="M1645 1069C1562.98 1069 1480.96 1069 1398.46 1068.6C1393.94 1050.6 1389.94 1033 1391.35 1014.31C1412.44 1023.19 1425.2 1010.27 1437.99 997.412C1446.21 1025.65 1488.24 1028.54 1504.32 1005.85C1508.03 1000.61 1510.25 994.051 1512.06 987.782C1514.48 979.406 1520.54 972.18 1526.38 972.385C1532.14 972.586 1538.34 979.626 1540.06 987.793C1541.54 994.853 1543.78 1001.46 1548.7 1007.14C1559.02 1019.07 1572.08 1022.2 1587.03 1020.2C1601.85 1018.22 1612.33 1008.13 1614.72 993.445C1615 991.724 1615.1 989.975 1615.33 987.764C1628.3 1001.4 1641.12 1013.83 1662.13 1005.7C1661.29 1009.64 1660.67 1012.88 1659.91 1016.09C1655.74 1033.52 1654.17 1051.71 1644.88 1067.65C1644.69 1067.96 1644.95 1068.54 1645 1069Z" fill="#DBEAFD"/>
<path d="M1645.43 1069C1644.95 1068.54 1644.69 1067.96 1644.87 1067.65C1654.17 1051.71 1655.74 1033.52 1659.91 1016.09C1660.67 1012.88 1661.29 1009.64 1662.12 1005.7C1641.12 1013.83 1628.29 1001.4 1615.33 987.764C1615.1 989.975 1615 991.725 1614.72 993.445C1612.33 1008.13 1601.85 1018.22 1587.02 1020.2C1572.08 1022.2 1559.02 1019.07 1548.7 1007.14C1543.77 1001.46 1541.54 994.854 1540.05 987.793C1538.34 979.626 1532.14 972.586 1526.38 972.385C1520.53 972.18 1514.48 979.406 1512.06 987.782C1510.25 994.051 1508.03 1000.61 1504.32 1005.85C1488.24 1028.54 1446.21 1025.65 1437.99 997.412C1425.2 1010.27 1412.44 1023.19 1391.35 1014.31C1389.94 1033 1393.94 1050.6 1397.99 1068.6C1396.28 1069 1394.57 1069 1392.43 1069C1390.21 1059.43 1388.41 1049.86 1386.66 1040.29C1386.33 1038.51 1386.1 1036.68 1386.06 1034.88C1385.93 1027.99 1386.07 1021.09 1385.72 1014.22C1385.63 1012.38 1384.47 1010.33 1383.23 1008.88C1378.86 1003.83 1377.54 997.873 1376.95 991.459C1376.74 989.158 1375.64 986.657 1374.23 984.795C1366.98 975.256 1362.59 964.738 1363.09 952.64C1363.5 942.678 1366.66 933.291 1372.13 925.106C1380.29 912.902 1384.66 899.58 1388.09 885.398C1392.86 865.698 1402.06 848.142 1417.35 833.88C1428.13 823.833 1439.11 814.342 1452.39 807.921C1467.36 800.682 1482.95 795.202 1499.71 794.034C1511.6 793.205 1523.55 791.714 1535.39 792.273C1551.01 793.01 1567.05 793.013 1581.55 800.188C1588.65 803.7 1595.13 808.454 1601.97 812.491C1611.95 818.373 1622.03 823.949 1630.65 831.983C1643.49 843.957 1651.88 858.419 1657.56 874.836C1659.94 881.696 1663.22 888.266 1666.38 894.823C1670.93 904.239 1676.33 913.283 1680.31 922.92C1685.79 936.159 1687.31 949.722 1680.46 963.288C1678.24 967.681 1676.97 972.566 1675.45 977.283C1675.13 978.269 1675.55 979.508 1675.68 980.626C1676.37 986.519 1676.63 992.497 1672.33 997.183C1666.3 1003.75 1665.71 1012.14 1664.1 1020.14C1660.8 1036.48 1659.46 1053.33 1651.02 1068.64C1649.28 1069 1647.57 1069 1645.43 1069ZM1584.54 952.359C1583.18 952.583 1581.82 952.807 1579.69 953.012C1577.64 953.017 1575.59 953.023 1573.4 952.095C1571.6 952.399 1569.79 952.703 1568 952.998C1568 952.998 1568.01 952.981 1567.29 952.592C1562.28 954.669 1557.26 956.746 1552.25 958.823C1552.01 958.28 1551.77 957.736 1551.53 957.192C1558.15 950.037 1567.47 948.462 1575.81 946.92C1575.27 941.142 1574.77 935.835 1574.26 930.448C1561.26 928.403 1555.91 931.736 1552.42 944.358C1552.07 945.641 1551.61 946.91 1551.41 948.218C1550.79 952.207 1548.27 953.01 1545.38 951.084C1541.14 948.246 1537.15 944.96 1533.35 941.541C1528.23 936.936 1523.96 936.842 1518.96 941.497C1515.68 944.55 1512.5 947.84 1508.77 950.239C1503.65 953.536 1502.12 952.664 1500.51 946.854C1499.71 943.967 1499.18 940.968 1498.02 938.229C1497.17 936.188 1495.92 933.604 1494.14 932.776C1485.26 928.634 1476.24 929.1 1468.17 932.457C1470.35 937.455 1472.34 941.991 1474.53 947.011C1475 947.054 1476.41 946.909 1477.61 947.333C1484.75 949.85 1491.88 952.428 1498.92 955.208C1499.65 955.496 1499.81 957.241 1500.23 958.31C1499.19 958.23 1498.02 958.438 1497.15 958.016C1494.76 956.858 1492.63 955.065 1490.15 954.204C1486.59 952.96 1482.81 952.314 1479.12 951.414C1479.03 951.847 1478.94 952.281 1478.84 952.714C1498.5 959.043 1507.53 971.187 1504.81 987.653C1502.26 1003.06 1488.05 1014.69 1472.42 1013.85C1462.13 1013.31 1453.89 1008.71 1448.2 1000.05C1442.48 991.333 1442.86 981.72 1444.74 971.896C1440.46 979.198 1439.7 987.066 1441.49 994.879C1446.85 1018.17 1471.03 1020.99 1488.17 1014.25C1500.11 1009.55 1507.13 999.534 1509.18 986.418C1510.62 977.2 1518.69 969.112 1526.01 968.979C1533.24 968.848 1541.43 976.792 1542.98 986.139C1546.19 1005.42 1561.54 1019.55 1585.19 1017.01C1602.38 1015.17 1613.63 1001.05 1611.5 983.842C1610.43 975.218 1607.01 967.575 1602.61 960.205C1597.88 952.31 1598.02 952.232 1588.47 953.347C1587.3 953.224 1586.13 953.101 1585.01 952.997C1585.01 952.997 1585.05 953.016 1584.54 952.359ZM1460.82 931.93C1465.04 931.686 1463.7 929.666 1462.44 927.339C1455.66 914.884 1454.41 902.272 1460.89 889.15C1469.15 872.427 1489.48 870.688 1499.9 886.231C1509.1 899.956 1509.07 914.281 1501.43 928.748C1500.81 929.911 1499.61 931.15 1499.72 932.244C1500.33 938.033 1504.42 941.768 1508.92 944.378C1510.03 945.019 1513.6 941.439 1516.01 939.754C1516.55 939.379 1516.93 938.795 1517.41 938.338C1522.7 933.327 1529.56 933.214 1534.74 938.319C1536.61 940.157 1537.94 942.54 1540.15 945.52C1543.13 941.72 1544.94 939.431 1546.73 937.138C1547.41 936.268 1547.92 935.124 1548.79 934.566C1550.57 933.436 1552.54 932.62 1554.82 931.483C1541.05 918.164 1538.44 900.742 1546.72 883.615C1552.32 872.041 1565.41 867.769 1576.59 874.109C1587.21 880.128 1591.54 890.243 1591.76 901.656C1591.91 909.222 1589.64 916.835 1588.41 924.689C1588.67 924.705 1589.78 924.773 1591.64 925.12C1600.38 928.672 1609.13 932.224 1618.35 936.278C1629.99 945.231 1636.18 957.582 1639.98 971.343C1640.31 972.55 1639.26 974.138 1638.86 975.55C1637.83 974.489 1636.42 973.605 1635.82 972.338C1632.59 965.429 1630.36 957.914 1626.3 951.56C1617.38 937.622 1603.82 930.562 1587.53 929.227C1580.61 928.66 1577.32 933.811 1579.33 940.503C1581.21 946.761 1585.44 949.421 1592.82 948.745C1596.1 948.446 1599.29 948.175 1601.22 951.506C1604.64 957.395 1608.79 963.049 1611.06 969.367C1613.61 976.453 1616.81 982.776 1621.93 988.259C1628.29 995.057 1635.31 1000.73 1644.43 1003.39C1658.97 1007.63 1673.49 995.225 1671.23 980.698C1670.8 977.984 1671.1 974.707 1672.27 972.267C1681.8 952.403 1682.26 933.299 1670.68 913.68C1662.58 899.963 1655.59 885.415 1649.72 870.6C1644.03 856.24 1636.32 843.571 1624.28 834.254C1613.4 825.837 1601.23 819.097 1589.87 811.275C1580.57 804.868 1570.41 800.865 1559.25 800.127C1544.17 799.131 1529.02 798.098 1513.93 798.427C1485.75 799.04 1459.8 807.429 1436.96 824.19C1412.63 842.048 1396.36 865.202 1391.71 895.652C1391.34 898.075 1390.44 900.501 1389.37 902.72C1384.21 913.355 1378.56 923.765 1373.73 934.545C1365.92 951.984 1366.87 968.472 1380.13 983.376C1381.77 985.218 1382.82 988.39 1382.7 990.871C1381.91 1006.04 1396.06 1016.91 1410.54 1011.98C1419.64 1008.88 1426.85 1003.19 1432.92 995.838C1435.64 992.549 1437.08 989.197 1437.49 984.736C1438.03 978.862 1439.54 972.859 1441.84 967.423C1444.56 960.994 1447.67 953.868 1457.23 956.323C1457.83 956.478 1458.55 956.245 1459.2 956.112C1464.12 955.102 1467.63 952.213 1467.94 947.201C1468.12 944.241 1467.36 940.344 1465.47 938.331C1462.21 934.866 1457.31 935.838 1453.95 938.39C1448.48 942.558 1442.4 946.816 1438.88 952.468C1433.29 961.419 1429.65 971.574 1425.05 981.156C1424.54 982.225 1423.17 982.884 1422.2 983.734C1421.83 982.564 1420.99 981.3 1421.2 980.242C1421.67 977.812 1422.41 975.365 1423.48 973.134C1427.65 964.44 1431.99 955.829 1436.81 946.851C1443.01 939.404 1450.14 933.388 1460.82 931.93ZM1461.44 1007.22C1469.58 1011.59 1477.94 1011.1 1485.96 1007.38C1497.7 1001.94 1502.51 990.585 1501.56 980.652C1499.87 963.027 1482.32 951.101 1463.55 959.555C1453.57 964.05 1448.05 971.674 1447.18 982.119C1446.28 992.969 1451.21 1001.39 1461.44 1007.22ZM1485.5 887.985C1483.55 887.279 1481.61 886 1479.65 885.967C1471.6 885.829 1466.15 891.85 1465.89 900.729C1465.74 906.099 1469.43 909.079 1474.63 907.787C1483.31 905.632 1488.09 897.528 1485.5 887.985ZM1556.01 887.599C1552.45 891.04 1551.77 895.27 1552.82 899.873C1553.58 903.173 1555.87 904.425 1559.13 903.999C1565.93 903.111 1573.18 895.389 1573.22 888.652C1573.23 887.337 1572.21 885.446 1571.1 884.796C1566.72 882.238 1560.53 883.388 1556.01 887.599ZM1571.13 914.081C1569.63 915.644 1568.13 917.208 1566.64 918.771C1566.97 919.144 1567.3 919.517 1567.64 919.89C1571.03 919.469 1575.93 922.941 1577.2 916.93C1577.94 913.417 1574.4 913.811 1571.13 914.081ZM1574.71 924.087C1569.85 924.504 1564.39 922.184 1559.81 927.05C1566.41 927.05 1572.24 927.05 1578.08 927.05C1578.13 926.693 1578.19 926.335 1578.25 925.977C1577.33 925.425 1576.41 924.872 1574.71 924.087ZM1480.77 923.95C1478.4 924.476 1476.04 925.003 1473.67 925.529C1473.77 926.103 1473.86 926.677 1473.95 927.251C1480 927.251 1486.06 927.251 1492.44 927.251C1489.59 923.25 1485.48 924.021 1480.77 923.95ZM1494.08 920.927C1493.17 919.616 1492.32 917.25 1491.35 917.201C1488.94 917.079 1486.48 918.018 1484.04 918.53C1484.11 919.06 1484.17 919.59 1484.24 920.12C1487.46 920.631 1490.67 921.141 1494.08 920.927ZM1450.62 964.468C1451.35 963.441 1452.08 962.413 1453.11 960.945C1448.48 960.461 1447.76 962.843 1447.61 966.611C1448.77 965.888 1449.43 965.475 1450.62 964.468Z" fill="#313132"/>
<path d="M1590.89 924.84C1589.78 924.773 1588.68 924.705 1588.41 924.689C1589.64 916.835 1591.91 909.222 1591.76 901.656C1591.54 890.243 1587.22 880.128 1576.6 874.109C1565.41 867.769 1552.33 872.041 1546.73 883.615C1538.44 900.742 1541.05 918.164 1554.82 931.483C1552.55 932.62 1550.57 933.436 1548.79 934.566C1547.92 935.124 1547.42 936.268 1546.73 937.138C1544.94 939.431 1543.14 941.72 1540.15 945.52C1537.95 942.54 1536.61 940.157 1534.75 938.319C1529.56 933.214 1522.71 933.327 1517.41 938.338C1516.93 938.795 1516.55 939.379 1516.01 939.754C1513.6 941.439 1510.03 945.019 1508.92 944.378C1504.42 941.768 1500.34 938.033 1499.73 932.244C1499.61 931.15 1500.82 929.911 1501.43 928.748C1509.07 914.281 1509.1 899.956 1499.9 886.231C1489.48 870.688 1469.15 872.427 1460.89 889.15C1454.41 902.272 1455.66 914.884 1462.44 927.339C1463.7 929.666 1465.04 931.685 1460.36 931.525C1454.55 926.468 1447.89 925.478 1442.06 928.468C1435.1 932.037 1433.79 936.259 1436.26 947.187C1431.99 955.829 1427.65 964.44 1423.48 973.134C1422.42 975.365 1421.67 977.812 1421.2 980.242C1420.99 981.3 1421.83 982.564 1422.2 983.734C1423.17 982.884 1424.54 982.225 1425.05 981.156C1429.65 971.573 1433.29 961.419 1438.88 952.468C1442.4 946.816 1448.48 942.558 1453.96 938.39C1457.31 935.838 1462.21 934.866 1465.47 938.331C1467.36 940.344 1468.12 944.241 1467.94 947.201C1467.63 952.213 1464.12 955.101 1459.2 956.112C1458.55 956.245 1457.83 956.478 1457.23 956.323C1447.67 953.868 1444.56 960.994 1441.84 967.423C1439.54 972.859 1438.03 978.862 1437.49 984.736C1437.08 989.197 1435.64 992.549 1432.92 995.838C1426.85 1003.19 1419.64 1008.88 1410.54 1011.98C1396.06 1016.91 1381.92 1006.04 1382.7 990.871C1382.83 988.39 1381.78 985.218 1380.14 983.375C1366.87 968.472 1365.92 951.984 1373.73 934.545C1378.56 923.765 1384.21 913.355 1389.37 902.72C1390.45 900.501 1391.34 898.075 1391.71 895.652C1396.36 865.202 1412.63 842.048 1436.97 824.19C1459.8 807.429 1485.75 799.04 1513.93 798.426C1529.02 798.098 1544.17 799.131 1559.25 800.127C1570.41 800.865 1580.57 804.868 1589.88 811.275C1601.24 819.097 1613.4 825.837 1624.28 834.254C1636.32 843.571 1644.03 856.24 1649.72 870.6C1655.59 885.415 1662.58 899.963 1670.68 913.68C1682.27 933.299 1681.81 952.403 1672.27 972.267C1671.1 974.707 1670.81 977.984 1671.23 980.698C1673.49 995.225 1658.97 1007.63 1644.43 1003.39C1635.31 1000.73 1628.29 995.057 1621.93 988.259C1616.81 982.776 1613.61 976.452 1611.07 969.367C1608.79 963.049 1604.65 957.395 1601.23 951.505C1599.29 948.175 1596.1 948.446 1592.83 948.745C1585.44 949.421 1581.21 946.761 1579.33 940.503C1577.32 933.811 1580.61 928.66 1587.53 929.227C1603.82 930.562 1617.38 937.621 1626.3 951.56C1630.36 957.914 1632.59 965.429 1635.83 972.338C1636.42 973.605 1637.83 974.489 1638.86 975.55C1639.27 974.138 1640.31 972.55 1639.98 971.342C1636.18 957.582 1629.99 945.231 1618.15 935.601C1617.96 933.764 1618 932.603 1617.99 931.444C1617.94 924.698 1614.14 919.853 1607.4 918.346C1601.77 917.088 1593.69 917.933 1590.89 924.84Z" fill="#DBE9FC"/>
<path d="M1589.02 953.79C1598.02 952.231 1597.89 952.31 1602.61 960.205C1607.01 967.575 1610.43 975.218 1611.5 983.841C1613.63 1001.05 1602.38 1015.17 1585.2 1017.01C1561.54 1019.55 1546.19 1005.42 1542.99 986.138C1541.43 976.792 1533.24 968.848 1526.01 968.979C1518.69 969.111 1510.62 977.2 1509.18 986.418C1507.13 999.534 1500.11 1009.55 1488.17 1014.25C1471.03 1020.99 1446.85 1018.17 1441.49 994.879C1439.7 987.065 1440.46 979.197 1444.74 971.896C1442.86 981.72 1442.48 991.333 1448.2 1000.05C1453.9 1008.71 1462.13 1013.31 1472.42 1013.85C1488.05 1014.69 1502.26 1003.06 1504.81 987.653C1507.53 971.187 1498.5 959.043 1478.84 952.714C1478.94 952.281 1479.03 951.847 1479.12 951.413C1482.81 952.314 1486.59 952.96 1490.16 954.204C1492.63 955.065 1494.76 956.857 1497.15 958.016C1498.02 958.438 1499.2 958.23 1500.23 958.31C1499.81 957.241 1499.65 955.496 1498.92 955.208C1491.88 952.428 1484.76 949.85 1477.61 947.333C1476.41 946.908 1475 947.054 1474.53 947.011C1472.34 941.99 1470.36 937.455 1468.17 932.457C1476.24 929.1 1485.26 928.634 1494.15 932.776C1495.92 933.604 1497.17 936.188 1498.03 938.228C1499.18 940.968 1499.71 943.967 1500.51 946.854C1502.12 952.664 1503.65 953.535 1508.77 950.238C1512.5 947.84 1515.68 944.55 1518.96 941.497C1523.96 936.842 1528.23 936.936 1533.35 941.541C1537.16 944.96 1541.14 948.246 1545.39 951.084C1548.27 953.01 1550.8 952.207 1551.41 948.218C1551.61 946.91 1552.07 945.641 1552.42 944.358C1555.91 931.736 1561.27 928.403 1574.26 930.448C1574.77 935.835 1575.27 941.142 1575.81 946.92C1567.47 948.462 1558.15 950.036 1551.53 957.192C1551.77 957.736 1552.01 958.279 1552.25 958.823C1557.26 956.746 1562.28 954.669 1567.73 953.158C1567.3 954.203 1566.47 954.749 1565.57 955.15C1554.38 960.158 1547.93 968.815 1547.23 980.97C1546.51 993.72 1552.28 1003.48 1563.34 1009.84C1575.16 1016.62 1589.29 1014.86 1599.47 1005.65C1608.51 997.461 1611.23 983.553 1606.07 971.694C1602.65 963.821 1596.63 958.563 1589.01 954.671C1589.02 954.182 1589.02 953.986 1589.02 953.79ZM1526.38 942.32C1524.48 942.817 1522.41 942.998 1520.7 943.872C1516.11 946.215 1514.12 950.361 1514.28 955.33C1514.45 960.377 1518.14 964.65 1522.9 965.657C1527.74 966.684 1531.7 965.045 1534.67 961.092C1540 953.997 1536.03 943.305 1526.38 942.32Z" fill="#A3A3A3"/>
<path d="M1461.1 1007.06C1451.21 1001.39 1446.28 992.969 1447.18 982.119C1448.05 971.674 1453.57 964.049 1463.55 959.554C1482.33 951.1 1499.88 963.027 1501.56 980.651C1502.51 990.585 1497.7 1001.94 1485.96 1007.38C1477.94 1011.1 1469.59 1011.59 1461.1 1007.06ZM1471.15 962.221C1456.47 965.376 1449.53 979.658 1453.49 991.083C1457.08 1001.42 1469 1008.24 1479.29 1005.3C1491.7 1001.77 1498.69 990.735 1496.31 979.36C1494.05 968.521 1484.31 960.857 1471.15 962.221Z" fill="#494949"/>
<path d="M1589.01 954.964C1596.63 958.563 1602.65 963.821 1606.07 971.694C1611.23 983.553 1608.51 997.461 1599.47 1005.65C1589.29 1014.86 1575.16 1016.62 1563.34 1009.84C1552.28 1003.48 1546.51 993.72 1547.23 980.97C1547.92 968.815 1554.38 960.157 1565.57 955.15C1566.47 954.749 1567.3 954.203 1568.09 953.353C1568.01 952.981 1568 952.997 1568.37 953.315C1570.34 953.431 1571.94 953.229 1573.54 953.028C1575.59 953.023 1577.64 953.017 1580.54 953.078C1582.61 953.102 1583.83 953.059 1585.05 953.016C1585.05 953.016 1585.01 952.997 1585.05 953.329C1586.4 954.096 1587.7 954.53 1589.01 954.964ZM1584.81 957.439C1564.99 953.993 1550.83 965.021 1550.98 983.788C1551.07 995.602 1558.75 1005.29 1571.13 1009.19C1581.36 1012.41 1593.56 1008.34 1599.97 999.552C1610.94 984.538 1603.91 964.158 1584.81 957.439Z" fill="#313131"/>
<path d="M1485.71 888.331C1488.09 897.527 1483.31 905.632 1474.63 907.787C1469.43 909.079 1465.74 906.099 1465.9 900.729C1466.15 891.85 1471.6 885.829 1479.66 885.967C1481.61 886 1483.55 887.279 1485.71 888.331Z" fill="#F6F6F6"/>
<path d="M1556.28 887.349C1560.53 883.388 1566.72 882.238 1571.1 884.796C1572.21 885.446 1573.23 887.337 1573.22 888.652C1573.18 895.389 1565.93 903.11 1559.13 903.999C1555.87 904.425 1553.58 903.173 1552.82 899.873C1551.77 895.269 1552.45 891.04 1556.28 887.349Z" fill="#F6F6F6"/>
<path d="M1591.26 924.98C1593.69 917.933 1601.77 917.087 1607.4 918.346C1614.14 919.852 1617.94 924.697 1617.99 931.443C1618 932.603 1617.96 933.763 1617.9 935.35C1609.13 932.224 1600.38 928.672 1591.26 924.98Z" fill="#FACECD"/>
<path d="M1436.54 947.019C1433.79 936.259 1435.09 932.037 1442.06 928.468C1447.89 925.478 1454.55 926.468 1460.01 931.446C1450.14 933.388 1443.01 939.404 1436.54 947.019Z" fill="#F9CDCC"/>
<path d="M1571.54 914.009C1574.4 913.811 1577.94 913.417 1577.2 916.93C1575.93 922.941 1571.03 919.469 1567.64 919.89C1567.3 919.517 1566.97 919.144 1566.64 918.771C1568.14 917.208 1569.64 915.644 1571.54 914.009Z" fill="#ECECEC"/>
<path d="M1575.11 924.204C1576.41 924.872 1577.33 925.425 1578.25 925.977C1578.19 926.335 1578.13 926.693 1578.08 927.05C1572.24 927.05 1566.41 927.05 1559.81 927.05C1564.39 922.184 1569.85 924.504 1575.11 924.204Z" fill="#141414"/>
<path d="M1481.21 923.948C1485.49 924.02 1489.59 923.249 1492.44 927.25C1486.06 927.25 1480.01 927.25 1473.95 927.25C1473.86 926.676 1473.77 926.102 1473.67 925.528C1476.04 925.002 1478.4 924.476 1481.21 923.948Z" fill="#141414"/>
<path d="M1493.98 921.289C1490.67 921.14 1487.46 920.63 1484.24 920.12C1484.18 919.59 1484.11 919.06 1484.04 918.53C1486.48 918.018 1488.94 917.079 1491.35 917.201C1492.32 917.25 1493.18 919.616 1493.98 921.289Z" fill="#E8E8E8"/>
<path d="M1450.36 964.766C1449.43 965.475 1448.77 965.888 1447.61 966.611C1447.76 962.843 1448.48 960.461 1453.11 960.945C1452.08 962.413 1451.35 963.441 1450.36 964.766Z" fill="#A3A3A3"/>
<path d="M1589.01 954.671C1587.7 954.53 1586.4 954.096 1585.03 953.319C1586.14 953.1 1587.31 953.224 1588.75 953.569C1589.02 953.986 1589.02 954.182 1589.01 954.671Z" fill="#939393"/>
<path d="M1573.47 952.562C1571.94 953.23 1570.34 953.431 1568.36 953.32C1569.79 952.703 1571.6 952.399 1573.47 952.562Z" fill="#A3A3A3"/>
<path d="M1584.8 952.688C1583.83 953.059 1582.61 953.102 1580.92 953.088C1581.82 952.807 1583.18 952.583 1584.8 952.688Z" fill="#A3A3A3"/>
<path d="M1526.76 942.365C1536.03 943.305 1540 953.997 1534.67 961.092C1531.7 965.045 1527.74 966.684 1522.9 965.657C1518.14 964.65 1514.45 960.377 1514.28 955.33C1514.12 950.361 1516.11 946.215 1520.7 943.872C1522.41 942.999 1524.48 942.817 1526.76 942.365ZM1526.08 949.521C1524.82 948.687 1523.56 947.853 1522.03 946.841C1520.67 948.812 1519.3 950.81 1517.81 952.974C1519.1 953.753 1520.23 954.438 1521.73 955.337C1520.44 956.37 1519.53 957.107 1518.6 957.856C1520.23 959.378 1521.68 960.725 1523.2 962.142C1524.12 960.909 1524.99 959.739 1526.18 958.154C1527.05 959.802 1527.61 960.857 1528.23 962.018C1529.76 960.314 1531.07 958.864 1532.6 957.181C1531.8 956.587 1530.75 955.806 1529.86 955.137C1531.12 953.663 1533.19 951.687 1532.98 951.409C1531.48 949.386 1529.51 947.706 1527.32 945.552C1526.91 947.342 1526.73 948.139 1526.08 949.521Z" fill="#393939"/>
<path d="M1471.57 962.17C1484.31 960.858 1494.04 968.522 1496.31 979.36C1498.69 990.735 1491.7 1001.77 1479.29 1005.31C1469 1008.24 1457.08 1001.42 1453.49 991.083C1449.53 979.658 1456.47 965.376 1471.57 962.17Z" fill="#151515"/>
<path d="M1585.19 957.585C1603.91 964.158 1610.94 984.538 1599.98 999.552C1593.56 1008.34 1581.36 1012.41 1571.13 1009.19C1558.75 1005.29 1551.07 995.602 1550.98 983.788C1550.83 965.021 1564.99 953.992 1585.19 957.585ZM1561.46 997.979C1562.29 998.802 1563.09 999.642 1563.94 1000.45C1572.9 1008.97 1588.46 1007.35 1595.47 997.167C1604.44 984.146 1598.96 968.313 1583.69 963.081C1574.5 959.934 1564.1 963.801 1558.44 972.351C1555.03 977.505 1554.29 991.827 1561.46 997.979Z" fill="#484848"/>
<path d="M1526.32 949.228C1526.73 948.139 1526.91 947.342 1527.32 945.552C1529.51 947.706 1531.47 949.386 1532.98 951.409C1533.19 951.686 1531.12 953.662 1529.86 955.137C1530.75 955.806 1531.8 956.587 1532.6 957.18C1531.07 958.864 1529.76 960.314 1528.22 962.018C1527.61 960.857 1527.05 959.802 1526.18 958.154C1524.99 959.739 1524.12 960.909 1523.2 962.141C1521.68 960.724 1520.23 959.377 1518.6 957.856C1519.53 957.107 1520.44 956.37 1521.72 955.336C1520.23 954.438 1519.1 953.753 1517.8 952.974C1519.3 950.81 1520.67 948.812 1522.03 946.84C1523.56 947.853 1524.82 948.687 1526.32 949.228Z" fill="#E9E9E9"/>
<path d="M1561.21 997.722C1554.29 991.827 1555.03 977.505 1558.44 972.352C1564.1 963.801 1574.5 959.934 1583.69 963.081C1598.96 968.313 1604.44 984.146 1595.47 997.167C1588.46 1007.35 1572.9 1008.97 1563.94 1000.45C1563.09 999.643 1562.29 998.802 1561.21 997.722Z" fill="#151515"/>
</g>
<defs>
<filter id="filter0_d_344_4287" x="760.096" y="315.095" width="445.967" height="447.163" filterUnits="userSpaceOnUse" color-interpolation-filters="sRGB">
<feFlood flood-opacity="0" result="BackgroundImageFix"/>
<feColorMatrix in="SourceAlpha" type="matrix" values="0 0 0 0 0 0 0 0 0 0 0 0 0 0 0 0 0 0 127 0" result="hardAlpha"/>
<feOffset dy="5"/>
<feGaussianBlur stdDeviation="12.5"/>
<feColorMatrix type="matrix" values="0 0 0 0 0 0 0 0 0 0 0 0 0 0 0 0 0 0 0.1 0"/>
<feBlend mode="normal" in2="BackgroundImageFix" result="effect1_dropShadow_344_4287"/>
<feBlend mode="normal" in="SourceGraphic" in2="effect1_dropShadow_344_4287" result="shape"/>
</filter>
<filter id="filter1_d_344_4287" x="194" y="142" width="409" height="293" filterUnits="userSpaceOnUse" color-interpolation-filters="sRGB">
<feFlood flood-opacity="0" result="BackgroundImageFix"/>
<feColorMatrix in="SourceAlpha" type="matrix" values="0 0 0 0 0 0 0 0 0 0 0 0 0 0 0 0 0 0 127 0" result="hardAlpha"/>
<feOffset dy="4"/>
<feGaussianBlur stdDeviation="14"/>
<feComposite in2="hardAlpha" operator="out"/>
<feColorMatrix type="matrix" values="0 0 0 0 0.8625 0 0 0 0 0.893055 0 0 0 0 1 0 0 0 1 0"/>
<feBlend mode="normal" in2="BackgroundImageFix" result="effect1_dropShadow_344_4287"/>
<feBlend mode="normal" in="SourceGraphic" in2="effect1_dropShadow_344_4287" result="shape"/>
</filter>
<filter id="filter2_d_344_4287" x="137" y="676" width="523" height="325" filterUnits="userSpaceOnUse" color-interpolation-filters="sRGB">
<feFlood flood-opacity="0" result="BackgroundImageFix"/>
<feColorMatrix in="SourceAlpha" type="matrix" values="0 0 0 0 0 0 0 0 0 0 0 0 0 0 0 0 0 0 127 0" result="hardAlpha"/>
<feOffset dy="4"/>
<feGaussianBlur stdDeviation="14"/>
<feComposite in2="hardAlpha" operator="out"/>
<feColorMatrix type="matrix" values="0 0 0 0 0.8625 0 0 0 0 0.893055 0 0 0 0 1 0 0 0 1 0"/>
<feBlend mode="normal" in2="BackgroundImageFix" result="effect1_dropShadow_344_4287"/>
<feBlend mode="normal" in="SourceGraphic" in2="effect1_dropShadow_344_4287" result="shape"/>
</filter>
<filter id="filter3_d_344_4287" x="1298" y="201" width="523" height="325" filterUnits="userSpaceOnUse" color-interpolation-filters="sRGB">
<feFlood flood-opacity="0" result="BackgroundImageFix"/>
<feColorMatrix in="SourceAlpha" type="matrix" values="0 0 0 0 0 0 0 0 0 0 0 0 0 0 0 0 0 0 127 0" result="hardAlpha"/>
<feOffset dy="4"/>
<feGaussianBlur stdDeviation="14"/>
<feComposite in2="hardAlpha" operator="out"/>
<feColorMatrix type="matrix" values="0 0 0 0 0.8625 0 0 0 0 0.893055 0 0 0 0 1 0 0 0 1 0"/>
<feBlend mode="normal" in2="BackgroundImageFix" result="effect1_dropShadow_344_4287"/>
<feBlend mode="normal" in="SourceGraphic" in2="effect1_dropShadow_344_4287" result="shape"/>
</filter>
<linearGradient id="paint0_linear_344_4287" x1="1117.39" y1="537.953" x2="1008.25" y2="-1321.29" gradientUnits="userSpaceOnUse">
<stop stop-color="#4B7AF2"/>
<stop offset="1" stop-color="#4B7AF2" stop-opacity="0"/>
</linearGradient>
<linearGradient id="paint1_linear_344_4287" x1="832.421" y1="528.999" x2="955.494" y2="2622.83" gradientUnits="userSpaceOnUse">
<stop stop-color="#4B7AF2"/>
<stop offset="1" stop-color="#4B7AF2" stop-opacity="0"/>
</linearGradient>
<clipPath id="clip0_344_4287">
<rect width="416" height="336" fill="white" transform="translate(1321 732)"/>
</clipPath>
</defs>
</svg>
