<svg width="1920" height="1068" viewBox="0 0 1920 1068" fill="none" xmlns="http://www.w3.org/2000/svg">
<rect width="1920" height="1068" fill="white"/>
<path d="M993.489 156.851C1069.63 158.962 1143.34 184.032 1204.96 228.769C1266.57 273.505 1313.19 335.814 1338.7 407.508C1364.21 479.203 1367.41 556.929 1347.88 630.475C1328.35 704.021 1287.01 769.945 1229.29 819.586L1082.8 649.598C1106.19 629.484 1122.94 602.772 1130.86 572.972C1138.77 543.171 1137.47 511.677 1127.14 482.627C1116.8 453.577 1097.91 428.329 1072.94 410.203C1047.98 392.076 1018.11 381.917 987.26 381.062L993.489 156.851Z" fill="url(#paint0_linear_348_5249)" fill-opacity="0.16"/>
<path d="M993.489 156.851C1069.63 158.962 1143.34 184.032 1204.96 228.769C1266.57 273.505 1313.19 335.814 1338.7 407.508C1364.21 479.203 1367.41 556.929 1347.88 630.475C1328.35 704.021 1287.01 769.945 1229.29 819.586L1082.8 649.598C1106.19 629.484 1122.94 602.772 1130.86 572.972C1138.77 543.171 1137.47 511.677 1127.14 482.627C1116.8 453.577 1097.91 428.329 1072.94 410.203C1047.98 392.076 1018.11 381.917 987.26 381.062L993.489 156.851Z" fill="black" fill-opacity="0.16"/>
<path fill-rule="evenodd" clip-rule="evenodd" d="M993.489 156.851C995.045 156.894 996.599 156.946 998.153 157.009C1072.63 159.994 1144.6 184.946 1204.96 228.769C1266.57 273.505 1313.19 335.814 1338.7 407.508C1364.21 479.203 1367.41 556.929 1347.88 630.475C1328.75 702.518 1288.69 767.248 1232.81 816.523C1231.64 817.551 1230.47 818.572 1229.29 819.586L1082.8 649.598C1082.8 649.598 1082.8 649.598 1082.8 649.598C1106.19 629.484 1122.94 602.772 1130.86 572.972C1138.77 543.171 1137.47 511.677 1127.14 482.627C1116.8 453.577 1097.91 428.329 1072.94 410.203C1047.99 392.086 1018.14 381.929 987.313 381.063C987.296 381.063 987.278 381.062 987.26 381.062L993.489 156.851ZM992.051 376.601C1022.18 378.329 1051.22 388.667 1075.69 406.432C1101.41 425.112 1120.88 451.129 1131.53 481.066C1142.18 511.002 1143.52 543.457 1135.37 574.167C1127.61 603.372 1111.62 629.7 1089.34 650.037L1229.76 812.99C1284.93 764.329 1324.48 700.414 1343.37 629.28C1362.66 556.643 1359.5 479.878 1334.3 409.069C1309.11 338.261 1263.06 276.722 1202.21 232.539C1142.62 189.27 1071.56 164.628 998.023 161.668L992.051 376.601Z" fill="white"/>
<path d="M1258.82 856.992C1206.44 901.618 1143.99 932.839 1076.87 947.968C1009.75 963.096 939.953 961.678 873.498 943.837C807.044 925.995 745.92 892.264 695.39 845.549C644.861 798.833 606.439 740.532 583.434 675.666C560.428 610.8 553.529 541.313 563.329 473.188C573.13 405.063 599.336 340.341 639.692 284.596C680.049 228.851 733.345 183.752 794.993 153.184C856.641 122.615 924.793 107.493 993.58 109.118L987.61 361.864C959.773 361.206 932.193 367.326 907.245 379.696C882.297 392.067 860.728 410.318 844.397 432.877C828.065 455.437 817.46 481.628 813.494 509.198C809.528 536.767 812.32 564.888 821.63 591.138C830.94 617.388 846.488 640.982 866.937 659.887C887.386 678.792 912.122 692.443 939.015 699.663C965.908 706.883 994.153 707.457 1021.32 701.334C1048.48 695.212 1073.75 682.577 1094.95 664.518L1258.82 856.992Z" fill="url(#paint1_linear_348_5249)"/>
<path d="M1258.82 856.992C1206.44 901.618 1143.99 932.839 1076.87 947.968C1009.75 963.096 939.953 961.678 873.498 943.837C807.044 925.995 745.92 892.264 695.39 845.549C644.861 798.833 606.439 740.532 583.434 675.666C560.428 610.8 553.529 541.313 563.329 473.188C573.13 405.063 599.336 340.341 639.692 284.596C680.049 228.851 733.345 183.752 794.993 153.184C856.641 122.615 924.793 107.493 993.58 109.118L987.61 361.864C959.773 361.206 932.193 367.326 907.245 379.696C882.297 392.067 860.728 410.318 844.397 432.877C828.065 455.437 817.46 481.628 813.494 509.198C809.528 536.767 812.32 564.888 821.63 591.138C830.94 617.388 846.488 640.982 866.937 659.887C887.386 678.792 912.122 692.443 939.015 699.663C965.908 706.883 994.153 707.457 1021.32 701.334C1048.48 695.212 1073.75 682.577 1094.95 664.518L1258.82 856.992Z" fill="white" fill-opacity="0.2"/>
<path fill-rule="evenodd" clip-rule="evenodd" d="M1258.82 856.992C1258.81 857.003 1258.8 857.014 1258.78 857.024C1257.61 858.022 1256.43 859.014 1255.25 859.998C1203.61 903.021 1142.48 933.181 1076.87 947.968C1009.75 963.096 939.953 961.678 873.498 943.837C807.044 925.995 745.92 892.264 695.39 845.549C644.861 798.833 606.439 740.532 583.434 675.666C560.428 610.8 553.529 541.313 563.329 473.188C573.13 405.063 599.336 340.341 639.692 284.596C680.049 228.851 733.345 183.752 794.993 153.184C855.247 123.306 921.714 108.184 988.916 109.034C990.47 109.053 992.025 109.081 993.58 109.118L987.61 361.864C959.773 361.206 932.193 367.326 907.245 379.696C882.297 392.067 860.728 410.318 844.397 432.877C828.065 455.437 817.46 481.628 813.494 509.198C809.528 536.767 812.32 564.888 821.63 591.138C830.94 617.388 846.488 640.982 866.937 659.887C887.386 678.792 912.122 692.443 939.015 699.663C965.908 706.883 994.153 707.457 1021.32 701.334C1048.48 695.212 1073.75 682.577 1094.95 664.518L1258.82 856.992ZM1094.38 671.049C1073.37 688.013 1048.73 699.94 1022.34 705.887C994.441 712.175 965.429 711.586 937.806 704.17C910.182 696.753 884.775 682.732 863.771 663.314C842.767 643.895 826.796 619.661 817.233 592.698C807.67 565.735 804.803 536.851 808.876 508.533C812.95 480.215 823.843 453.312 840.619 430.14C857.394 406.968 879.548 388.222 905.173 375.515C929.404 363.5 956.052 357.226 983.055 357.15L988.805 113.699C922.36 112.867 856.642 127.823 797.065 157.364C736.095 187.597 683.384 232.2 643.471 287.333C603.558 342.466 577.639 406.476 567.947 473.853C558.254 541.229 565.078 609.953 587.83 674.106C610.583 738.259 648.582 795.919 698.557 842.122C748.531 888.324 808.983 921.685 874.708 939.33C940.432 956.976 1009.46 958.378 1075.85 943.415C1140.71 928.795 1201.16 898.978 1252.23 856.446L1094.38 671.049Z" fill="white"/>
<path d="M654.9 481.752V479.492H645.85V481.752C645.813 488.205 642.091 494.803 633.369 497.793L637.967 504.574C644.025 502.423 648.112 498.413 650.484 493.491C652.637 498.595 656.542 502.897 662.782 505.157C668.73 502.824 672.598 498.376 674.788 493.236C677.087 498.376 681.247 502.423 687.596 504.574L692.121 497.793C683.254 495.059 679.568 488.679 679.641 481.752V479.492H670.445V481.752C670.445 486.674 668.037 492.361 662.526 496.262C657.162 492.616 654.9 487.075 654.9 481.752ZM631.764 458.566C631.764 467.789 639.573 474.424 649.937 474.388C660.264 474.424 668.073 467.789 668.11 458.566C668.073 449.16 660.264 442.598 649.937 442.598C639.573 442.598 631.764 449.16 631.764 458.566ZM640.887 458.566C640.814 453.425 644.609 450.399 649.937 450.399C655.119 450.399 658.877 453.425 658.914 458.566C658.877 463.56 655.119 466.695 649.937 466.659C644.609 466.695 640.814 463.56 640.887 458.566ZM677.014 476.721H686.356V439.244H677.014V476.721Z" fill="white"/>
<path d="M747.735 439.171H738.393V505.667H747.735V471.398H757.515V463.815H747.735V439.171ZM697.96 489.554H703.58C715.294 489.59 724.344 489.335 734.671 487.585L733.649 479.783C724.818 481.315 716.863 481.825 707.229 481.898V452.806H729.124V445.296H697.96V489.554Z" fill="white"/>
<path d="M629.647 610.808H641.033L663.293 567.133V558.019H625.998V566.987H651.907V567.352L629.647 610.808Z" fill="white"/>
<path d="M693.362 558.019H682.998L669.934 566.331V576.028L682.05 568.445H682.342V610.808H693.362V558.019Z" fill="white"/>
<path d="M734.379 598.121V600.892C734.416 607.198 738.466 612.594 745.984 612.63C753.428 612.594 757.552 607.198 757.588 600.892V598.121C757.552 591.777 753.537 586.418 745.984 586.455C738.576 586.418 734.416 591.814 734.379 598.121ZM707.302 570.706C707.302 576.976 711.353 582.335 718.907 582.299C726.351 582.335 730.475 577.049 730.438 570.706V567.935C730.475 561.555 726.46 556.196 718.907 556.196C711.535 556.196 707.302 561.555 707.302 567.935V570.706ZM710.659 610.808H717.374L753.72 558.019H747.005L710.659 610.808ZM714.746 570.706V567.935C714.783 565.419 715.768 562.722 718.907 562.758C722.154 562.722 722.994 565.383 722.994 567.935V570.706C722.994 573.221 722.045 575.81 718.907 575.81C715.805 575.81 714.783 573.221 714.746 570.706ZM741.824 600.892V598.121C741.824 595.605 742.882 592.944 745.984 592.944C749.231 592.944 750.107 595.605 750.071 598.121V600.892C750.107 603.443 749.122 606.032 745.984 605.995C742.809 606.032 741.824 603.371 741.824 600.892Z" fill="white"/>
<path d="M1228.65 485.992H1222.73V504.311H1239.5V500.802L1242.11 504.71C1245.82 503.291 1248.33 500.677 1249.84 497.516C1251.29 500.777 1253.83 503.366 1257.77 504.71L1261.08 499.98C1255.36 498.139 1253.12 493.758 1253.15 489.128V485.643H1246.72V489.128C1246.72 493.235 1244.57 497.466 1239.5 499.756V485.992H1233.57V490.522H1228.65V485.992ZM1218.26 471.854C1218.21 478.176 1223.38 482.607 1230.41 482.607C1236.23 482.607 1240.9 479.346 1242.13 474.442H1249.79V483.503H1256.16V459.508H1249.79V469.215H1242.11C1240.85 464.411 1236.21 461.225 1230.41 461.2C1223.38 461.225 1218.21 465.631 1218.26 471.854ZM1224.34 471.854C1224.31 468.518 1226.82 466.452 1230.41 466.427C1233.87 466.452 1236.36 468.518 1236.38 471.854C1236.36 475.289 1233.87 477.404 1230.41 477.429C1226.82 477.404 1224.31 475.289 1224.34 471.854ZM1228.65 499.483V495.201H1233.57V499.483H1228.65Z" fill="white"/>
<path d="M1298.12 459.508H1291.7V504.909H1298.12V481.511H1304.85V476.334H1298.12V459.508ZM1263.89 493.907H1267.75C1275.81 493.932 1282.03 493.758 1289.14 492.563L1288.43 487.236C1282.36 488.282 1276.89 488.63 1270.26 488.68V468.817H1285.32V463.689H1263.89V493.907Z" fill="white"/>
<path d="M1210.13 576.694H1236.13V570.521H1220.62V570.322L1226.14 564.996C1233.62 558.275 1235.63 554.915 1235.63 550.808C1235.63 544.56 1230.46 540.154 1222.68 540.154C1215.03 540.154 1209.76 544.66 1209.78 551.704H1216.96C1216.93 548.244 1219.17 546.103 1222.58 546.128C1225.92 546.103 1228.35 548.095 1228.35 551.306C1228.35 554.168 1226.52 556.159 1223.13 559.37L1210.08 571.268L1210.13 576.694Z" fill="white"/>
<path d="M1254.75 540.154C1246.55 540.13 1241 545.406 1241 552.65C1241.05 559.37 1245.87 564.249 1252.4 564.249C1256.44 564.249 1260.02 562.357 1261.73 559.171H1262.03C1262.01 566.365 1259.4 570.77 1254.45 570.77C1251.54 570.77 1249.46 569.202 1248.83 566.539H1241.4C1242.13 572.637 1247.15 577.192 1254.45 577.192C1263.59 577.192 1269.44 569.974 1269.41 557.727C1269.41 544.635 1262.28 540.179 1254.75 540.154ZM1248.38 552.451C1248.33 548.866 1251.09 546.054 1254.8 546.029C1258.52 546.054 1261.23 548.966 1261.28 552.401C1261.28 555.861 1258.44 558.773 1254.75 558.773C1251.02 558.773 1248.38 556.01 1248.38 552.451Z" fill="white"/>
<path d="M1294.31 568.032V569.924C1294.33 574.23 1297.12 577.914 1302.29 577.939C1307.41 577.914 1310.24 574.23 1310.27 569.924V568.032C1310.24 563.701 1307.48 560.042 1302.29 560.067C1297.19 560.042 1294.33 563.726 1294.31 568.032ZM1275.69 549.314C1275.69 553.596 1278.47 557.254 1283.67 557.23C1288.79 557.254 1291.62 553.645 1291.6 549.314V547.423C1291.62 543.067 1288.86 539.408 1283.67 539.408C1278.6 539.408 1275.69 543.067 1275.69 547.423V549.314ZM1277.99 576.694H1282.61L1307.61 540.652H1302.99L1277.99 576.694ZM1280.8 549.314V547.423C1280.83 545.705 1281.51 543.863 1283.67 543.888C1285.9 543.863 1286.48 545.68 1286.48 547.423V549.314C1286.48 551.032 1285.82 552.799 1283.67 552.799C1281.53 552.799 1280.83 551.032 1280.8 549.314ZM1299.43 569.924V568.032C1299.43 566.315 1300.15 564.498 1302.29 564.498C1304.52 564.498 1305.12 566.315 1305.1 568.032V569.924C1305.12 571.666 1304.45 573.434 1302.29 573.409C1300.1 573.434 1299.43 571.617 1299.43 569.924Z" fill="white"/>
<path d="M1167.9 532.481C1167.9 633.565 1085.96 715.511 984.872 715.511C883.787 715.511 801.842 633.565 801.842 532.481C801.842 431.396 883.787 349.451 984.872 349.451C1085.96 349.451 1167.9 431.396 1167.9 532.481Z" fill="white"/>
<g filter="url(#filter0_d_348_5249)">
<path d="M1181.06 533.677C1181.06 643.35 1092.42 732.258 983.079 732.258C873.736 732.258 785.096 643.35 785.096 533.677C785.096 424.004 873.736 335.096 983.079 335.096C1092.42 335.096 1181.06 424.004 1181.06 533.677Z" fill="white"/>
</g>
<path opacity="0.05" fill-rule="evenodd" clip-rule="evenodd" d="M983.083 704.874C1077.95 704.874 1154.86 628.226 1154.86 533.676C1154.86 439.127 1077.95 362.479 983.083 362.479C888.212 362.479 811.304 439.127 811.304 533.676C811.304 628.226 888.212 704.874 983.083 704.874ZM983.083 709.528C1080.53 709.528 1159.53 630.797 1159.53 533.676C1159.53 436.556 1080.53 357.824 983.083 357.824C885.632 357.824 806.633 436.556 806.633 533.676C806.633 630.797 885.632 709.528 983.083 709.528Z" fill="#454459"/>
<path d="M932.038 500.935H944.845V499.2H934.819V499.064L939.777 493.806C943.22 490.228 944.239 488.575 944.239 486.38C944.239 483.371 941.746 481.04 938.29 481.04C934.792 481.04 932.203 483.371 932.203 486.678H934.076C934.076 484.374 935.715 482.734 938.235 482.748C940.603 482.734 942.394 484.211 942.421 486.38C942.394 488.236 941.333 489.592 938.786 492.343L932.038 499.525V500.935Z" fill="#3D3D3D" fill-opacity="0.8"/>
<path d="M954.926 501.206C959.167 501.206 961.646 497.492 961.646 491.123C961.646 484.794 959.14 481.04 954.926 481.04C950.698 481.04 948.178 484.794 948.178 491.123C948.178 497.492 950.67 501.206 954.926 501.206ZM950.106 491.123C950.092 485.811 951.896 482.734 954.926 482.748C957.928 482.734 959.732 485.811 959.746 491.123C959.732 496.435 957.942 499.471 954.926 499.471C951.882 499.471 950.092 496.435 950.106 491.123Z" fill="#3D3D3D" fill-opacity="0.8"/>
<path d="M965.089 500.935H977.896V499.2H967.871V499.064L972.829 493.806C976.271 490.228 977.291 488.575 977.291 486.38C977.291 483.371 974.798 481.04 971.341 481.04C967.843 481.04 965.254 483.371 965.254 486.678H967.127C967.127 484.374 968.766 482.734 971.286 482.748C973.655 482.734 975.445 484.211 975.473 486.38C975.445 488.236 974.385 489.592 971.837 492.343L965.089 499.525V500.935Z" fill="#3D3D3D" fill-opacity="0.8"/>
<path d="M981.697 500.935H994.505V499.2H984.479V499.064L989.437 493.806C992.88 490.228 993.899 488.575 993.899 486.38C993.899 483.371 991.406 481.04 987.95 481.04C984.452 481.04 981.863 483.371 981.863 486.678H983.736C983.736 484.374 985.374 482.734 987.895 482.748C990.263 482.734 992.054 484.211 992.081 486.38C992.054 488.236 990.993 489.592 988.445 492.343L981.697 499.525V500.935Z" fill="#3D3D3D" fill-opacity="0.8"/>
<path d="M999.821 501.07C1000.62 501.084 1001.28 500.42 1001.28 499.634C1001.28 498.834 1000.62 498.183 999.821 498.17C999.008 498.183 998.333 498.834 998.333 499.634C998.333 500.42 999.008 501.084 999.821 501.07Z" fill="#3D3D3D" fill-opacity="0.8"/>
<path d="M1010.67 501.206C1014.91 501.206 1017.39 497.492 1017.39 491.123C1017.39 484.794 1014.89 481.04 1010.67 481.04C1006.44 481.04 1003.92 484.794 1003.92 491.123C1003.92 497.492 1006.42 501.206 1010.67 501.206ZM1005.85 491.123C1005.84 485.811 1007.64 482.734 1010.67 482.748C1013.67 482.734 1015.48 485.811 1015.49 491.123C1015.48 496.435 1013.69 499.471 1010.67 499.471C1007.63 499.471 1005.84 496.435 1005.85 491.123Z" fill="#3D3D3D" fill-opacity="0.8"/>
<path d="M1027.17 481.04C1023.15 481.013 1020.52 483.94 1020.53 487.491C1020.52 491.191 1023.41 493.874 1026.9 493.86C1029.1 493.874 1031.05 492.776 1032.07 491.042H1032.29C1032.28 496.422 1030.3 499.471 1026.9 499.471C1024.51 499.471 1023.05 497.994 1022.68 495.975H1020.73C1021.15 499.091 1023.49 501.206 1026.9 501.206C1031.67 501.206 1034.14 496.788 1034.14 490.283C1034.14 483.358 1030.64 481.067 1027.17 481.04ZM1022.43 487.464C1022.42 484.875 1024.46 482.748 1027.17 482.748C1029.8 482.748 1031.73 484.767 1031.94 487.355C1032.1 489.876 1029.94 492.153 1027.17 492.153C1024.44 492.153 1022.43 490.079 1022.43 487.464Z" fill="#3D3D3D" fill-opacity="0.8"/>
<path d="M930.826 520.775H929.09V544.707H930.826V520.775ZM912.344 538.853H923.692V522.835H921.957V529.312H914.08V522.835H912.344V538.853ZM914.08 537.416V530.722H921.957V537.416H914.08Z" fill="#3D3D3D" fill-opacity="0.8"/>
<path d="M955.201 520.775H953.466V538.148H955.201V520.775ZM935.701 534.11L936.417 535.519C943.495 533.324 948.136 528.703 948.15 522.591H936.913V524.054H946.236C945.823 528.635 941.719 532.24 935.701 534.11ZM939.529 544.111H955.89V542.675H941.264V536.766H939.529V544.111Z" fill="#3D3D3D" fill-opacity="0.8"/>
<path d="M966.108 522.672C962.555 522.685 960.076 525.911 960.104 530.939C960.076 535.98 962.555 539.205 966.108 539.205C969.51 539.205 971.92 536.21 972.099 531.481H977.952V544.707H979.659V520.775H977.952V530.071H972.085C971.81 525.545 969.427 522.685 966.108 522.672ZM961.756 530.939C961.743 526.941 963.533 524.203 966.108 524.19C968.67 524.203 970.474 526.941 970.46 530.939C970.474 534.936 968.67 537.688 966.108 537.688C963.533 537.688 961.743 534.936 961.756 530.939Z" fill="#3D3D3D" fill-opacity="0.8"/>
<path d="M1006.27 539.937H984.011V541.374H1006.27V539.937ZM986.71 534.869H1003.46V522.536H1001.75V527.171H988.473V522.536H986.71V534.869ZM988.473 533.486V528.581H1001.75V533.486H988.473Z" fill="#3D3D3D" fill-opacity="0.8"/>
<path d="M1028.93 520.775H1027.28V528.039H1023.45V521.235H1021.8V537.85H1023.45V529.502H1027.28V538.609H1028.93V520.775ZM1009.49 524.298H1017.01V528.093H1009.54V534.923H1011.11C1014.6 534.909 1017.24 534.76 1020.51 534.137L1020.29 532.727C1017.2 533.351 1014.58 533.486 1011.25 533.486V529.475H1018.66V522.862H1009.49V524.298ZM1013.18 544.111H1029.73V542.675H1014.91V536.983H1013.18V544.111Z" fill="#3D3D3D" fill-opacity="0.8"/>
<path d="M1052.32 532.402H1037.39V524.515H1052.07V523.078H1035.68V533.839H1052.32V532.402ZM1032.76 541.292H1055.02V539.829H1032.76V541.292Z" fill="#3D3D3D" fill-opacity="0.8"/>
<path d="M915.443 570.023V566.364H921.117V564.9H907.979V566.364H913.763V570.023C913.749 574.129 910.43 578.696 907.125 580.322L908.199 581.677C910.871 580.281 913.501 577.07 914.617 573.478C915.705 576.812 918.17 579.739 920.869 581.081L921.888 579.726C918.542 578.127 915.429 573.898 915.443 570.023ZM924.449 586.312H926.185V573.709H930.371V572.245H926.185V562.406H924.449V586.312Z" fill="#3D3D3D" fill-opacity="0.8"/>
<path d="M938.827 569.806V568.396H943.619V566.96H938.854V563.301H937.174V566.96H932.327V568.396H937.174V569.806C937.147 573.831 934.998 578.1 931.748 579.97L932.823 581.271C935.301 579.78 937.161 576.907 938.014 573.668C938.896 576.717 940.782 579.387 943.261 580.756L944.28 579.455C941.03 577.734 938.813 573.695 938.827 569.806ZM941.857 573.438H945.988V585.011H947.641V563.03H945.988V571.974H941.857V573.438ZM950.863 586.312H952.543V562.406H950.863V586.312Z" fill="#3D3D3D" fill-opacity="0.8"/>
<path d="M983.061 562.406H981.326V567.068H975.652V568.505H981.326V574.82H983.061V562.406ZM963.065 573.465L964.029 574.847C966.893 573.776 969.22 571.595 970.24 568.735C971.3 571.269 973.6 573.248 976.285 574.224L977.249 572.868C973.806 571.73 971.011 568.816 971.025 565.578V563.138H969.372V565.578C969.344 569.223 966.604 572.245 963.065 573.465ZM967.444 577.53H981.353V580.214H967.527V585.96H984.052V584.55H969.207V581.569H983.061V576.121H967.444V577.53Z" fill="#3D3D3D" fill-opacity="0.8"/>
<path d="M1009.61 574.766H987.385V576.202H997.769V581.352H999.476V576.202H1009.61V574.766ZM990.305 585.743H1007.13V584.306H992.04V578.913H990.305V585.743ZM990.305 571.757H1006.69V563.572H990.305V571.757ZM992.012 570.375V564.981H1004.98V570.375H992.012Z" fill="#3D3D3D" fill-opacity="0.8"/>
<path d="M1034.04 581.677H1023.77V575.687H1022.03V581.677H1011.79V583.141H1034.04V581.677ZM1012.94 575.091L1013.69 576.473C1017.1 575.728 1021.36 573.275 1022.9 569.819C1024.43 573.261 1028.7 575.66 1032.17 576.392L1032.91 575.01C1029.13 574.386 1023.77 571.08 1023.77 567.122V566.174H1032.14V564.683H1013.63V566.174H1021.98V567.122C1021.98 571.08 1016.65 574.441 1012.94 575.091Z" fill="#3D3D3D" fill-opacity="0.8"/>
<path d="M1044.07 569.155V564.548H1042.36V569.155C1042.33 573.492 1039.22 578.072 1035.86 579.78L1036.99 581.135C1039.68 579.672 1042.15 576.514 1043.23 572.882C1044.33 576.311 1046.78 579.265 1049.44 580.674L1050.51 579.292C1047.21 577.679 1044.04 573.343 1044.07 569.155ZM1053.13 586.312H1054.87V573.763H1059.05V572.245H1054.87V562.406H1053.13V586.312Z" fill="#3D3D3D" fill-opacity="0.8"/>
<g clip-path="url(#clip0_348_5249)">
<path d="M1620.4 1068.91C1545.88 1068.91 1471.35 1068.91 1396.38 1068.54C1392.28 1052.15 1388.65 1036.13 1389.93 1019.11C1409.09 1027.19 1420.68 1015.42 1432.31 1003.71C1439.78 1029.43 1477.96 1032.07 1492.57 1011.4C1495.95 1006.63 1497.96 1000.65 1499.61 994.944C1501.81 987.316 1507.31 980.736 1512.62 980.922C1517.85 981.105 1523.49 987.517 1525.05 994.954C1526.39 1001.38 1528.43 1007.4 1532.9 1012.58C1542.28 1023.44 1554.15 1026.29 1567.73 1024.47C1581.19 1022.67 1590.72 1013.48 1592.89 1000.1C1593.14 998.535 1593.23 996.941 1593.45 994.928C1605.23 1007.34 1616.88 1018.67 1635.96 1011.26C1635.21 1014.85 1634.65 1017.8 1633.95 1020.72C1630.16 1036.59 1628.74 1053.16 1620.29 1067.68C1620.12 1067.97 1620.36 1068.49 1620.4 1068.91Z" fill="#DBEAFD"/>
<path d="M1620.79 1068.91C1620.36 1068.49 1620.12 1067.97 1620.29 1067.68C1628.74 1053.16 1630.16 1036.59 1633.95 1020.72C1634.65 1017.8 1635.21 1014.85 1635.97 1011.26C1616.88 1018.67 1605.23 1007.34 1593.45 994.928C1593.24 996.942 1593.15 998.535 1592.89 1000.1C1590.72 1013.48 1581.19 1022.67 1567.73 1024.47C1554.15 1026.29 1542.28 1023.44 1532.9 1012.58C1528.43 1007.4 1526.39 1001.38 1525.05 994.954C1523.49 987.517 1517.85 981.105 1512.62 980.922C1507.31 980.736 1501.81 987.316 1499.61 994.945C1497.96 1000.65 1495.95 1006.63 1492.57 1011.4C1477.96 1032.07 1439.78 1029.43 1432.31 1003.71C1420.68 1015.42 1409.09 1027.19 1389.93 1019.11C1388.65 1036.13 1392.28 1052.15 1395.96 1068.54C1394.41 1068.91 1392.85 1068.91 1390.9 1068.91C1388.89 1060.2 1387.25 1051.48 1385.66 1042.76C1385.36 1041.14 1385.15 1039.48 1385.12 1037.83C1385 1031.56 1385.13 1025.28 1384.81 1019.02C1384.72 1017.35 1383.68 1015.48 1382.54 1014.16C1378.58 1009.56 1377.38 1004.13 1376.84 998.293C1376.65 996.198 1375.65 993.92 1374.37 992.224C1367.78 983.537 1363.79 973.958 1364.24 962.94C1364.62 953.868 1367.49 945.319 1372.46 937.864C1379.87 926.75 1383.85 914.618 1386.96 901.702C1391.3 883.761 1399.65 867.772 1413.55 854.784C1423.35 845.634 1433.32 836.99 1445.39 831.143C1458.99 824.549 1473.15 819.559 1488.39 818.495C1499.19 817.741 1510.05 816.383 1520.81 816.892C1535 817.563 1549.58 817.566 1562.75 824.1C1569.2 827.298 1575.09 831.628 1581.31 835.304C1590.38 840.661 1599.54 845.739 1607.36 853.056C1619.03 863.961 1626.66 877.132 1631.82 892.083C1633.98 898.33 1636.96 904.314 1639.83 910.285C1643.97 918.86 1648.87 927.097 1652.49 935.874C1657.47 947.93 1658.85 960.282 1652.63 972.637C1650.61 976.638 1649.46 981.087 1648.07 985.383C1647.78 986.281 1648.17 987.409 1648.29 988.427C1648.91 993.794 1649.15 999.238 1645.24 1003.51C1639.76 1009.49 1639.23 1017.13 1637.76 1024.41C1634.76 1039.29 1633.55 1054.64 1625.88 1068.58C1624.3 1068.91 1622.74 1068.91 1620.79 1068.91ZM1565.47 962.684C1564.23 962.888 1563 963.092 1561.06 963.279C1559.2 963.284 1557.34 963.289 1555.35 962.444C1553.71 962.721 1552.06 962.998 1550.44 963.266C1550.44 963.266 1550.45 963.251 1549.79 962.896C1545.24 964.788 1540.68 966.68 1536.12 968.571C1535.91 968.076 1535.69 967.581 1535.47 967.085C1541.48 960.569 1549.95 959.135 1557.54 957.731C1557.04 952.469 1556.59 947.636 1556.13 942.73C1544.32 940.867 1539.45 943.903 1536.28 955.398C1535.96 956.566 1535.54 957.722 1535.36 958.913C1534.8 962.546 1532.51 963.277 1529.89 961.523C1526.03 958.939 1522.41 955.946 1518.95 952.832C1514.3 948.638 1510.42 948.552 1505.88 952.792C1502.9 955.572 1500.01 958.569 1496.62 960.753C1491.96 963.756 1490.58 962.962 1489.11 957.671C1488.39 955.041 1487.9 952.31 1486.86 949.815C1486.08 947.957 1484.94 945.604 1483.33 944.85C1475.25 941.077 1467.06 941.502 1459.73 944.559C1461.71 949.111 1463.51 953.241 1465.5 957.814C1465.94 957.853 1467.21 957.72 1468.31 958.107C1474.8 960.399 1481.27 962.747 1487.67 965.279C1488.33 965.541 1488.48 967.13 1488.86 968.104C1487.92 968.031 1486.85 968.221 1486.06 967.836C1483.89 966.781 1481.95 965.149 1479.7 964.364C1476.46 963.231 1473.03 962.644 1469.68 961.823C1469.59 962.218 1469.51 962.613 1469.43 963.008C1487.29 968.771 1495.49 979.831 1493.02 994.827C1490.7 1008.86 1477.79 1019.45 1463.59 1018.69C1454.24 1018.19 1446.76 1014 1441.58 1006.11C1436.38 998.179 1436.73 989.424 1438.44 980.476C1434.55 987.126 1433.85 994.292 1435.49 1001.41C1440.35 1022.62 1462.33 1025.19 1477.9 1019.05C1488.75 1014.77 1495.13 1005.65 1496.99 993.702C1498.3 985.307 1505.63 977.941 1512.28 977.82C1518.85 977.701 1526.3 984.936 1527.71 993.448C1530.62 1011.01 1544.57 1023.88 1566.06 1021.56C1581.68 1019.88 1591.9 1007.03 1589.97 991.356C1589 983.502 1585.89 976.541 1581.88 969.83C1577.59 962.64 1577.71 962.568 1569.04 963.584C1567.98 963.472 1566.92 963.359 1565.89 963.265C1565.89 963.265 1565.93 963.283 1565.47 962.684ZM1453.05 944.079C1456.88 943.856 1455.67 942.017 1454.52 939.898C1448.36 928.555 1447.22 917.069 1453.11 905.119C1460.62 889.889 1479.09 888.305 1488.56 902.461C1496.92 914.96 1496.89 928.006 1489.95 941.182C1489.39 942.24 1488.3 943.369 1488.4 944.365C1488.95 949.637 1492.66 953.039 1496.76 955.416C1497.76 955.999 1501.01 952.739 1503.2 951.204C1503.68 950.863 1504.03 950.331 1504.47 949.915C1509.28 945.351 1515.51 945.249 1520.22 949.897C1521.92 951.572 1523.13 953.741 1525.13 956.455C1527.84 952.995 1529.48 950.911 1531.11 948.822C1531.73 948.03 1532.19 946.988 1532.99 946.48C1534.6 945.45 1536.39 944.707 1538.46 943.672C1525.95 931.542 1523.58 915.676 1531.11 900.078C1536.2 889.538 1548.08 885.647 1558.25 891.421C1567.9 896.902 1571.83 906.114 1572.03 916.508C1572.16 923.399 1570.1 930.332 1568.99 937.485C1569.22 937.499 1570.23 937.561 1571.92 937.878C1579.86 941.112 1587.81 944.347 1596.19 948.039C1606.77 956.192 1612.39 967.44 1615.84 979.973C1616.14 981.073 1615.19 982.519 1614.83 983.804C1613.89 982.838 1612.61 982.033 1612.07 980.879C1609.13 974.587 1607.1 967.744 1603.41 961.957C1595.31 949.262 1582.98 942.833 1568.18 941.617C1561.9 941.101 1558.9 945.792 1560.73 951.886C1562.44 957.586 1566.29 960.008 1573 959.393C1575.97 959.12 1578.87 958.874 1580.63 961.907C1583.74 967.27 1587.51 972.42 1589.57 978.174C1591.88 984.626 1594.79 990.386 1599.44 995.378C1605.22 1001.57 1611.6 1006.74 1619.89 1009.16C1633.1 1013.02 1646.29 1001.72 1644.24 988.493C1643.85 986.022 1644.12 983.036 1645.19 980.815C1653.85 962.725 1654.27 945.326 1643.74 927.459C1636.37 914.966 1630.03 901.718 1624.69 888.225C1619.52 875.147 1612.52 863.609 1601.58 855.124C1591.69 847.459 1580.64 841.321 1570.31 834.197C1561.86 828.362 1552.63 824.716 1542.49 824.045C1528.78 823.137 1515.02 822.196 1501.31 822.496C1475.7 823.055 1452.12 830.694 1431.37 845.959C1409.26 862.223 1394.48 883.309 1390.25 911.04C1389.92 913.247 1389.1 915.456 1388.12 917.477C1383.44 927.163 1378.3 936.643 1373.91 946.46C1366.81 962.343 1367.68 977.358 1379.73 990.931C1381.22 992.609 1382.18 995.498 1382.06 997.758C1381.35 1011.57 1394.2 1021.47 1407.36 1016.98C1415.63 1014.16 1422.18 1008.98 1427.7 1002.28C1430.17 999.286 1431.48 996.233 1431.85 992.17C1432.34 986.821 1433.71 981.354 1435.8 976.403C1438.27 970.549 1441.1 964.058 1449.78 966.294C1450.33 966.435 1450.99 966.223 1451.58 966.102C1456.05 965.182 1459.24 962.551 1459.52 957.987C1459.69 955.291 1458.99 951.742 1457.27 949.908C1454.31 946.753 1449.86 947.638 1446.81 949.963C1441.83 953.758 1436.31 957.636 1433.11 962.783C1428.03 970.935 1424.72 980.183 1420.55 988.91C1420.08 989.884 1418.84 990.484 1417.95 991.258C1417.62 990.192 1416.86 989.041 1417.05 988.077C1417.48 985.865 1418.15 983.636 1419.12 981.604C1422.91 973.687 1426.85 965.844 1431.23 957.668C1436.87 950.885 1443.34 945.407 1453.05 944.079ZM1453.61 1012.65C1461.01 1016.63 1468.6 1016.18 1475.89 1012.79C1486.56 1007.84 1490.93 997.497 1490.07 988.451C1488.54 972.4 1472.59 961.538 1455.53 969.237C1446.46 973.331 1441.44 980.275 1440.66 989.787C1439.84 999.668 1444.32 1007.34 1453.61 1012.65ZM1475.47 904.058C1473.7 903.415 1471.94 902.25 1470.16 902.22C1462.84 902.094 1457.89 907.578 1457.66 915.664C1457.52 920.555 1460.87 923.268 1465.59 922.092C1473.48 920.129 1477.83 912.748 1475.47 904.058ZM1539.55 903.706C1536.31 906.84 1535.69 910.692 1536.65 914.884C1537.33 917.89 1539.42 919.03 1542.38 918.642C1548.56 917.833 1555.15 910.801 1555.18 904.665C1555.19 903.468 1554.26 901.746 1553.25 901.153C1549.27 898.824 1543.65 899.872 1539.55 903.706ZM1553.29 927.823C1551.92 929.247 1550.56 930.671 1549.2 932.095C1549.5 932.435 1549.8 932.775 1550.11 933.114C1553.19 932.73 1557.65 935.892 1558.8 930.418C1559.47 927.219 1556.25 927.578 1553.29 927.823ZM1556.54 936.937C1552.12 937.316 1547.16 935.203 1543 939.635C1548.99 939.635 1554.29 939.635 1559.59 939.635C1559.65 939.31 1559.7 938.984 1559.75 938.658C1558.92 938.155 1558.08 937.652 1556.54 936.937ZM1471.17 936.812C1469.03 937.291 1466.88 937.77 1464.73 938.249C1464.81 938.772 1464.9 939.295 1464.98 939.817C1470.48 939.817 1475.98 939.817 1481.78 939.817C1479.19 936.174 1475.46 936.876 1471.17 936.812ZM1483.28 934.059C1482.45 932.864 1481.67 930.71 1480.79 930.665C1478.6 930.554 1476.36 931.409 1474.15 931.876C1474.21 932.359 1474.27 932.841 1474.33 933.324C1477.25 933.789 1480.17 934.253 1483.28 934.059ZM1443.79 973.712C1444.44 972.776 1445.1 971.84 1446.04 970.504C1441.83 970.062 1441.18 972.232 1441.04 975.664C1442.1 975.005 1442.7 974.629 1443.79 973.712Z" fill="#313132"/>
<path d="M1571.23 937.622C1570.23 937.56 1569.22 937.499 1568.99 937.485C1570.1 930.332 1572.16 923.399 1572.03 916.508C1571.83 906.113 1567.9 896.902 1558.25 891.42C1548.08 885.646 1536.2 889.537 1531.11 900.077C1523.58 915.676 1525.95 931.542 1538.46 943.672C1536.39 944.707 1534.6 945.45 1532.99 946.479C1532.19 946.988 1531.73 948.029 1531.11 948.821C1529.48 950.91 1527.84 952.994 1525.13 956.455C1523.13 953.741 1521.92 951.571 1520.22 949.897C1515.51 945.248 1509.28 945.351 1504.47 949.914C1504.03 950.331 1503.68 950.863 1503.2 951.204C1501.01 952.738 1497.76 955.999 1496.76 955.415C1492.67 953.039 1488.95 949.637 1488.4 944.365C1488.3 943.369 1489.39 942.24 1489.95 941.181C1496.89 928.006 1496.92 914.96 1488.56 902.46C1479.09 888.305 1460.62 889.889 1453.11 905.118C1447.22 917.069 1448.36 928.555 1454.52 939.897C1455.67 942.017 1456.88 943.856 1452.63 943.71C1447.35 939.104 1441.3 938.203 1436 940.926C1429.67 944.176 1428.48 948.021 1430.73 957.973C1426.85 965.843 1422.91 973.686 1419.12 981.603C1418.15 983.635 1417.48 985.864 1417.05 988.077C1416.86 989.041 1417.62 990.191 1417.95 991.257C1418.84 990.484 1420.08 989.883 1420.55 988.909C1424.72 980.183 1428.04 970.934 1433.11 962.783C1436.31 957.635 1441.83 953.758 1446.81 949.962C1449.86 947.637 1454.31 946.753 1457.27 949.908C1458.99 951.741 1459.69 955.29 1459.52 957.986C1459.24 962.551 1456.05 965.181 1451.58 966.101C1450.99 966.223 1450.33 966.435 1449.78 966.294C1441.1 964.058 1438.27 970.548 1435.8 976.403C1433.71 981.353 1432.34 986.821 1431.85 992.17C1431.48 996.233 1430.17 999.285 1427.7 1002.28C1422.18 1008.98 1415.63 1014.15 1407.36 1016.98C1394.2 1021.47 1381.35 1011.57 1382.06 997.757C1382.18 995.498 1381.22 992.609 1379.73 990.931C1367.68 977.358 1366.81 962.343 1373.91 946.46C1378.3 936.643 1383.44 927.162 1388.12 917.476C1389.1 915.456 1389.92 913.247 1390.25 911.04C1394.48 883.308 1409.26 862.222 1431.37 845.958C1452.12 830.694 1475.7 823.054 1501.31 822.495C1515.02 822.196 1528.78 823.136 1542.49 824.044C1552.63 824.716 1561.86 828.361 1570.31 834.197C1580.64 841.32 1591.69 847.458 1601.58 855.124C1612.52 863.609 1619.52 875.146 1624.69 888.224C1630.03 901.717 1636.38 914.966 1643.74 927.459C1654.27 945.325 1653.85 962.724 1645.19 980.814C1644.12 983.036 1643.85 986.021 1644.24 988.493C1646.29 1001.72 1633.1 1013.02 1619.89 1009.16C1611.6 1006.74 1605.22 1001.57 1599.44 995.378C1594.79 990.385 1591.88 984.626 1589.57 978.173C1587.51 972.42 1583.74 967.27 1580.63 961.906C1578.87 958.873 1575.97 959.12 1573 959.393C1566.29 960.008 1562.45 957.585 1560.73 951.886C1558.9 945.791 1561.9 941.101 1568.18 941.617C1582.98 942.833 1595.31 949.262 1603.41 961.956C1607.1 967.743 1609.13 974.587 1612.07 980.879C1612.61 982.032 1613.89 982.838 1614.83 983.804C1615.19 982.518 1616.14 981.072 1615.84 979.972C1612.39 967.44 1606.77 956.192 1596 947.422C1595.83 945.749 1595.87 944.692 1595.86 943.636C1595.82 937.492 1592.36 933.08 1586.24 931.708C1581.12 930.562 1573.78 931.332 1571.23 937.622Z" fill="#DBE9FC"/>
<path d="M1569.54 963.987C1577.71 962.568 1577.59 962.64 1581.88 969.83C1585.89 976.541 1589 983.502 1589.97 991.355C1591.9 1007.03 1581.68 1019.88 1566.06 1021.56C1544.57 1023.88 1530.62 1011.01 1527.71 993.447C1526.3 984.935 1518.85 977.7 1512.28 977.82C1505.63 977.941 1498.3 985.307 1496.99 993.702C1495.13 1005.65 1488.75 1014.77 1477.9 1019.05C1462.33 1025.19 1440.35 1022.62 1435.49 1001.41C1433.85 994.292 1434.55 987.126 1438.44 980.476C1436.73 989.424 1436.38 998.178 1441.58 1006.11C1446.76 1014 1454.24 1018.19 1463.59 1018.69C1477.79 1019.45 1490.7 1008.86 1493.02 994.827C1495.49 979.831 1487.29 968.771 1469.43 963.007C1469.51 962.613 1469.59 962.218 1469.68 961.823C1473.03 962.643 1476.46 963.231 1479.7 964.364C1481.95 965.149 1483.89 966.781 1486.06 967.836C1486.85 968.22 1487.92 968.031 1488.86 968.103C1488.48 967.13 1488.33 965.541 1487.67 965.278C1481.27 962.747 1474.8 960.399 1468.31 958.106C1467.21 957.72 1465.94 957.853 1465.5 957.814C1463.51 953.241 1461.71 949.11 1459.73 944.559C1467.06 941.501 1475.25 941.077 1483.33 944.849C1484.94 945.604 1486.08 947.957 1486.85 949.815C1487.9 952.31 1488.39 955.041 1489.11 957.671C1490.58 962.962 1491.96 963.755 1496.62 960.753C1500.01 958.568 1502.9 955.572 1505.88 952.792C1510.42 948.552 1514.3 948.638 1518.95 952.831C1522.41 955.945 1526.03 958.938 1529.89 961.523C1532.51 963.277 1534.8 962.546 1535.36 958.913C1535.54 957.722 1535.96 956.566 1536.28 955.398C1539.45 943.903 1544.32 940.867 1556.13 942.73C1556.59 947.635 1557.04 952.468 1557.54 957.731C1549.95 959.135 1541.48 960.569 1535.47 967.085C1535.69 967.581 1535.91 968.076 1536.12 968.571C1540.68 966.679 1545.24 964.788 1550.19 963.412C1549.8 964.363 1549.05 964.86 1548.23 965.226C1538.06 969.786 1532.2 977.671 1531.57 988.74C1530.91 1000.35 1536.15 1009.24 1546.2 1015.03C1556.94 1021.21 1569.78 1019.6 1579.03 1011.21C1587.25 1003.76 1589.72 991.093 1585.03 980.293C1581.92 973.123 1576.46 968.334 1569.53 964.789C1569.54 964.344 1569.54 964.166 1569.54 963.987ZM1512.62 953.541C1510.89 953.994 1509.02 954.159 1507.46 954.954C1503.28 957.089 1501.47 960.864 1501.63 965.39C1501.78 969.986 1505.13 973.878 1509.45 974.795C1513.86 975.73 1517.45 974.237 1520.15 970.637C1525 964.176 1521.39 954.439 1512.62 953.541Z" fill="#A3A3A3"/>
<path d="M1453.3 1012.5C1444.32 1007.34 1439.84 999.668 1440.66 989.787C1441.44 980.275 1446.46 973.331 1455.53 969.237C1472.59 961.538 1488.54 972.4 1490.07 988.451C1490.93 997.497 1486.56 1007.84 1475.89 1012.79C1468.6 1016.18 1461.01 1016.63 1453.3 1012.5ZM1462.43 971.666C1449.09 974.539 1442.78 987.546 1446.39 997.951C1449.65 1007.37 1460.48 1013.57 1469.83 1010.9C1481.11 1007.68 1487.45 997.634 1485.3 987.274C1483.24 977.404 1474.39 970.424 1462.43 971.666Z" fill="#494949"/>
<path d="M1569.53 965.056C1576.46 968.334 1581.92 973.122 1585.03 980.293C1589.72 991.092 1587.25 1003.76 1579.03 1011.21C1569.78 1019.6 1556.94 1021.21 1546.2 1015.03C1536.15 1009.24 1530.91 1000.35 1531.57 988.74C1532.2 977.671 1538.06 969.786 1548.23 965.225C1549.04 964.86 1549.8 964.363 1550.52 963.589C1550.45 963.251 1550.44 963.265 1550.77 963.554C1552.56 963.66 1554.02 963.476 1555.47 963.293C1557.33 963.288 1559.2 963.283 1561.83 963.339C1563.71 963.361 1564.82 963.322 1565.93 963.282C1565.93 963.282 1565.89 963.265 1565.93 963.567C1567.15 964.265 1568.34 964.661 1569.53 965.056ZM1565.71 967.31C1547.71 964.172 1534.84 974.215 1534.97 991.307C1535.05 1002.07 1542.03 1010.88 1553.28 1014.44C1562.58 1017.38 1573.66 1013.67 1579.49 1005.66C1589.45 991.99 1583.07 973.429 1565.71 967.31Z" fill="#313131"/>
<path d="M1475.66 904.374C1477.83 912.748 1473.48 920.129 1465.59 922.092C1460.87 923.268 1457.52 920.555 1457.66 915.664C1457.89 907.578 1462.84 902.094 1470.16 902.22C1471.94 902.25 1473.7 903.415 1475.66 904.374Z" fill="#F6F6F6"/>
<path d="M1539.79 903.478C1543.65 899.871 1549.27 898.824 1553.25 901.153C1554.26 901.745 1555.19 903.468 1555.18 904.665C1555.14 910.801 1548.56 917.832 1542.38 918.641C1539.42 919.029 1537.33 917.889 1536.65 914.884C1535.69 910.692 1536.31 906.84 1539.79 903.478Z" fill="#F6F6F6"/>
<path d="M1571.58 937.75C1573.78 931.332 1581.12 930.562 1586.24 931.708C1592.36 933.08 1595.81 937.493 1595.86 943.636C1595.87 944.693 1595.83 945.749 1595.78 947.194C1587.81 944.347 1579.86 941.112 1571.58 937.75Z" fill="#FACECD"/>
<path d="M1430.98 957.821C1428.48 948.022 1429.67 944.177 1436 940.926C1441.3 938.203 1447.35 939.105 1452.31 943.639C1443.34 945.407 1436.87 950.886 1430.98 957.821Z" fill="#F9CDCC"/>
<path d="M1553.66 927.758C1556.25 927.578 1559.47 927.219 1558.8 930.418C1557.64 935.892 1553.19 932.73 1550.11 933.114C1549.8 932.775 1549.5 932.435 1549.2 932.095C1550.56 930.671 1551.92 929.247 1553.66 927.758Z" fill="#ECECEC"/>
<path d="M1560.33 936.374C1562.26 937.343 1563.62 938.144 1564.98 938.945C1564.89 939.463 1564.81 939.981 1564.72 940.5C1556.1 940.5 1547.47 940.5 1537.72 940.5C1544.48 933.446 1552.56 936.809 1560.33 936.374Z" fill="#313132"/>
<path d="M1469.79 935.972C1476.63 936.092 1483.19 934.823 1487.74 941.411C1477.54 941.411 1467.87 941.411 1458.2 941.411C1458.05 940.466 1457.9 939.52 1457.75 938.575C1461.53 937.709 1465.31 936.843 1469.79 935.972Z" fill="#313132"/>
<path d="M1483.18 934.388C1480.17 934.253 1477.25 933.788 1474.33 933.324C1474.27 932.841 1474.21 932.359 1474.14 931.876C1476.36 931.409 1478.6 930.554 1480.79 930.665C1481.67 930.71 1482.45 932.864 1483.18 934.388Z" fill="#E8E8E8"/>
<path d="M1443.54 973.982C1442.69 974.629 1442.09 975.005 1441.04 975.663C1441.18 972.231 1441.83 970.062 1446.04 970.503C1445.1 971.84 1444.44 972.776 1443.54 973.982Z" fill="#A3A3A3"/>
<path d="M1569.53 964.789C1568.34 964.661 1567.16 964.266 1565.91 963.559C1566.92 963.359 1567.98 963.471 1569.29 963.786C1569.54 964.166 1569.54 964.344 1569.53 964.789Z" fill="#939393"/>
<path d="M1555.41 962.869C1554.02 963.477 1552.56 963.66 1550.77 963.559C1552.06 962.997 1553.71 962.72 1555.41 962.869Z" fill="#A3A3A3"/>
<path d="M1565.7 962.984C1564.82 963.322 1563.71 963.361 1562.18 963.349C1563 963.093 1564.23 962.889 1565.7 962.984Z" fill="#A3A3A3"/>
<path d="M1512.97 953.583C1521.39 954.439 1525 964.176 1520.15 970.637C1517.45 974.237 1513.86 975.73 1509.45 974.795C1505.13 973.878 1501.78 969.986 1501.63 965.39C1501.48 960.865 1503.28 957.089 1507.46 954.955C1509.02 954.16 1510.89 953.994 1512.97 953.583ZM1512.35 960.1C1511.2 959.34 1510.06 958.581 1508.67 957.659C1507.43 959.454 1506.18 961.274 1504.83 963.245C1506 963.954 1507.04 964.578 1508.39 965.396C1507.23 966.337 1506.4 967.009 1505.55 967.691C1507.03 969.076 1508.35 970.303 1509.73 971.594C1510.56 970.471 1511.36 969.406 1512.44 967.962C1513.23 969.463 1513.74 970.424 1514.3 971.481C1515.7 969.929 1516.89 968.609 1518.27 967.076C1517.55 966.535 1516.59 965.824 1515.78 965.215C1516.93 963.872 1518.81 962.072 1518.62 961.819C1517.25 959.977 1515.46 958.447 1513.47 956.486C1513.1 958.115 1512.94 958.841 1512.35 960.1Z" fill="#393939"/>
<path d="M1462.81 971.618C1474.39 970.424 1483.24 977.403 1485.3 987.274C1487.46 997.634 1481.11 1007.68 1469.83 1010.9C1460.48 1013.57 1449.65 1007.37 1446.39 997.951C1442.79 987.546 1449.09 974.539 1462.81 971.618Z" fill="#151515"/>
<path d="M1566.05 967.444C1583.07 973.43 1589.45 991.991 1579.49 1005.66C1573.66 1013.67 1562.58 1017.38 1553.28 1014.44C1542.03 1010.89 1535.05 1002.07 1534.97 991.308C1534.84 974.216 1547.71 964.172 1566.05 967.444ZM1544.5 1004.23C1545.25 1004.98 1545.98 1005.75 1546.75 1006.48C1554.89 1014.24 1569.03 1012.77 1575.4 1003.49C1583.54 991.633 1578.57 977.214 1564.69 972.449C1556.34 969.583 1546.9 973.105 1541.75 980.892C1538.66 985.585 1537.98 998.628 1544.5 1004.23Z" fill="#484848"/>
<path d="M1512.56 959.833C1512.94 958.841 1513.1 958.115 1513.47 956.485C1515.46 958.446 1517.25 959.977 1518.62 961.819C1518.81 962.072 1516.92 963.871 1515.78 965.214C1516.59 965.823 1517.55 966.535 1518.27 967.075C1516.89 968.608 1515.69 969.929 1514.3 971.481C1513.74 970.424 1513.23 969.463 1512.44 967.962C1511.36 969.406 1510.56 970.471 1509.73 971.593C1508.35 970.303 1507.03 969.076 1505.55 967.69C1506.4 967.008 1507.23 966.337 1508.39 965.396C1507.03 964.578 1506 963.954 1504.83 963.245C1506.18 961.273 1507.43 959.454 1508.67 957.658C1510.06 958.581 1511.2 959.34 1512.56 959.833Z" fill="#E9E9E9"/>
<path d="M1544.27 1004C1537.98 998.628 1538.66 985.585 1541.75 980.892C1546.9 973.105 1556.34 969.583 1564.69 972.449C1578.57 977.214 1583.54 991.633 1575.4 1003.49C1569.03 1012.77 1554.89 1014.24 1546.75 1006.48C1545.98 1005.75 1545.25 1004.98 1544.27 1004Z" fill="#151515"/>
</g>
<defs>
<filter id="filter0_d_348_5249" x="760.096" y="315.096" width="445.967" height="447.163" filterUnits="userSpaceOnUse" color-interpolation-filters="sRGB">
<feFlood flood-opacity="0" result="BackgroundImageFix"/>
<feColorMatrix in="SourceAlpha" type="matrix" values="0 0 0 0 0 0 0 0 0 0 0 0 0 0 0 0 0 0 127 0" result="hardAlpha"/>
<feOffset dy="5"/>
<feGaussianBlur stdDeviation="12.5"/>
<feColorMatrix type="matrix" values="0 0 0 0 0 0 0 0 0 0 0 0 0 0 0 0 0 0 0.1 0"/>
<feBlend mode="normal" in2="BackgroundImageFix" result="effect1_dropShadow_348_5249"/>
<feBlend mode="normal" in="SourceGraphic" in2="effect1_dropShadow_348_5249" result="shape"/>
</filter>
<linearGradient id="paint0_linear_348_5249" x1="1117.39" y1="537.953" x2="1008.25" y2="-1321.29" gradientUnits="userSpaceOnUse">
<stop stop-color="#4B7AF2"/>
<stop offset="1" stop-color="#4B7AF2" stop-opacity="0"/>
</linearGradient>
<linearGradient id="paint1_linear_348_5249" x1="832.421" y1="528.998" x2="955.494" y2="2622.83" gradientUnits="userSpaceOnUse">
<stop stop-color="#4B7AF2"/>
<stop offset="1" stop-color="#4B7AF2" stop-opacity="0"/>
</linearGradient>
<clipPath id="clip0_348_5249">
<rect width="378" height="306" fill="white" transform="translate(1326 762)"/>
</clipPath>
</defs>
</svg>
