<svg width="25" height="25" viewBox="0 0 25 25" fill="none" xmlns="http://www.w3.org/2000/svg">
<path d="M12.6937 24.9903C12.3577 24.9903 12.0828 24.7208 12.0775 24.3838C12.0722 24.0439 12.3437 23.7631 12.6841 23.7578C15.55 23.712 18.2633 22.5897 20.3244 20.5974C20.5703 20.3612 20.9594 20.3679 21.1959 20.6124C21.4327 20.8569 21.4261 21.2471 21.1814 21.4837C18.8941 23.6941 15.8834 24.9395 12.7034 24.9905C12.7005 24.9903 12.6971 24.9903 12.6937 24.9903Z" fill="black"/>
<path d="M12.3062 1.24228C11.9702 1.24228 11.6953 0.972461 11.69 0.635279C11.6852 0.294849 11.9567 0.0149488 12.297 0.00981924L12.3534 0.0067406C12.4022 0.00314992 12.4507 0.000244141 12.5003 0.000244141C12.8407 0.000244141 13.1165 0.276043 13.1165 0.616473C13.1165 0.956904 12.8407 1.2327 12.5003 1.2327L12.4411 1.23612C12.3992 1.23903 12.3579 1.24176 12.3155 1.24245C12.3124 1.24228 12.3091 1.24228 12.3062 1.24228Z" fill="black"/>
<path d="M0.616229 13.1166C0.275799 13.1166 0 12.8408 0 12.5004C0 8.9114 1.55545 5.48863 4.26744 3.10972C4.52357 2.88471 4.91256 2.91087 5.13689 3.16666C5.36122 3.42245 5.33626 3.81162 5.08012 4.03612C2.63487 6.18129 1.23263 9.2662 1.23263 12.5005C1.23246 12.8408 0.95666 13.1166 0.616229 13.1166Z" fill="black"/>
<path d="M12.3062 24.9902C12.3028 24.9902 12.2999 24.9902 12.2967 24.9902C9.11634 24.9393 6.10599 23.6938 3.81924 21.4835C3.57456 21.2469 3.56789 20.8567 3.80488 20.6122C4.04118 20.3677 4.43119 20.361 4.67621 20.5971C6.73675 22.5894 9.44993 23.712 12.316 23.7576C12.6564 23.7629 12.9279 24.0437 12.9226 24.3836C12.917 24.7208 12.6422 24.9902 12.3062 24.9902Z" fill="black"/>
<path d="M4.2476 21.6564C4.09354 21.6564 3.93897 21.5988 3.81911 21.4832C1.35608 19.1031 0 15.9127 0 12.5C0 12.1596 0.275799 11.8838 0.616229 11.8838C0.95666 11.8838 1.23246 12.1596 1.23246 12.5C1.23246 15.5753 2.45534 18.4508 4.67609 20.5968C4.9206 20.8335 4.92744 21.2235 4.69045 21.4683C4.56974 21.5935 4.40884 21.6564 4.2476 21.6564Z" fill="black"/>
<path d="M12.5 25.0003C12.449 25.0003 12.3989 24.9969 12.3488 24.9936L12.2926 24.99C11.9521 24.9823 11.6827 24.7004 11.6898 24.3603C11.6975 24.0248 11.972 23.7576 12.3056 23.7576C12.3103 23.7576 12.3153 23.7576 12.3196 23.7576C12.3599 23.7586 12.3994 23.7613 12.4389 23.7644L12.5001 23.7678C12.8406 23.7678 13.1164 24.0436 13.1164 24.3841C13.1162 24.7245 12.8404 25.0003 12.5 25.0003Z" fill="black"/>
<path d="M12.5 25.0003C12.1596 25.0003 11.8838 24.7245 11.8838 24.3841C11.8838 24.0438 12.1596 23.7678 12.5 23.7678L12.5607 23.7644C12.6 23.7613 12.6395 23.7586 12.6801 23.7576C13.0007 23.7586 13.3021 24.0195 13.3098 24.3603C13.317 24.7002 13.0475 24.9823 12.7071 24.99L12.6513 24.9936C12.6012 24.997 12.5511 25.0003 12.5 25.0003Z" fill="black"/>
<path d="M20.326 4.18897C20.182 4.18897 20.0372 4.1387 19.9201 4.03594C17.9155 2.27719 15.3456 1.28514 12.6839 1.24222C12.3439 1.23675 12.0724 0.956335 12.0777 0.616075C12.0835 0.275645 12.3556 0.0152371 12.704 0.00976562C15.6574 0.0574703 18.509 1.15844 20.7328 3.10972C20.9889 3.33405 21.0141 3.72355 20.7895 3.97917C20.6678 4.11801 20.4972 4.18897 20.326 4.18897Z" fill="black"/>
<path d="M4.67425 4.18913C4.50292 4.18913 4.33245 4.11817 4.21071 3.97915C3.98638 3.72353 4.01134 3.33403 4.26748 3.1097C6.49113 1.15842 9.34264 0.0574524 12.2962 0.00974771C12.6524 -0.00376008 12.9167 0.275459 12.9225 0.61606C12.9278 0.956148 12.6563 1.23656 12.3164 1.24221C9.65469 1.28512 7.08479 2.27735 5.08017 4.03592C4.96304 4.13885 4.81822 4.18913 4.67425 4.18913Z" fill="black"/>
<path d="M12.6939 1.2422C12.691 1.2422 12.6882 1.2422 12.6848 1.2422C12.6424 1.24152 12.601 1.23878 12.5592 1.23588L12.5005 1.23246C12.1601 1.23246 11.8843 0.95666 11.8843 0.616229C11.8843 0.275799 12.1601 0 12.5005 0C12.5501 0 12.5987 0.00290839 12.6474 0.00649906L12.7031 0.0095751C13.0436 0.0147046 13.3151 0.294607 13.3103 0.635038C13.3048 0.97239 13.03 1.2422 12.6939 1.2422Z" fill="black"/>
<path d="M20.7528 21.6566C20.5915 21.6566 20.4306 21.5937 20.3097 21.4686C20.0729 21.2237 20.0796 20.8337 20.3243 20.597C22.5445 18.4515 23.7676 15.5761 23.7676 12.5002C23.7676 9.26589 22.3651 6.18099 19.9199 4.03581C19.6638 3.81131 19.6386 3.42215 19.8631 3.16636C20.0871 2.91074 20.4764 2.8844 20.7326 3.10942C23.4444 5.4885 24.9998 8.9111 24.9998 12.5001C24.9998 15.9129 23.6436 19.1033 21.1812 21.4833C21.0612 21.599 20.9068 21.6566 20.7528 21.6566Z" fill="black"/>
<path d="M8.20979 6.16114C8.10874 6.16114 8.00615 6.13634 7.91125 6.08368C7.61374 5.91851 7.50636 5.54354 7.67153 5.24603C8.75575 3.29202 10.3025 1.57054 12.1445 0.268151C12.4208 0.0715189 12.8074 0.137006 13.0032 0.41554C13.1996 0.69339 13.1338 1.07793 12.856 1.27439C11.1642 2.47077 9.74404 4.05102 8.74891 5.84413C8.63623 6.04675 8.42643 6.16114 8.20979 6.16114Z" fill="black"/>
<path d="M12.5005 1.38713C12.307 1.38713 12.1168 1.29634 11.9965 1.12621C11.8005 0.848185 11.8665 0.463643 12.1447 0.267524L12.2131 0.215714C12.2559 0.182372 12.2993 0.149031 12.3441 0.118254C12.6248 -0.0753007 13.008 -0.00400217 13.2011 0.276413C13.3943 0.556827 13.3235 0.940517 13.0432 1.13356C13.0178 1.15117 12.9931 1.17032 12.9685 1.18947C12.9309 1.21854 12.8938 1.24726 12.8553 1.27428C12.7474 1.35071 12.6233 1.38713 12.5005 1.38713Z" fill="black"/>
<path d="M7.89429 19.4433C7.66706 19.4433 7.44802 19.317 7.34116 19.0991C6.31474 17.0147 5.79443 14.7944 5.79443 12.5005C5.79443 12.1601 6.07023 11.8843 6.41066 11.8843C6.75109 11.8843 7.02689 12.1601 7.02689 12.5005C7.02689 14.6041 7.50445 16.6411 8.44658 18.5547C8.59721 18.8601 8.47154 19.2294 8.16582 19.3799C8.07879 19.423 7.98594 19.4433 7.89429 19.4433Z" fill="black"/>
<path d="M12.6932 24.9902C12.5742 24.9902 12.4544 24.9562 12.3484 24.8844C12.3008 24.8522 12.255 24.8173 12.2097 24.7823L12.1447 24.7332C11.8665 24.5368 11.8005 24.1522 11.9965 23.8744C12.1934 23.5965 12.5775 23.5302 12.8553 23.7261C12.8929 23.7526 12.929 23.7805 12.9653 23.8084C12.9894 23.8272 13.0133 23.8465 13.039 23.8638C13.3209 24.0542 13.3946 24.4372 13.2041 24.7192C13.0851 24.8955 12.8911 24.9902 12.6932 24.9902Z" fill="black"/>
<path d="M12.4998 24.8458C12.3766 24.8458 12.2524 24.8092 12.1445 24.7328C10.1062 23.2914 8.44529 21.3433 7.3409 19.0988C7.19078 18.7936 7.31679 18.4243 7.622 18.274C7.92721 18.1235 8.29653 18.2495 8.44717 18.5549C9.4606 20.6154 10.9853 22.4038 12.856 23.7267C13.1339 23.923 13.1999 24.3077 13.0032 24.5855C12.8834 24.7551 12.6929 24.8458 12.4998 24.8458Z" fill="black"/>
<path d="M6.41066 13.1165C6.07023 13.1165 5.79443 12.8407 5.79443 12.5002C5.79443 9.96813 6.44332 7.45945 7.6715 5.24554C7.83565 4.94802 8.21164 4.84065 8.50916 5.00565C8.80667 5.17082 8.91405 5.54579 8.74888 5.84347C7.62243 7.87494 7.02689 10.1766 7.02689 12.5002C7.02689 12.8407 6.75092 13.1165 6.41066 13.1165Z" fill="black"/>
<path d="M8.21038 6.16124C8.14062 6.16124 8.06983 6.14928 8.00007 6.12414C6.64827 5.63359 5.40025 4.93751 4.29022 4.05523C4.02399 3.84338 3.97971 3.45593 4.19156 3.18936C4.40392 2.92297 4.79086 2.87919 5.0576 3.09036C6.06281 3.88954 7.19422 4.52048 8.42086 4.96538C8.7406 5.08165 8.9056 5.43507 8.78968 5.75481C8.69854 6.00565 8.46207 6.16124 8.21038 6.16124Z" fill="black"/>
<path d="M16.7898 6.16122C16.5379 6.16122 16.3016 6.00545 16.2105 5.75496C16.0944 5.43504 16.2596 5.08162 16.5793 4.96552C17.8059 4.52062 18.9372 3.88969 19.9426 3.0905C20.2098 2.879 20.5968 2.92311 20.8084 3.1895C21.0203 3.45607 20.976 3.84352 20.7098 4.05537C19.5997 4.93765 18.3519 5.63373 17.0001 6.12428C16.9303 6.14925 16.8595 6.16122 16.7898 6.16122Z" fill="black"/>
<path d="M12.5 6.92614C12.1596 6.92614 11.8838 6.65034 11.8838 6.30991C11.8838 5.96948 12.1596 5.69368 12.5 5.69368C13.8741 5.69368 15.2465 5.44866 16.5797 4.96512C16.8988 4.84953 17.253 5.01453 17.3686 5.33427C17.4847 5.65419 17.3196 6.00778 16.9995 6.12388C15.5316 6.65633 14.0175 6.92614 12.5 6.92614Z" fill="black"/>
<path d="M12.5002 6.92616C10.9824 6.92616 9.46812 6.65634 8.00039 6.1239C7.68013 6.0078 7.51513 5.6542 7.63106 5.33429C7.74665 5.01438 8.10093 4.84955 8.42016 4.96514C9.75315 5.44868 11.1263 5.6937 12.5002 5.6937C12.8406 5.6937 13.1164 5.9695 13.1164 6.30993C13.1164 6.65036 12.8406 6.92616 12.5002 6.92616Z" fill="black"/>
<path d="M20.7521 21.6565C20.6092 21.6565 20.4652 21.6066 20.3483 21.5052C19.3166 20.6082 18.1498 19.8997 16.8802 19.3999C16.5634 19.2752 16.4078 18.9175 16.5326 18.6007C16.6569 18.284 17.0144 18.1291 17.3318 18.2533C18.7318 18.8045 20.0191 19.5857 21.1572 20.5751C21.4139 20.7985 21.4412 21.1877 21.2177 21.4445C21.0958 21.5847 20.9243 21.6565 20.7521 21.6565Z" fill="black"/>
<path d="M17.1058 19.4431C17.0308 19.4431 16.9542 19.4293 16.8801 19.4C15.4666 18.844 13.9929 18.562 12.5 18.562C12.1596 18.562 11.8838 18.2862 11.8838 17.9458C11.8838 17.6056 12.1596 17.3296 12.5 17.3296C14.148 17.3296 15.7737 17.6403 17.3315 18.2534C17.6479 18.3779 17.804 18.7356 17.6791 19.0523C17.5839 19.2949 17.3514 19.4431 17.1058 19.4431Z" fill="black"/>
<path d="M7.89385 19.4431C7.64832 19.4431 7.41578 19.2949 7.32054 19.0523C7.19589 18.7356 7.35183 18.3779 7.66815 18.2534C9.22599 17.6403 10.8519 17.3296 12.5002 17.3296C12.8406 17.3296 13.1164 17.6054 13.1164 17.9458C13.1164 18.2862 12.8406 18.562 12.5002 18.562C11.0068 18.562 9.53308 18.844 8.11972 19.4C8.04551 19.4293 7.96891 19.4431 7.89385 19.4431Z" fill="black"/>
<path d="M4.24808 21.6567C4.07573 21.6567 3.90423 21.5849 3.78249 21.4448C3.55919 21.188 3.58654 20.7988 3.84319 20.5754C4.98024 19.5866 6.26724 18.8052 7.66812 18.2536C7.98444 18.1293 8.34248 18.2843 8.4673 18.601C8.59195 18.9177 8.43652 19.2754 8.11969 19.4002C6.84962 19.9005 5.68264 20.6085 4.65195 21.5055C4.53551 21.6068 4.39103 21.6567 4.24808 21.6567Z" fill="black"/>
<path d="M18.5893 13.1164C18.249 13.1164 17.973 12.8406 17.973 12.5001C17.973 10.1766 17.3775 7.87483 16.2509 5.84336C16.0857 5.54568 16.1931 5.17053 16.4906 5.00553C16.7886 4.84071 17.1638 4.94808 17.3283 5.24543C18.5564 7.45933 19.2053 9.96802 19.2053 12.5001C19.2055 12.8406 18.9297 13.1164 18.5893 13.1164Z" fill="black"/>
<path d="M12.4997 1.38705C12.3785 1.38705 12.2557 1.35115 12.1484 1.27677C12.107 1.24804 12.0675 1.21761 12.0275 1.18683C12.0044 1.16888 11.9813 1.15024 11.9567 1.13365C11.6764 0.940613 11.6057 0.556923 11.7987 0.276509C11.9912 -0.00390607 12.3746 -0.0748652 12.6557 0.118347C12.6989 0.148441 12.7408 0.180416 12.7827 0.212903L12.852 0.26488C13.1312 0.45929 13.2001 0.843324 13.006 1.12271C12.8863 1.29489 12.6947 1.38705 12.4997 1.38705Z" fill="black"/>
<path d="M12.3071 24.9901C12.1092 24.9901 11.9152 24.8952 11.7963 24.719C11.6057 24.4371 11.6794 24.0541 11.9613 23.8636C11.9855 23.8472 12.0085 23.8289 12.0316 23.8109C12.0703 23.7812 12.1087 23.7513 12.1487 23.7234C12.429 23.5293 12.8122 23.5977 13.0067 23.8773C13.2008 24.1567 13.1317 24.5407 12.8527 24.7353L12.7867 24.7849C12.7429 24.8191 12.6981 24.8528 12.652 24.884C12.5458 24.956 12.4259 24.9901 12.3071 24.9901Z" fill="black"/>
<path d="M17.1055 19.4433C17.014 19.4433 16.9212 19.423 16.834 19.3799C16.5282 19.2294 16.4026 18.8601 16.5532 18.5547C17.4953 16.6411 17.9731 14.6041 17.9731 12.5005C17.9731 12.1601 18.2489 11.8843 18.5893 11.8843C18.9297 11.8843 19.2055 12.1601 19.2055 12.5005C19.2055 14.7946 18.6852 17.0147 17.6588 19.0991C17.5517 19.317 17.3327 19.4433 17.1055 19.4433Z" fill="black"/>
<path d="M12.5004 24.8457C12.3074 24.8457 12.1168 24.7553 11.9969 24.5855C11.8004 24.3076 11.8664 23.9229 12.1443 23.7266C14.0145 22.4036 15.5392 20.6152 16.5526 18.5549C16.7034 18.2493 17.0726 18.1236 17.3778 18.2739C17.683 18.4242 17.809 18.7936 17.659 19.0988C16.5547 21.3429 14.8937 23.2915 12.8557 24.7327C12.7479 24.8091 12.6237 24.8457 12.5004 24.8457Z" fill="black"/>
<path d="M16.7899 6.16082C16.5733 6.16082 16.363 6.0466 16.2508 5.84364C15.2569 4.05104 13.8365 2.47097 12.1443 1.27391C11.8664 1.07745 11.8004 0.692902 11.9969 0.415052C12.1934 0.136518 12.5789 0.0710306 12.8557 0.267663C14.6981 1.57091 16.245 3.29221 17.3282 5.24554C17.4934 5.54339 17.386 5.91836 17.0885 6.08353C16.9936 6.13602 16.8912 6.16082 16.7899 6.16082Z" fill="black"/>
<path d="M6.41073 13.1167H0.616229C0.275799 13.1167 0 12.8409 0 12.5005C0 12.1601 0.275799 11.8843 0.616229 11.8843H6.41073C6.75116 11.8843 7.02696 12.1601 7.02696 12.5005C7.02696 12.8409 6.75099 13.1167 6.41073 13.1167Z" fill="black"/>
<path d="M18.5891 13.1167H12.5C12.1596 13.1167 11.8838 12.8409 11.8838 12.5005C11.8838 12.1601 12.1596 11.8843 12.5 11.8843H18.5891C18.9294 11.8843 19.2054 12.1601 19.2054 12.5005C19.2054 12.8409 18.9296 13.1167 18.5891 13.1167Z" fill="black"/>
<path d="M12.5003 13.1167H6.41066C6.07023 13.1167 5.79443 12.8409 5.79443 12.5005C5.79443 12.1601 6.07023 11.8843 6.41066 11.8843H12.5003C12.8407 11.8843 13.1165 12.1601 13.1165 12.5005C13.1165 12.8409 12.8407 13.1167 12.5003 13.1167Z" fill="black"/>
<path d="M24.0328 13.1167H18.5894C18.2491 13.1167 17.9731 12.8409 17.9731 12.5005C17.9731 12.1601 18.2489 11.8843 18.5894 11.8843H24.0328C24.3733 11.8843 24.6491 12.1601 24.6491 12.5005C24.6491 12.8409 24.3733 13.1167 24.0328 13.1167Z" fill="black"/>
<path d="M12.5 6.92646C12.1596 6.92646 11.8838 6.65066 11.8838 6.31023V0.771014C11.8838 0.430584 12.1596 0.154785 12.5 0.154785C12.8404 0.154785 13.1162 0.430584 13.1162 0.771014V6.31023C13.1162 6.65066 12.8404 6.92646 12.5 6.92646Z" fill="black"/>
<path d="M12.5 13.1165C12.1596 13.1165 11.8838 12.8407 11.8838 12.5002V6.31007C11.8838 5.96964 12.1596 5.69385 12.5 5.69385C12.8404 5.69385 13.1162 5.96964 13.1162 6.31007V12.5002C13.1162 12.8407 12.8404 13.1165 12.5 13.1165Z" fill="black"/>
<path d="M12.5 24.8457C12.1596 24.8457 11.8838 24.5699 11.8838 24.2294V17.9456C11.8838 17.6053 12.1596 17.3293 12.5 17.3293C12.8404 17.3293 13.1162 17.6051 13.1162 17.9456V24.2294C13.1162 24.5697 12.8404 24.8457 12.5 24.8457Z" fill="black"/>
<path d="M12.5 1.38703C12.1596 1.38703 11.8838 1.11123 11.8838 0.770801V0.616229C11.8838 0.275799 12.1596 0 12.5 0C12.8404 0 13.1162 0.275799 13.1162 0.616229V0.770801C13.1162 1.11123 12.8404 1.38703 12.5 1.38703Z" fill="black"/>
<path d="M12.5 18.5623C12.1596 18.5623 11.8838 18.2865 11.8838 17.9461V12.5008C11.8838 12.1603 12.1596 11.8845 12.5 11.8845C12.8404 11.8845 13.1162 12.1603 13.1162 12.5008V17.9461C13.1162 18.2864 12.8404 18.5623 12.5 18.5623Z" fill="black"/>
<path d="M12.5 25.0004C12.1596 25.0004 11.8838 24.7246 11.8838 24.3842V24.2298C11.8838 23.8893 12.1596 23.6135 12.5 23.6135C12.8404 23.6135 13.1162 23.8893 13.1162 24.2298V24.3842C13.1162 24.7246 12.8404 25.0004 12.5 25.0004Z" fill="black"/>
</svg>
