<svg width="802" height="850" viewBox="0 0 802 850" fill="none" xmlns="http://www.w3.org/2000/svg">
<path d="M434.49 47.8506C510.627 49.9617 584.344 75.0324 645.955 119.769C707.567 164.505 754.189 226.814 779.698 298.508C805.207 370.203 808.408 447.929 788.881 521.475C769.354 595.021 728.013 660.945 670.288 710.586L523.804 540.598C547.194 520.484 563.945 493.772 571.857 463.972C579.769 434.171 578.472 402.677 568.136 373.627C557.8 344.577 538.909 319.329 513.945 301.203C488.98 283.076 459.11 272.917 428.26 272.062L434.49 47.8506Z" fill="url(#paint0_linear_329_4009)" fill-opacity="0.16"/>
<path d="M434.49 47.8506C510.627 49.9617 584.344 75.0324 645.955 119.769C707.567 164.505 754.189 226.814 779.698 298.508C805.207 370.203 808.408 447.929 788.881 521.475C769.354 595.021 728.013 660.945 670.288 710.586L523.804 540.598C547.194 520.484 563.945 493.772 571.857 463.972C579.769 434.171 578.472 402.677 568.136 373.627C557.8 344.577 538.909 319.329 513.945 301.203C488.98 283.076 459.11 272.917 428.26 272.062L434.49 47.8506Z" fill="black" fill-opacity="0.16"/>
<path fill-rule="evenodd" clip-rule="evenodd" d="M434.49 47.8506C436.045 47.8937 437.599 47.9464 439.153 48.0087C513.634 50.9943 585.603 75.9463 645.955 119.769C707.566 164.505 754.189 226.814 779.698 298.508C805.207 370.203 808.408 447.929 788.881 521.475C769.753 593.518 729.693 658.248 673.806 707.523C672.64 708.551 671.468 709.572 670.288 710.586L523.804 540.598C523.804 540.598 523.804 540.598 523.804 540.598C547.193 520.484 563.945 493.772 571.857 463.972C579.769 434.171 578.472 402.677 568.136 373.627C557.8 344.577 538.909 319.329 513.945 301.203C488.995 283.086 459.145 272.929 428.314 272.063C428.296 272.063 428.278 272.062 428.26 272.062L434.49 47.8506ZM433.051 267.601C463.183 269.329 492.221 279.667 516.688 297.432C542.414 316.112 561.881 342.129 572.533 372.066C583.184 402.002 584.521 434.457 576.367 465.167C568.613 494.372 552.62 520.7 530.339 541.037L670.761 703.99C725.935 655.329 765.484 591.414 784.371 520.28C803.657 447.643 800.495 370.878 775.302 300.069C750.108 229.261 704.062 167.722 643.212 123.539C583.621 80.2696 512.563 55.6275 439.023 52.6683L433.051 267.601Z" fill="white"/>
<path d="M699.82 747.993C647.436 792.618 584.994 823.84 517.87 838.968C450.746 854.096 380.952 852.679 314.498 834.837C248.043 816.996 186.92 783.265 136.39 736.549C85.86 689.833 47.4384 631.533 24.4331 566.667C1.42785 501.801 -5.47162 432.314 4.32877 364.189C14.1292 296.064 40.3358 231.342 80.692 175.596C121.048 119.851 174.345 74.7526 235.993 44.1841C297.64 13.6155 365.792 -1.50697 434.579 0.118704L428.61 252.864C400.772 252.206 373.192 258.326 348.244 270.697C323.296 283.067 301.728 301.318 285.396 323.878C269.065 346.437 258.459 372.629 254.493 400.198C250.527 427.768 253.319 455.888 262.629 482.138C271.939 508.389 287.488 531.982 307.937 550.887C328.385 569.793 353.121 583.443 380.014 590.663C406.908 597.884 435.152 598.457 462.316 592.335C489.48 586.213 514.75 573.578 535.949 555.518L699.82 747.993Z" fill="url(#paint1_linear_329_4009)"/>
<path d="M699.82 747.993C647.436 792.618 584.994 823.84 517.87 838.968C450.746 854.096 380.952 852.679 314.498 834.837C248.043 816.996 186.92 783.265 136.39 736.549C85.86 689.833 47.4384 631.533 24.4331 566.667C1.42785 501.801 -5.47162 432.314 4.32877 364.189C14.1292 296.064 40.3358 231.342 80.692 175.596C121.048 119.851 174.345 74.7526 235.993 44.1841C297.64 13.6155 365.792 -1.50697 434.579 0.118704L428.61 252.864C400.772 252.206 373.192 258.326 348.244 270.697C323.296 283.067 301.728 301.318 285.396 323.878C269.065 346.437 258.459 372.629 254.493 400.198C250.527 427.768 253.319 455.888 262.629 482.138C271.939 508.389 287.488 531.982 307.937 550.887C328.385 569.793 353.121 583.443 380.014 590.663C406.908 597.884 435.152 598.457 462.316 592.335C489.48 586.213 514.75 573.578 535.949 555.518L699.82 747.993Z" fill="white" fill-opacity="0.2"/>
<path fill-rule="evenodd" clip-rule="evenodd" d="M699.82 747.993C699.807 748.003 699.795 748.014 699.782 748.025C698.61 749.023 697.434 750.014 696.252 750.999C644.61 794.022 583.476 824.182 517.87 838.968C450.746 854.096 380.952 852.679 314.498 834.837C248.043 816.996 186.92 783.265 136.39 736.549C85.8601 689.833 47.4384 631.533 24.4331 566.667C1.42788 501.801 -5.47157 432.314 4.32877 364.189C14.1292 296.064 40.3358 231.342 80.692 175.596C121.048 119.851 174.345 74.7526 235.993 44.1841C296.247 14.3066 362.714 -0.815344 429.915 0.0341146C431.47 0.0537668 433.024 0.0819633 434.579 0.118704L428.61 252.864C400.772 252.206 373.192 258.326 348.244 270.697C323.296 283.068 301.728 301.318 285.396 323.878C269.065 346.437 258.459 372.629 254.493 400.198C250.527 427.768 253.319 455.888 262.629 482.138C271.939 508.389 287.488 531.982 307.937 550.887C328.385 569.793 353.121 583.443 380.014 590.663C406.908 597.884 435.152 598.457 462.316 592.335C489.48 586.213 514.75 573.578 535.949 555.518L699.82 747.993ZM535.382 562.05C514.368 579.013 489.725 590.941 463.342 596.887C435.44 603.176 406.429 602.586 378.805 595.17C351.182 587.754 325.774 573.733 304.77 554.314C283.766 534.896 267.795 510.662 258.233 483.698C248.67 456.735 245.802 427.851 249.876 399.534C253.95 371.216 264.843 344.313 281.618 321.141C298.393 297.969 320.547 279.223 346.173 266.516C370.403 254.501 397.052 248.226 424.055 248.151L429.805 4.69948C363.36 3.86768 297.641 18.8234 238.065 48.365C177.094 78.5976 124.383 123.201 84.4703 178.333C44.5575 233.466 18.6389 297.477 8.94621 364.853C-0.746509 432.23 6.07721 500.953 28.8297 565.106C51.5822 629.26 89.5816 686.92 139.556 733.122C189.531 779.325 249.983 812.685 315.707 830.331C381.431 847.976 450.458 849.378 516.845 834.416C581.713 819.796 642.161 789.979 693.227 747.446L535.382 562.05Z" fill="white"/>
<path d="M95.8997 372.752V370.492H86.8497V372.752C86.8132 379.205 83.091 385.803 74.3694 388.793L78.9674 395.574C85.0251 393.423 89.1122 389.413 91.4842 384.491C93.6372 389.595 97.5418 393.897 103.782 396.157C109.73 393.824 113.598 389.376 115.788 384.236C118.087 389.376 122.247 393.423 128.596 395.574L133.121 388.793C124.254 386.059 120.568 379.679 120.641 372.752V370.492H111.445V372.752C111.445 377.674 109.037 383.361 103.526 387.262C98.1622 383.616 95.8997 378.075 95.8997 372.752ZM72.7638 349.566C72.7638 358.789 80.5731 365.424 90.9368 365.388C101.264 365.424 109.073 358.789 109.11 349.566C109.073 340.16 101.264 333.598 90.9368 333.598C80.5731 333.598 72.7638 340.16 72.7638 349.566ZM81.8868 349.566C81.8138 344.425 85.6089 341.399 90.9368 341.399C96.1186 341.399 99.8773 344.425 99.9138 349.566C99.8773 354.56 96.1186 357.695 90.9368 357.659C85.6089 357.695 81.8138 354.56 81.8868 349.566ZM118.014 367.721H127.356V330.244H118.014V367.721Z" fill="white"/>
<path d="M188.735 330.171H179.393V396.667H188.735V362.398H198.515V354.815H188.735V330.171ZM138.96 380.554H144.58C156.294 380.59 165.344 380.335 175.671 378.585L174.649 370.783C165.818 372.315 157.863 372.825 148.229 372.898V343.806H170.124V336.296H138.96V380.554Z" fill="white"/>
<path d="M70.6472 501.808H82.0327L104.293 458.133V449.019H66.998V457.987H92.9073V458.352L70.6472 501.808Z" fill="white"/>
<path d="M134.362 449.019H123.998L110.934 457.331V467.028L123.05 459.445H123.342V501.808H134.362V449.019Z" fill="white"/>
<path d="M175.379 489.121V491.892C175.416 498.198 179.466 503.594 186.984 503.63C194.428 503.594 198.552 498.198 198.588 491.892V489.121C198.552 482.777 194.537 477.418 186.984 477.455C179.576 477.418 175.416 482.814 175.379 489.121ZM148.302 461.706C148.302 467.976 152.353 473.335 159.907 473.299C167.351 473.335 171.475 468.049 171.438 461.706V458.935C171.475 452.555 167.46 447.196 159.907 447.196C152.535 447.196 148.302 452.555 148.302 458.935V461.706ZM151.659 501.808H158.374L194.72 449.019H188.005L151.659 501.808ZM155.746 461.706V458.935C155.783 456.419 156.768 453.722 159.907 453.758C163.154 453.722 163.994 456.383 163.994 458.935V461.706C163.994 464.221 163.045 466.81 159.907 466.81C156.805 466.81 155.783 464.221 155.746 461.706ZM182.824 491.892V489.121C182.824 486.605 183.882 483.944 186.984 483.944C190.231 483.944 191.107 486.605 191.071 489.121V491.892C191.107 494.443 190.122 497.032 186.984 496.995C183.809 497.032 182.824 494.371 182.824 491.892Z" fill="white"/>
<path d="M669.655 376.992H663.732V395.311H680.497V391.802L683.107 395.71C686.821 394.291 689.331 391.677 690.837 388.516C692.292 391.777 694.827 394.366 698.767 395.71L702.08 390.98C696.358 389.139 694.124 384.758 694.149 380.128V376.643H687.725V380.128C687.725 384.235 685.566 388.466 680.497 390.756V376.992H674.574V381.522H669.655V376.992ZM659.265 362.854C659.215 369.176 664.385 373.607 671.412 373.607C677.234 373.607 681.902 370.346 683.132 365.442H690.786V374.503H697.161V350.508H690.786V360.215H683.107C681.852 355.411 677.209 352.225 671.412 352.2C664.385 352.225 659.215 356.631 659.265 362.854ZM665.338 362.854C665.313 359.518 667.823 357.452 671.412 357.427C674.875 357.452 677.36 359.518 677.385 362.854C677.36 366.289 674.875 368.404 671.412 368.429C667.823 368.404 665.313 366.289 665.338 362.854ZM669.655 390.483V386.201H674.574V390.483H669.655Z" fill="white"/>
<path d="M739.122 350.508H732.698V395.909H739.122V372.511H745.848V367.334H739.122V350.508ZM704.891 384.907H708.755C716.811 384.932 723.035 384.758 730.138 383.563L729.435 378.236C723.362 379.282 717.891 379.63 711.265 379.68V359.817H726.323V354.689H704.891V384.907Z" fill="white"/>
<path d="M651.134 467.694H677.134V461.521H661.624V461.322L667.145 455.996C674.624 449.275 676.632 445.915 676.632 441.808C676.632 435.56 671.462 431.154 663.682 431.154C656.028 431.154 650.757 435.66 650.782 442.704H657.96C657.935 439.244 660.168 437.103 663.582 437.128C666.919 437.103 669.354 439.095 669.354 442.306C669.354 445.168 667.522 447.159 664.134 450.37L651.083 462.268L651.134 467.694Z" fill="white"/>
<path d="M695.755 431.154C687.549 431.13 682.002 436.406 682.002 443.65C682.053 450.37 686.871 455.249 693.396 455.249C697.437 455.249 701.026 453.357 702.732 450.171H703.033C703.008 457.365 700.398 461.77 695.454 461.77C692.543 461.77 690.46 460.202 689.833 457.539H682.404C683.132 463.637 688.151 468.192 695.454 468.192C704.589 468.192 710.437 460.974 710.412 448.727C710.412 435.635 703.284 431.179 695.755 431.154ZM689.381 443.451C689.331 439.866 692.091 437.054 695.806 437.029C699.52 437.054 702.23 439.966 702.281 443.401C702.281 446.861 699.445 449.773 695.755 449.773C692.016 449.773 689.381 447.01 689.381 443.451Z" fill="white"/>
<path d="M735.308 459.032V460.924C735.333 465.23 738.119 468.914 743.288 468.939C748.408 468.914 751.244 465.23 751.269 460.924V459.032C751.244 454.701 748.483 451.042 743.288 451.067C738.194 451.042 735.333 454.726 735.308 459.032ZM716.686 440.314C716.686 444.596 719.472 448.254 724.667 448.23C729.786 448.254 732.622 444.645 732.597 440.314V438.423C732.622 434.067 729.862 430.408 724.667 430.408C719.597 430.408 716.686 434.067 716.686 438.423V440.314ZM718.995 467.694H723.613L748.609 431.652H743.991L718.995 467.694ZM721.806 440.314V438.423C721.831 436.705 722.508 434.863 724.667 434.888C726.9 434.863 727.478 436.68 727.478 438.423V440.314C727.478 442.032 726.825 443.799 724.667 443.799C722.534 443.799 721.831 442.032 721.806 440.314ZM740.427 460.924V459.032C740.427 457.315 741.155 455.498 743.288 455.498C745.522 455.498 746.124 457.315 746.099 459.032V460.924C746.124 462.666 745.447 464.434 743.288 464.409C741.105 464.434 740.427 462.617 740.427 460.924Z" fill="white"/>
<path d="M608.901 423.48C608.901 524.565 526.956 606.51 425.871 606.51C324.787 606.51 242.842 524.565 242.842 423.48C242.842 322.396 324.787 240.451 425.871 240.451C526.956 240.451 608.901 322.396 608.901 423.48Z" fill="white"/>
<g filter="url(#filter0_d_329_4009)">
<path d="M622.062 424.677C622.062 534.35 533.422 623.258 424.079 623.258C314.735 623.258 226.095 534.35 226.095 424.677C226.095 315.003 314.735 226.095 424.079 226.095C533.422 226.095 622.062 315.003 622.062 424.677Z" fill="white"/>
</g>
<path opacity="0.05" fill-rule="evenodd" clip-rule="evenodd" d="M424.083 595.874C518.954 595.874 595.862 519.226 595.862 424.677C595.862 330.127 518.954 253.48 424.083 253.48C329.212 253.48 252.303 330.127 252.303 424.677C252.303 519.226 329.212 595.874 424.083 595.874ZM424.083 600.529C521.534 600.529 600.533 521.797 600.533 424.677C600.533 327.556 521.534 248.825 424.083 248.825C326.632 248.825 247.633 327.556 247.633 424.677C247.633 521.797 326.632 600.529 424.083 600.529Z" fill="#454459"/>
<path d="M373.038 391.935H385.845V390.2H375.82V390.065L380.777 384.807C384.22 381.229 385.239 379.576 385.239 377.38C385.239 374.372 382.747 372.041 379.29 372.041C375.792 372.041 373.203 374.372 373.203 377.678H375.076C375.076 375.375 376.715 373.735 379.235 373.748C381.604 373.735 383.394 375.212 383.421 377.38C383.394 379.237 382.333 380.592 379.786 383.343L373.038 390.526V391.935Z" fill="#3D3D3D" fill-opacity="0.8"/>
<path d="M395.926 392.206C400.167 392.206 402.646 388.493 402.646 382.123C402.646 375.795 400.14 372.041 395.926 372.041C391.698 372.041 389.178 375.795 389.178 382.123C389.178 388.493 391.67 392.206 395.926 392.206ZM391.106 382.123C391.092 376.811 392.896 373.735 395.926 373.748C398.928 373.735 400.732 376.811 400.746 382.123C400.732 387.436 398.942 390.471 395.926 390.471C392.882 390.471 391.092 387.436 391.106 382.123Z" fill="#3D3D3D" fill-opacity="0.8"/>
<path d="M406.089 391.935H418.897V390.2H408.871V390.065L413.829 384.807C417.272 381.229 418.291 379.576 418.291 377.38C418.291 374.372 415.798 372.041 412.341 372.041C408.843 372.041 406.254 374.372 406.254 377.678H408.127C408.127 375.375 409.766 373.735 412.286 373.748C414.655 373.735 416.445 375.212 416.473 377.38C416.445 379.237 415.385 380.592 412.837 383.343L406.089 390.526V391.935Z" fill="#3D3D3D" fill-opacity="0.8"/>
<path d="M422.698 391.935H435.505V390.2H425.479V390.065L430.437 384.807C433.88 381.229 434.899 379.576 434.899 377.38C434.899 374.372 432.406 372.041 428.95 372.041C425.452 372.041 422.863 374.372 422.863 377.678H424.736C424.736 375.375 426.375 373.735 428.895 373.748C431.263 373.735 433.054 375.212 433.081 377.38C433.054 379.237 431.993 380.592 429.446 383.343L422.698 390.526V391.935Z" fill="#3D3D3D" fill-opacity="0.8"/>
<path d="M440.821 392.071C441.62 392.084 442.281 391.42 442.281 390.634C442.281 389.834 441.62 389.184 440.821 389.17C440.008 389.184 439.333 389.834 439.333 390.634C439.333 391.42 440.008 392.084 440.821 392.071Z" fill="#3D3D3D" fill-opacity="0.8"/>
<path d="M451.673 392.206C455.914 392.206 458.393 388.493 458.393 382.123C458.393 375.795 455.887 372.041 451.673 372.041C447.445 372.041 444.925 375.795 444.925 382.123C444.925 388.493 447.417 392.206 451.673 392.206ZM446.853 382.123C446.839 376.811 448.643 373.735 451.673 373.748C454.675 373.735 456.479 376.811 456.493 382.123C456.479 387.436 454.689 390.471 451.673 390.471C448.629 390.471 446.839 387.436 446.853 382.123Z" fill="#3D3D3D" fill-opacity="0.8"/>
<path d="M468.171 372.041C464.15 372.014 461.519 374.941 461.533 378.491C461.519 382.191 464.411 384.874 467.895 384.861C470.099 384.874 472.054 383.777 473.074 382.042H473.294C473.28 387.422 471.297 390.471 467.895 390.471C465.513 390.471 464.053 388.994 463.681 386.975H461.726C462.153 390.092 464.494 392.206 467.895 392.206C472.674 392.206 475.139 387.788 475.139 381.283C475.139 374.358 471.641 372.068 468.171 372.041ZM463.433 378.464C463.42 375.876 465.458 373.748 468.171 373.748C470.801 373.748 472.729 375.768 472.936 378.356C473.101 380.877 470.939 383.153 468.171 383.153C465.444 383.153 463.433 381.08 463.433 378.464Z" fill="#3D3D3D" fill-opacity="0.8"/>
<path d="M371.826 411.775H370.091V435.708H371.826V411.775ZM353.345 429.853H364.692V413.835H362.957V420.313H355.08V413.835H353.345V429.853ZM355.08 428.417V421.722H362.957V428.417H355.08Z" fill="#3D3D3D" fill-opacity="0.8"/>
<path d="M396.201 411.775H394.466V429.149H396.201V411.775ZM376.701 425.11L377.417 426.52C384.496 424.324 389.137 419.703 389.15 413.591H377.913V415.055H387.236C386.823 419.635 382.719 423.24 376.701 425.11ZM380.529 435.112H396.89V433.675H382.265V427.766H380.529V435.112Z" fill="#3D3D3D" fill-opacity="0.8"/>
<path d="M407.108 413.672C403.555 413.686 401.076 416.911 401.104 421.939C401.076 426.98 403.555 430.206 407.108 430.206C410.51 430.206 412.92 427.211 413.099 422.481H418.952V435.708H420.659V411.775H418.952V421.072H413.085C412.81 416.545 410.427 413.686 407.108 413.672ZM402.756 421.939C402.743 417.941 404.533 415.204 407.108 415.19C409.67 415.204 411.474 417.941 411.46 421.939C411.474 425.937 409.67 428.688 407.108 428.688C404.533 428.688 402.743 425.937 402.756 421.939Z" fill="#3D3D3D" fill-opacity="0.8"/>
<path d="M447.266 430.938H425.011V432.374H447.266V430.938ZM427.71 425.869H444.456V413.537H442.749V418.172H429.473V413.537H427.71V425.869ZM429.473 424.487V419.581H442.749V424.487H429.473Z" fill="#3D3D3D" fill-opacity="0.8"/>
<path d="M469.934 411.775H468.281V419.039H464.453V412.236H462.8V428.851H464.453V420.503H468.281V429.61H469.934V411.775ZM450.488 415.299H458.008V419.093H450.543V425.923H452.113C455.598 425.91 458.242 425.761 461.505 425.137L461.285 423.728C458.2 424.351 455.584 424.487 452.251 424.487V420.476H459.66V413.862H450.488V415.299ZM454.179 435.112H470.732V433.675H455.914V427.983H454.179V435.112Z" fill="#3D3D3D" fill-opacity="0.8"/>
<path d="M493.318 423.403H478.389V415.515H493.07V414.079H476.682V424.839H493.318V423.403ZM473.762 432.293H496.017V430.829H473.762V432.293Z" fill="#3D3D3D" fill-opacity="0.8"/>
<path d="M356.443 461.023V457.364H362.117V455.9H348.979V457.364H354.763V461.023C354.749 465.129 351.43 469.696 348.125 471.323L349.199 472.678C351.871 471.282 354.501 468.07 355.617 464.479C356.705 467.813 359.17 470.74 361.869 472.081L362.888 470.726C359.542 469.127 356.429 464.899 356.443 461.023ZM365.45 477.313H367.185V464.709H371.371V463.246H367.185V453.407H365.45V477.313Z" fill="#3D3D3D" fill-opacity="0.8"/>
<path d="M379.827 460.806V459.397H384.619V457.96H379.855V454.301H378.174V457.96H373.327V459.397H378.174V460.806C378.147 464.831 375.999 469.1 372.748 470.97L373.823 472.271C376.302 470.78 378.161 467.907 379.014 464.669C379.896 467.718 381.783 470.387 384.261 471.756L385.281 470.455C382.03 468.734 379.813 464.696 379.827 460.806ZM382.857 464.438H386.988V476.012H388.641V454.03H386.988V462.975H382.857V464.438ZM391.863 477.313H393.543V453.407H391.863V477.313Z" fill="#3D3D3D" fill-opacity="0.8"/>
<path d="M424.061 453.407H422.326V458.069H416.652V459.505H422.326V465.82H424.061V453.407ZM404.065 464.465L405.029 465.848C407.893 464.777 410.221 462.595 411.24 459.736C412.3 462.27 414.6 464.248 417.285 465.224L418.249 463.869C414.806 462.731 412.011 459.817 412.025 456.578V454.139H410.372V456.578C410.345 460.223 407.604 463.246 404.065 464.465ZM408.444 468.531H422.353V471.214H408.527V476.96H425.052V475.551H410.207V472.569H424.061V467.121H408.444V468.531Z" fill="#3D3D3D" fill-opacity="0.8"/>
<path d="M450.612 465.766H428.385V467.203H438.769V472.353H440.476V467.203H450.612V465.766ZM431.305 476.743H448.133V475.307H433.04V469.913H431.305V476.743ZM431.305 462.758H447.693V454.572H431.305V462.758ZM433.012 461.375V455.982H445.985V461.375H433.012Z" fill="#3D3D3D" fill-opacity="0.8"/>
<path d="M475.043 472.678H464.769V466.688H463.034V472.678H452.788V474.141H475.043V472.678ZM453.945 466.091L454.689 467.474C458.104 466.728 462.359 464.276 463.902 460.82C465.43 464.262 469.7 466.661 473.17 467.392L473.914 466.01C470.126 465.387 464.769 462.08 464.769 458.123V457.174H473.142V455.684H454.634V457.174H462.979V458.123C462.979 462.08 457.649 465.441 453.945 466.091Z" fill="#3D3D3D" fill-opacity="0.8"/>
<path d="M485.068 460.156V455.548H483.361V460.156C483.333 464.492 480.221 469.073 476.861 470.78L477.99 472.136C480.675 470.672 483.154 467.514 484.228 463.883C485.33 467.311 487.781 470.266 490.439 471.675L491.513 470.293C488.208 468.68 485.041 464.343 485.068 460.156ZM494.13 477.313H495.865V464.763H500.052V463.246H495.865V453.407H494.13V477.313Z" fill="#3D3D3D" fill-opacity="0.8"/>
<defs>
<filter id="filter0_d_329_4009" x="201.095" y="206.095" width="445.966" height="447.163" filterUnits="userSpaceOnUse" color-interpolation-filters="sRGB">
<feFlood flood-opacity="0" result="BackgroundImageFix"/>
<feColorMatrix in="SourceAlpha" type="matrix" values="0 0 0 0 0 0 0 0 0 0 0 0 0 0 0 0 0 0 127 0" result="hardAlpha"/>
<feOffset dy="5"/>
<feGaussianBlur stdDeviation="12.5"/>
<feColorMatrix type="matrix" values="0 0 0 0 0 0 0 0 0 0 0 0 0 0 0 0 0 0 0.1 0"/>
<feBlend mode="normal" in2="BackgroundImageFix" result="effect1_dropShadow_329_4009"/>
<feBlend mode="normal" in="SourceGraphic" in2="effect1_dropShadow_329_4009" result="shape"/>
</filter>
<linearGradient id="paint0_linear_329_4009" x1="558.392" y1="428.953" x2="449.251" y2="-1430.29" gradientUnits="userSpaceOnUse">
<stop stop-color="#4B7AF2"/>
<stop offset="1" stop-color="#4B7AF2" stop-opacity="0"/>
</linearGradient>
<linearGradient id="paint1_linear_329_4009" x1="273.421" y1="419.999" x2="396.494" y2="2513.83" gradientUnits="userSpaceOnUse">
<stop stop-color="#4B7AF2"/>
<stop offset="1" stop-color="#4B7AF2" stop-opacity="0"/>
</linearGradient>
</defs>
</svg>
