<svg width="1920" height="1068" viewBox="0 0 1920 1068" fill="none" xmlns="http://www.w3.org/2000/svg">
<g filter="url(#filter0_d_348_5299)">
<path d="M545 166H252C235.431 166 222 179.431 222 196V341.722C222 358.291 235.431 371.722 252 371.722H545C561.569 371.722 575 358.291 575 341.722V196C575 179.431 561.569 166 545 166Z" fill="white"/>
<path d="M430 370H474.958L479.701 379.458C483.261 386.558 488.183 393.173 494.291 399.067C496.343 401.047 493.573 403.865 490.673 402.745L480.057 398.648C465.491 393.026 451.994 385.79 439.967 377.155L430 370Z" fill="white"/>
</g>
<path d="M275.988 222.18H278.395C278.299 219.172 275.537 216.93 271.695 216.93C267.854 216.93 264.873 219.131 264.887 222.48C264.873 225.16 266.814 226.746 269.918 227.648L272.352 228.305C274.43 228.893 276.262 229.631 276.262 231.559C276.262 233.719 274.211 235.127 271.477 235.113C269.125 235.127 267.061 234.074 266.855 231.859H264.34C264.572 235.141 267.211 237.342 271.477 237.355C276.07 237.342 278.668 234.84 278.668 231.613C278.668 227.908 275.182 226.691 273.062 226.145L271.094 225.598C269.59 225.229 267.279 224.449 267.266 222.371C267.279 220.484 268.988 219.117 271.613 219.117C273.979 219.117 275.783 220.238 275.988 222.18ZM297.918 217.203H295.484V232.652H295.293L284.574 217.203H282.195V237H284.656V221.578H284.848L295.566 237H297.918V217.203ZM313.094 222.18H315.5C315.404 219.172 312.643 216.93 308.801 216.93C304.959 216.93 301.979 219.131 301.992 222.48C301.979 225.16 303.92 226.746 307.023 227.648L309.457 228.305C311.535 228.893 313.367 229.631 313.367 231.559C313.367 233.719 311.316 235.127 308.582 235.113C306.23 235.127 304.166 234.074 303.961 231.859H301.445C301.678 235.141 304.316 237.342 308.582 237.355C313.176 237.342 315.773 234.84 315.773 231.613C315.773 227.908 312.287 226.691 310.168 226.145L308.199 225.598C306.695 225.229 304.385 224.449 304.371 222.371C304.385 220.484 306.094 219.117 308.719 219.117C311.084 219.117 312.889 220.238 313.094 222.18ZM338.934 214.906H336.855V239.215H338.934V214.906ZM318.398 225.406C318.412 230.574 320.463 233.869 323.621 233.855C326.615 233.869 328.652 230.902 328.857 226.172H331.988V237.984H334.039V215.426H331.988V224.395H328.844C328.57 219.814 326.574 216.971 323.621 216.957C320.463 216.971 318.412 220.238 318.398 225.406ZM320.422 225.406C320.395 221.455 321.652 218.98 323.621 218.98C325.604 218.98 326.861 221.455 326.848 225.406C326.861 229.344 325.604 231.832 323.621 231.805C321.652 231.832 320.395 229.344 320.422 225.406ZM350.855 221.441V217.012H348.668V221.441C348.654 225.926 345.838 230.602 342.27 232.352L343.664 234.074C346.426 232.611 348.709 229.494 349.789 225.857C350.869 229.316 353.152 232.215 355.914 233.637L357.199 231.887C353.672 230.273 350.842 225.844 350.855 221.441ZM354.547 224.969H360.316V239.27H362.449V214.906H360.316V223.219H354.547V224.969ZM392.5 214.934H390.34V229.891H392.5V223.602H396.137V221.797H392.5V214.934ZM373.469 227.484L373.715 229.18C378.035 229.152 383.846 229.029 388.891 228.195L388.754 226.691C386.662 226.979 384.393 227.156 382.137 227.279V224.586H386.895V215.973H384.789V218.543H377.324V215.973H375.219V224.586H379.977V227.361C377.652 227.443 375.41 227.471 373.469 227.484ZM374.234 237.301L375.328 238.914C377.666 238.094 379.348 236.494 380.209 234.566C380.947 236.508 382.451 238.244 384.762 239.105C387.059 238.23 388.535 236.453 389.287 234.498C390.121 236.453 391.83 238.08 394.195 238.914L395.289 237.301C392.172 236.289 390.354 233.883 390.34 231.477V230.82H388.262V231.477C388.262 233.473 387.045 235.756 384.721 237.068C382.41 235.77 381.262 233.5 381.262 231.477V230.82H379.184V231.477C379.197 233.883 377.352 236.289 374.234 237.301ZM377.324 222.836V220.266H384.789V222.836H377.324ZM408.797 215.344C403.369 215.344 400.184 216.834 400.184 219.527C400.184 222.289 403.369 223.779 408.797 223.793C414.197 223.779 417.369 222.289 417.383 219.527C417.369 216.834 414.197 215.344 408.797 215.344ZM397.723 227.184H419.871V225.434H397.723V227.184ZM400.402 230.93H414.922V233.145H400.457V238.941H417.766V237.246H402.59V234.73H417.027V229.289H400.402V230.93ZM402.426 219.527C402.398 217.928 404.764 216.971 408.797 216.957C412.83 216.971 415.182 217.928 415.195 219.527C415.182 221.223 412.83 222.152 408.797 222.152C404.764 222.152 402.398 221.223 402.426 219.527ZM445.055 215.453H443.059V238.012H445.055V226.637H448.008V239.215H450.059V214.906H448.008V224.859H445.055V215.453ZM429.688 232.871H430.645C431.684 232.885 433.27 232.857 435.32 232.406L435.129 230.574C433.803 230.902 432.6 231.012 431.684 231.053V219.773H434.965V217.996H429.688V232.871ZM436.031 232.871H437.016C438.424 232.885 440.105 232.857 442.129 232.324L441.938 230.492C440.475 230.916 439.121 231.025 437.973 231.053V219.773H441.418V217.996H436.031V232.871ZM472.809 222.289H458.289V215.809H456.156V224.012H472.809V222.289ZM453.121 229.07H475.379V227.32H453.121V229.07ZM456.02 238.613H472.945V236.836H458.152V231.559H456.02V238.613ZM504.555 214.906H502.395V222.945H494.82V224.723H502.395V239.27H504.555V214.906ZM485.715 233.363H487.574C491.512 233.363 494.93 233.158 498.812 232.352L498.539 230.574C494.889 231.326 491.594 231.518 487.875 231.559V217.641H485.715V233.363ZM530.805 229.043H508.547V230.82H518.555V239.215H520.66V230.82H530.805V229.043ZM511.418 225.734H527.906V216.273H511.418V225.734ZM513.523 224.039V218.023H525.773V224.039H513.523ZM284.82 256.906H282.742V281.215H284.82V256.906ZM264.285 267.406C264.299 272.574 266.35 275.869 269.508 275.855C271.586 275.869 273.199 274.447 274.061 272H277.93V279.984H279.98V257.426H277.93V262.812H274.061C273.186 260.379 271.586 258.971 269.508 258.957C266.35 258.971 264.299 262.238 264.285 267.406ZM266.281 267.406C266.268 263.455 267.512 260.98 269.508 260.98C271.49 260.98 272.762 263.455 272.762 267.406C272.762 271.344 271.49 273.832 269.508 273.805C267.512 273.832 266.268 271.344 266.281 267.406ZM274.512 264.59H277.93V270.195H274.525C274.676 269.348 274.758 268.404 274.758 267.406C274.758 266.395 274.676 265.451 274.512 264.59ZM296.551 273.422V272.055H294.5V273.422C294.473 275.732 292.627 278.344 289.551 279.465L290.617 281.078C292.955 280.189 294.637 278.48 295.512 276.525C296.236 278.576 297.713 280.381 300.051 281.297C302.334 280.312 303.824 278.426 304.59 276.457C305.424 278.494 307.119 280.203 309.512 281.078L310.633 279.465C307.502 278.398 305.643 275.91 305.656 273.422V272.055H303.551V273.422C303.537 275.281 302.334 277.729 300.01 279.164C297.713 277.852 296.564 275.582 296.551 273.422ZM288.84 269.73H295.484V258.438H293.652V262.32H290.672V258.438H288.84V269.73ZM290.672 268.008V264.043H293.652V268.008H290.672ZM297.016 269.73H303.496V264.863H306.641V271.207H308.773V256.906H306.641V263.059H303.496V258.438H301.719V262.32H298.848V258.438H297.016V269.73ZM298.848 268.008V264.043H301.719V268.008H298.848ZM332.043 264.289H317.523V257.809H315.391V266.012H332.043V264.289ZM312.355 271.07H334.613V269.32H312.355V271.07ZM315.254 280.613H332.18V278.836H317.387V273.559H315.254V280.613ZM357.391 256.906H355.312V281.215H357.391V256.906ZM337.539 275.363H339.07C342.98 275.35 345.359 275.227 348.176 274.652L347.957 272.82C345.346 273.408 343.131 273.531 339.617 273.559V261.691H346.699V259.914H337.539V275.363ZM345.059 268.008H350.363V279.957H352.414V257.508H350.363V266.203H345.059V268.008ZM364.773 277.168H362.121L360.617 284.605H362.641L364.773 277.168Z" fill="#3D3D3D"/>
<path d="M395.016 256.906H392.91V269.512H395.016V256.906ZM375.137 267.57L376.258 269.266C379.143 268.227 381.426 265.998 382.52 263.168C383.613 265.793 385.869 267.83 388.727 268.801L389.793 267.133C386.184 265.943 383.559 262.908 383.586 259.477V257.617H381.398V259.477C381.398 263.045 378.801 266.299 375.137 267.57ZM379.238 272.465H392.91V274.898H379.293V280.941H395.918V279.191H381.398V276.566H395.043V270.742H379.238V272.465ZM419.953 256.906H417.902V281.215H419.953V256.906ZM398.871 274.734L400.238 276.348C402.672 274.83 404.436 271.973 405.311 268.623C406.158 271.713 407.854 274.338 410.246 275.773L411.559 274.188C408.209 272.246 406.309 268.049 406.309 263.852V261.555H410.766V259.777H399.555V261.555H404.23V263.852C404.244 268.268 402.262 272.711 398.871 274.734ZM408.906 267.434H413.008V279.957H415.031V257.508H413.008V265.684H408.906V267.434ZM445.629 276.402H435.484V271.809H443.387V270.031H428.293V266.066H442.812V258.711H426.105V260.488H440.707V264.316H426.16V271.809H433.379V276.402H423.371V278.207H445.629V276.402ZM473.41 256.906H471.277V281.215H473.41V268.609H477.348V266.805H473.41V256.906ZM454.762 274.898L455.965 276.594C463.881 272.684 467.107 266.408 467.121 259.531H455.883V261.336H464.947C464.455 267.092 461.037 271.781 454.762 274.898ZM501.055 276.32H490.91V271.07H498.32V258.629H496.215V263.031H483.582V258.629H481.422V271.07H488.805V276.32H478.797V278.098H501.055V276.32ZM483.582 269.32V264.781H496.215V269.32H483.582ZM523.039 256.906H520.906V281.215H523.039V256.906ZM504.582 274.953H506.551C510.447 274.953 514.289 274.652 518.609 273.75L518.309 271.918C514.234 272.779 510.406 273.066 506.688 273.094V259.312H504.582V274.953ZM271.23 303.746V300.438H269.18V303.746C269.166 306.453 267.211 309.598 264.012 310.992L265.188 312.66C267.58 311.621 269.33 309.557 270.219 307.246C271.094 309.338 272.775 311.074 275.113 311.977L276.234 310.336C273.117 309.16 271.244 306.439 271.23 303.746ZM268.441 318.84C268.414 321.561 271.531 323.16 276.59 323.16C281.621 323.16 284.752 321.561 284.766 318.84C284.752 316.092 281.621 314.479 276.59 314.492C271.531 314.479 268.414 316.092 268.441 318.84ZM270.574 318.84C270.547 317.158 272.857 316.146 276.59 316.133C280.281 316.146 282.605 317.158 282.633 318.84C282.605 320.494 280.281 321.506 276.59 321.492C272.857 321.506 270.547 320.494 270.574 318.84ZM277.328 313.18H279.352V307.246H282.578V313.945H284.629V298.934H282.578V305.469H279.352V299.398H277.328V313.18ZM307.188 298.906H305.055V313.18H307.188V306.918H310.852V305.086H307.188V298.906ZM288.156 311.238L289.031 312.906C296.209 311.006 300.502 306.617 300.516 300.465H289.25V302.242H298.232C297.795 306.371 294.117 309.625 288.156 311.238ZM291.273 316.051H305.055V323.215H307.188V314.301H291.273V316.051ZM334.641 318.32H324.496V313.07H331.906V300.629H329.801V305.031H317.168V300.629H315.008V313.07H322.391V318.32H312.383V320.098H334.641V318.32ZM317.168 311.32V306.781H329.801V311.32H317.168ZM355.395 298.906H353.262V323.27H355.395V310.336H359.469V308.531H355.395V298.906ZM337.648 317.172H339.562C344.184 317.172 347.369 317.035 351.184 316.352L350.91 314.492C347.287 315.162 344.184 315.354 339.781 315.367V303.062H348.996V301.285H337.648V317.172ZM372.895 299.316H370.762V307.301H377.789V309.707H367.809V311.457H389.957V309.707H379.895V307.301H387.059V299.316H384.926V301.641H372.895V299.316ZM370.488 315.121H385.008V317.281H370.543V322.941H387.852V321.246H372.676V318.867H387.113V313.48H370.488V315.121ZM372.895 305.633V303.281H384.926V305.633H372.895ZM412.816 298.906H410.766V323.215H412.816V298.906ZM392.035 316.406L393.293 317.965C396.684 315.969 399.035 313.467 400.498 310.637H405.652V321.984H407.703V299.562H405.652V308.887H401.291C402.125 306.727 402.508 304.416 402.508 302.023H393.074V303.801H400.375C399.965 308.887 397.312 313.275 392.035 316.406ZM428.074 313.18H426.051V322.887H434.5V313.18H432.504V316.215H428.074V313.18ZM423.617 305.578C423.604 308.914 426.229 311.184 429.934 311.184C433.229 311.184 435.73 309.297 436.154 306.426H441.227V311.785H443.387V298.906H441.227V304.648H436.141C435.676 301.846 433.201 300 429.934 300C426.229 300 423.604 302.256 423.617 305.578ZM425.668 305.578C425.668 303.363 427.432 301.805 429.934 301.805C432.381 301.805 434.145 303.363 434.145 305.578C434.145 307.807 432.381 309.393 429.934 309.406C427.432 309.393 425.668 307.807 425.668 305.578ZM428.074 321.191V317.855H432.504V321.191H428.074ZM434.828 321.438L435.949 323.078C438.096 322.162 439.586 320.439 440.352 318.457C441.104 320.467 442.566 322.189 444.809 323.078L445.93 321.438C442.963 320.344 441.418 317.65 441.445 315.094V313.016H439.312V315.094C439.299 317.555 437.754 320.221 434.828 321.438ZM455.801 315.203V313.727H453.75V315.203C453.723 317.555 451.877 320.193 448.801 321.301L449.867 322.914C452.191 322.025 453.859 320.316 454.734 318.361C455.473 320.412 456.977 322.203 459.301 323.105C461.57 322.148 463.061 320.262 463.826 318.279C464.646 320.33 466.342 322.025 468.762 322.914L469.883 321.301C466.711 320.248 464.893 317.719 464.906 315.203V313.727H462.801V315.203C462.787 317.076 461.598 319.551 459.26 321.014C456.949 319.674 455.787 317.391 455.801 315.203ZM447.844 305.988C447.844 309.338 450.496 311.676 454.133 311.676C457.387 311.676 459.916 309.707 460.326 306.809H465.426V312.797H467.586V298.906H465.426V305.031H460.312C459.834 302.215 457.332 300.287 454.133 300.301C450.496 300.287 447.844 302.652 447.844 305.988ZM449.922 305.988C449.895 303.732 451.686 302.105 454.133 302.133C456.525 302.105 458.316 303.732 458.316 305.988C458.316 308.244 456.525 309.885 454.133 309.898C451.686 309.885 449.895 308.244 449.922 305.988ZM478.168 300.793C474.572 300.807 472.057 304.102 472.07 309.27C472.057 314.451 474.572 317.732 478.168 317.719C481.559 317.732 483.992 314.752 484.225 309.98H489.652V323.27H491.785V298.906H489.652V308.203H484.197C483.869 303.65 481.477 300.807 478.168 300.793ZM474.121 309.27C474.135 305.318 475.775 302.721 478.168 302.707C480.547 302.721 482.215 305.318 482.215 309.27C482.215 313.221 480.547 315.818 478.168 315.805C475.775 315.818 474.135 313.221 474.121 309.27ZM518.09 318.293H512.566V311.676C514.576 310.596 515.793 308.873 515.793 306.699C515.793 302.939 512.102 300.465 506.906 300.438C501.711 300.465 498.02 302.939 498.02 306.699C498.02 308.914 499.277 310.664 501.355 311.744V318.293H495.832V320.098H518.09V318.293ZM500.098 306.699C500.084 303.979 502.914 302.188 506.906 302.215C510.857 302.188 513.715 303.979 513.715 306.699C513.715 309.42 510.857 311.238 506.906 311.238C502.914 311.238 500.084 309.42 500.098 306.699ZM503.461 318.293V312.523C504.5 312.797 505.662 312.934 506.906 312.934C508.178 312.934 509.354 312.783 510.406 312.51V318.293H503.461Z" fill="#4B7AF2"/>
<g filter="url(#filter1_d_348_5299)">
<path d="M592.312 700H204.688C182.769 700 165 715.408 165 734.415V901.585C165 920.592 182.769 936 204.688 936H592.312C614.231 936 632 920.592 632 901.585V734.415C632 715.408 614.231 700 592.312 700Z" fill="white"/>
<path d="M430 936H474.958L479.701 945.458C483.261 952.558 488.183 959.173 494.291 965.067C496.343 967.047 493.573 969.865 490.673 968.745L480.057 964.648C465.491 959.026 451.994 951.79 439.967 943.155L430 936Z" fill="white"/>
<path d="M214.246 755.393H211.656V774.219H213.516C217.118 774.202 220.438 774.053 224.373 773.223L224.008 770.965C220.472 771.712 217.45 771.895 214.246 771.928V755.393ZM219.924 764.291H226.664V780.195H229.154V752.902H226.664V762.133H219.924V764.291ZM232.973 781.689H235.463V752.172H232.973V781.689ZM263.918 752.172H261.295V781.756H263.918V752.172ZM241.307 774.617H255.252V754.695H252.695V762.498H243.896V754.695H241.307V774.617ZM243.896 772.426V764.59H252.695V772.426H243.896ZM291.809 752.172H289.219V781.689H291.809V766.383H296.59V764.191H291.809V752.172ZM269.164 774.02L270.625 776.078C280.237 771.33 284.155 763.71 284.172 755.359H270.525V757.551H281.532C280.935 764.54 276.784 770.234 269.164 774.02ZM329.959 752.172H327.369V767.213H329.959V760.771H334.408V758.58H329.959V752.172ZM307.447 759.809C307.431 763.693 310.685 766.366 315.117 766.383C319.566 766.366 322.787 763.693 322.787 759.809C322.787 755.94 319.566 753.284 315.117 753.268C310.685 753.284 307.431 755.94 307.447 759.809ZM310.004 759.809C309.987 757.252 312.162 755.426 315.117 755.459C318.056 755.426 320.247 757.252 320.23 759.809C320.247 762.398 318.056 764.258 315.117 764.258C312.162 764.258 309.987 762.398 310.004 759.809ZM311.133 770.699H327.369V773.82H311.199V781.291H331.055V779.199H313.756V775.812H329.959V768.607H311.133V770.699ZM360.705 752.172H358.115V758.912H352.205V761.104H358.115V766.98H351.973V769.172H358.115V781.756H360.705V752.172ZM337.297 757.02H347.723V763.229H337.396V774.85H339.588C344.303 774.85 348.088 774.684 352.803 773.953L352.57 771.762C348.088 772.459 344.419 772.625 339.986 772.625V765.354H350.279V754.861H337.297V757.02ZM380.793 755.857V755.791H390.156V753.666H368.109V755.791H377.406V755.857C377.423 759.493 372.509 762.448 367.312 763.162L368.275 765.221C373.057 764.523 377.489 762.149 379.1 758.696C380.693 762.149 385.159 764.523 389.924 765.221L390.953 763.162C385.724 762.448 380.776 759.493 380.793 755.857ZM365.619 769.537H378.037V775.58H380.627V769.537H392.646V767.379H365.619V769.537ZM369.072 781.059H389.625V778.867H371.695V772.625H369.072V781.059ZM428.041 752.205H425.418V757.717H418.528C418.777 756.671 418.91 755.559 418.91 754.396H405.463V756.588H416.071C415.557 761.701 411.091 765.702 403.969 767.811L405.064 769.869C411.39 767.993 415.938 764.557 417.881 759.809H425.418V763.793H417.582V765.951H425.418V769.936H428.041V752.205ZM408.518 775.879C408.501 779.415 412.336 781.557 418.379 781.557C424.355 781.557 428.207 779.415 428.207 775.879C428.207 772.359 424.355 770.234 418.379 770.234C412.336 770.234 408.501 772.359 408.518 775.879ZM411.074 775.879C411.091 773.654 413.93 772.31 418.379 772.326C422.762 772.31 425.601 773.654 425.617 775.879C425.601 778.104 422.762 779.448 418.379 779.432C413.93 779.448 411.091 778.104 411.074 775.879ZM459.982 775.846H447.664V770.268H457.26V768.109H438.932V763.295H456.562V754.363H436.275V756.521H454.006V761.17H436.342V770.268H445.107V775.846H432.955V778.037H459.982V775.846ZM489.367 775.846H477.049V770.268H486.645V768.109H468.316V763.295H485.947V754.363H465.66V756.521H483.391V761.17H465.727V770.268H474.492V775.846H462.34V778.037H489.367V775.846ZM523.334 752.139H520.744V768.707H523.334V761.734H527.783V759.576H523.334V752.139ZM500.291 767.18L501.287 769.271C510.036 766.931 515.282 761.535 515.299 754.064H501.619V756.223H512.46C511.929 761.236 507.513 765.188 500.291 767.18ZM501.52 779.432L502.848 781.357C505.637 780.312 507.646 778.236 508.691 775.829C509.555 778.336 511.348 780.527 514.236 781.623C517.025 780.461 518.802 778.17 519.715 775.763C520.711 778.253 522.753 780.312 525.691 781.357L527.02 779.432C523.201 778.153 520.993 775.099 521.01 772.027V769.836H518.453V772.027C518.437 774.302 517.042 777.307 514.17 779.1C511.364 777.456 509.986 774.667 509.986 772.027V769.836H507.529V772.027C507.513 774.883 505.222 778.054 501.52 779.432ZM553.516 761.137H535.885V753.268H533.295V763.229H553.516V761.137ZM529.609 769.371H556.637V767.246H529.609V769.371ZM533.129 780.959H553.682V778.801H535.719V772.393H533.129V780.959ZM584.295 752.172H581.771V781.689H584.295V752.172ZM560.189 774.584H562.049C566.797 774.567 569.686 774.418 573.105 773.721L572.84 771.496C569.669 772.21 566.979 772.359 562.713 772.393V757.982H571.312V755.824H560.189V774.584ZM569.32 765.652H575.762V780.162H578.252V752.902H575.762V763.461H569.32V765.652ZM219.492 815.59H217.234V823.376C214.545 823.459 211.955 823.459 209.93 823.459L210.229 825.684C214.445 825.65 220.92 825.567 226.1 824.588L225.9 822.695C223.941 822.978 221.717 823.16 219.492 823.276V815.59ZM210.66 808.783H214.246C214.213 810.892 214.08 813.963 213.018 818.246L215.375 818.578C216.587 813.614 216.554 810.111 216.57 807.986V806.625H210.66V808.783ZM218.064 808.783H222.613V808.816C222.597 811.24 222.597 814.179 221.949 818.246L224.24 818.578C224.904 814.461 224.871 811.307 224.871 808.816V806.625H218.064V808.783ZM227.162 831.229H229.619V817.648H232.939V832.689H235.43V803.172H232.939V815.49H229.619V803.836H227.162V831.229ZM271.82 811.107H254.322V806.492H271.521V804.334H251.699V813.199H260.266V816.055H248.113V818.18H275.008V816.055H262.855V813.199H271.82V811.107ZM251.367 822.695H268.998V825.352H251.434V832.357H272.451V830.266H254.023V827.277H271.555V820.703H251.367V822.695ZM285.4 805.463C281.018 805.479 277.946 809.48 277.963 815.756C277.946 822.048 281.018 826.032 285.4 826.016C289.75 826.032 292.838 822.048 292.871 815.756C292.838 809.48 289.75 805.479 285.4 805.463ZM280.42 815.756C280.437 810.958 282.479 807.804 285.4 807.787C288.355 807.804 290.348 810.958 290.348 815.756C290.348 820.554 288.355 823.708 285.4 823.691C282.479 823.708 280.437 820.554 280.42 815.756ZM297.752 832.689H300.342V817.217H305.289V814.959H300.342V803.172H297.752V832.689ZM317.275 811.107V805.729H314.619V811.107C314.603 816.553 311.183 822.23 306.85 824.355L308.543 826.447C311.896 824.671 314.669 820.886 315.98 816.47C317.292 820.67 320.064 824.189 323.418 825.916L324.979 823.791C320.695 821.832 317.259 816.453 317.275 811.107ZM321.758 815.391H328.764V832.756H331.354V803.172H328.764V813.266H321.758V815.391ZM367.877 803.172H365.254V824.787H367.877V814.361H372.326V812.17H367.877V803.172ZM344.834 819.275L345.963 821.367C354.479 818.711 359.908 813.066 359.908 805.463H346.062V807.654H357.069C356.521 812.867 351.923 817.067 344.834 819.275ZM349.383 832.059H369.238V829.867H351.973V822.596H349.383V832.059ZM407.09 803.172H404.5V818.279H407.09V803.172ZM383.217 816.719L384.18 818.91C392.912 816.868 398.241 812.17 398.258 804.633H384.711V806.791H395.402C394.938 811.539 390.621 815.075 383.217 816.719ZM387.898 821.766H404.5V824.82H387.965V832.424H408.152V830.332H390.555V826.812H407.09V819.674H387.898V821.766ZM436.441 803.172H433.818V832.756H436.441V803.172ZM413.199 815.756C413.216 822.048 416.337 826.032 420.736 826.016C425.119 826.032 428.29 822.048 428.273 815.756C428.29 809.48 425.119 805.479 420.736 805.463C416.337 805.479 413.216 809.48 413.199 815.756ZM415.723 815.756C415.723 810.958 417.781 807.804 420.736 807.787C423.708 807.804 425.75 810.958 425.75 815.756C425.75 820.554 423.708 823.708 420.736 823.691C417.781 823.708 415.723 820.554 415.723 815.756ZM456.529 805.994H442.982V825.451H445.24C450.901 825.451 454.504 825.252 458.854 824.422L458.521 822.264C454.438 823.061 450.935 823.243 445.605 823.227V808.186H456.529V805.994ZM454.77 816.088H463.369V832.756H465.992V803.172H463.369V813.93H454.77V816.088ZM493.717 803.172H491.127V832.756H493.717V817.117H498.664V814.926H493.717V803.172ZM472.035 808.086H482.859V814.328H472.102V825.617H474.459C480.153 825.584 484.088 825.368 488.736 824.521L488.471 822.363C484.005 823.193 480.17 823.409 474.691 823.393V816.486H485.449V805.928H472.035V808.086ZM523.6 805.098H503.645V807.256H521.01V807.688C521.01 810.443 521.01 813.531 520.113 817.781H500.258V819.939H512.344V832.756H514.967V819.939H527.152V817.781H522.753C523.6 813.548 523.6 810.477 523.6 807.688V805.098ZM556.67 826.713H549.963V818.678C552.403 817.366 553.881 815.274 553.881 812.635C553.881 808.069 549.398 805.064 543.09 805.031C536.781 805.064 532.299 808.069 532.299 812.635C532.299 815.324 533.826 817.449 536.35 818.761V826.713H529.643V828.904H556.67V826.713ZM534.822 812.635C534.806 809.331 538.242 807.156 543.09 807.189C547.888 807.156 551.357 809.331 551.357 812.635C551.357 815.938 547.888 818.146 543.09 818.146C538.242 818.146 534.806 815.938 534.822 812.635ZM538.906 826.713V819.707C540.168 820.039 541.579 820.205 543.09 820.205C544.634 820.205 546.062 820.022 547.34 819.69V826.713H538.906Z" fill="#3D3D3D"/>
<path d="M233.271 854.172H230.682V869.213H233.271V862.771H237.721V860.58H233.271V854.172ZM210.76 861.809C210.743 865.693 213.997 868.366 218.43 868.383C222.879 868.366 226.1 865.693 226.1 861.809C226.1 857.94 222.879 855.284 218.43 855.268C213.997 855.284 210.743 857.94 210.76 861.809ZM213.316 861.809C213.3 859.252 215.475 857.426 218.43 857.459C221.368 857.426 223.56 859.252 223.543 861.809C223.56 864.398 221.368 866.258 218.43 866.258C215.475 866.258 213.3 864.398 213.316 861.809ZM214.445 872.699H230.682V875.82H214.512V883.291H234.367V881.199H217.068V877.812H233.271V870.607H214.445V872.699ZM263.254 857.16H242.436V859.318H260.631V860.115C260.614 863.651 260.614 867.785 259.502 873.43L262.158 873.729C263.221 867.785 263.221 863.734 263.254 860.115V857.16ZM239.58 879.506H266.475V877.348H252.695V866.789H250.139V877.348H239.58V879.506ZM295.992 877.746H283.674V871.371H292.672V856.264H290.115V861.609H274.775V856.264H272.152V871.371H281.117V877.746H268.965V879.904H295.992V877.746ZM274.775 869.246V863.734H290.115V869.246H274.775ZM322.688 854.172H320.098V883.689H322.688V854.172ZM300.275 876.086H302.666C307.397 876.086 312.062 875.721 317.309 874.625L316.943 872.4C311.996 873.446 307.348 873.795 302.832 873.828V857.094H300.275V876.086ZM346.826 863.236V859.385H353.865V857.227H337.23V859.385H344.203V863.236C344.187 868.35 340.501 873.928 336.268 875.953L337.828 878.012C341.198 876.318 344.187 872.566 345.564 868.233C346.942 872.317 349.914 875.721 353.367 877.281L354.828 875.223C350.479 873.347 346.843 868.25 346.826 863.236ZM357.982 883.689H360.605V854.172H357.982V883.689ZM392.646 869.412H365.619V871.57H392.646V869.412ZM369.039 856.994H386.537V859.916H369.139V866.855H389.791V864.83H371.729V861.875H389.16V854.902H369.039V856.994ZM369.305 883.291H389.16V874.26H369.305V883.291ZM371.861 881.166V876.385H386.604V881.166H371.861ZM419.408 854.172H416.818V869.279H419.408V854.172ZM395.535 867.719L396.498 869.91C405.23 867.868 410.56 863.17 410.576 855.633H397.029V857.791H407.721C407.256 862.539 402.939 866.075 395.535 867.719ZM400.217 872.766H416.818V875.82H400.283V883.424H420.471V881.332H402.873V877.812H419.408V870.674H400.217V872.766ZM448.76 854.172H446.137V883.756H448.76V854.172ZM425.518 866.756C425.534 873.048 428.655 877.032 433.055 877.016C437.438 877.032 440.608 873.048 440.592 866.756C440.608 860.48 437.438 856.479 433.055 856.463C428.655 856.479 425.534 860.48 425.518 866.756ZM428.041 866.756C428.041 861.958 430.1 858.804 433.055 858.787C436.026 858.804 438.068 861.958 438.068 866.756C438.068 871.554 436.026 874.708 433.055 874.691C430.1 874.708 428.041 871.554 428.041 866.756ZM472.334 873.994V872.367H469.811V873.994C469.777 876.816 467.536 879.971 463.801 881.365L465.129 883.291C467.951 882.229 469.977 880.17 471.039 877.796C471.919 880.27 473.745 882.428 476.617 883.523C479.34 882.378 481.149 880.104 482.062 877.713C483.092 880.187 485.15 882.245 488.105 883.291L489.4 881.365C485.615 880.054 483.374 877.032 483.391 873.994V872.367H480.834V873.994C480.851 876.269 479.356 879.224 476.534 880.967C473.729 879.373 472.317 876.601 472.334 873.994ZM463.037 862.838C463.021 866.889 466.291 869.678 470.773 869.678C475.256 869.678 478.493 866.889 478.51 862.838C478.493 858.721 475.256 855.915 470.773 855.932C466.291 855.915 463.021 858.721 463.037 862.838ZM465.594 862.838C465.561 860.082 467.735 858.123 470.773 858.156C473.778 858.123 475.953 860.082 475.953 862.838C475.953 865.577 473.778 867.503 470.773 867.52C467.735 867.503 465.561 865.577 465.594 862.838ZM484.121 871.072H486.711V854.205H484.121V871.072ZM501.885 873.961V872.168H499.395V873.961C499.361 876.816 497.12 880.021 493.385 881.365L494.68 883.324C497.502 882.245 499.527 880.17 500.59 877.796C501.486 880.286 503.312 882.461 506.135 883.557C508.891 882.395 510.7 880.104 511.63 877.696C512.626 880.187 514.685 882.245 517.623 883.324L518.984 881.365C515.133 880.087 512.925 877.016 512.941 873.961V872.168H510.385V873.961C510.368 876.235 508.924 879.24 506.085 881.017C503.279 879.39 501.868 876.617 501.885 873.961ZM492.223 862.771C492.223 866.839 495.443 869.678 499.859 869.678C503.811 869.678 506.882 867.287 507.38 863.768H513.572V871.039H516.195V854.172H513.572V861.609H507.363C506.782 858.189 503.744 855.849 499.859 855.865C495.443 855.849 492.223 858.721 492.223 862.771ZM494.746 862.771C494.713 860.032 496.888 858.057 499.859 858.09C502.765 858.057 504.939 860.032 504.939 862.771C504.939 865.511 502.765 867.503 499.859 867.52C496.888 867.503 494.713 865.511 494.746 862.771ZM529.045 856.463C524.679 856.479 521.624 860.48 521.641 866.756C521.624 873.048 524.679 877.032 529.045 877.016C533.162 877.032 536.117 873.413 536.399 867.619H542.99V883.756H545.58V854.172H542.99V865.461H536.366C535.968 859.933 533.062 856.479 529.045 856.463ZM524.131 866.756C524.147 861.958 526.14 858.804 529.045 858.787C531.934 858.804 533.959 861.958 533.959 866.756C533.959 871.554 531.934 874.708 529.045 874.691C526.14 874.708 524.147 871.554 524.131 866.756ZM577.521 877.713H570.814V869.678C573.255 868.366 574.732 866.274 574.732 863.635C574.732 859.069 570.25 856.064 563.941 856.031C557.633 856.064 553.15 859.069 553.15 863.635C553.15 866.324 554.678 868.449 557.201 869.761V877.713H550.494V879.904H577.521V877.713ZM555.674 863.635C555.657 860.331 559.094 858.156 563.941 858.189C568.739 858.156 572.209 860.331 572.209 863.635C572.209 866.938 568.739 869.146 563.941 869.146C559.094 869.146 555.657 866.938 555.674 863.635ZM559.758 877.713V870.707C561.02 871.039 562.431 871.205 563.941 871.205C565.485 871.205 566.913 871.022 568.191 870.69V877.713H559.758Z" fill="#4B7AF2"/>
</g>
<g filter="url(#filter2_d_348_5299)">
<path d="M1753.31 225H1365.69C1343.77 225 1326 240.408 1326 259.415V426.585C1326 445.592 1343.77 461 1365.69 461H1753.31C1775.23 461 1793 445.592 1793 426.585V259.415C1793 240.408 1775.23 225 1753.31 225Z" fill="white"/>
<path d="M1376.33 279.617H1383.9V301H1386.92V279.617H1394.46V276.961H1376.33V279.617ZM1399.54 276.961H1396.38L1405.18 301H1408.34L1417.13 276.961H1413.98L1406.88 297.115H1406.61L1399.54 276.961ZM1444.23 274.172H1441.71V303.689H1444.23V274.172ZM1419.29 286.922C1419.31 293.197 1421.8 297.198 1425.63 297.182C1429.27 297.198 1431.74 293.596 1431.99 287.852H1435.79V302.195H1438.29V274.803H1435.79V285.693H1431.98C1431.64 280.132 1429.22 276.679 1425.63 276.662C1421.8 276.679 1419.31 280.646 1419.29 286.922ZM1421.75 286.922C1421.72 282.124 1423.24 279.119 1425.63 279.119C1428.04 279.119 1429.57 282.124 1429.55 286.922C1429.57 291.703 1428.04 294.725 1425.63 294.691C1423.24 294.725 1421.72 291.703 1421.75 286.922ZM1458.71 282.107V276.729H1456.05V282.107C1456.03 287.553 1452.61 293.23 1448.28 295.355L1449.97 297.447C1453.33 295.671 1456.1 291.886 1457.41 287.47C1458.72 291.67 1461.49 295.189 1464.85 296.916L1466.41 294.791C1462.12 292.832 1458.69 287.453 1458.71 282.107ZM1463.19 286.391H1470.19V303.756H1472.78V274.172H1470.19V284.266H1463.19V286.391ZM1501.57 283.137H1483.94V275.268H1481.35V285.229H1501.57V283.137ZM1477.66 291.371H1504.69V289.246H1477.66V291.371ZM1481.18 302.959H1501.74V300.801H1483.77V294.393H1481.18V302.959ZM1530.22 276.43H1516.88V289.545H1530.22V276.43ZM1518.47 301.498L1519.5 303.557C1523.88 302.743 1527.95 300.502 1529.76 297.099C1531.52 300.502 1535.57 302.743 1539.95 303.557L1541.02 301.498C1535.79 300.618 1531 297.53 1531.02 293.264V292.367H1528.43V293.264C1528.43 297.53 1523.67 300.618 1518.47 301.498ZM1519.43 287.42V278.588H1527.63V287.42H1519.43ZM1536.1 293.828H1538.69V284.465H1543.14V282.273H1538.69V274.172H1536.1V293.828ZM1555.62 279.053V278.289H1562.43V276.164H1546.1V278.289H1553V279.053C1552.99 283.104 1549.81 286.739 1545.37 288.15L1546.73 290.209C1550.25 289.014 1553.04 286.457 1554.35 283.187C1555.67 286.241 1558.45 288.615 1561.9 289.711L1563.23 287.652C1558.83 286.324 1555.64 282.904 1555.62 279.053ZM1550.25 303.291H1569.37V291.604H1566.78V295.189H1552.84V291.604H1550.25V303.291ZM1552.84 301.166V297.281H1566.78V301.166H1552.84ZM1566.78 290.143H1569.37V274.172H1566.78V290.143ZM1598.72 274.172H1596.1V303.756H1598.72V274.172ZM1575.48 286.756C1575.5 293.048 1578.62 297.032 1583.02 297.016C1587.4 297.032 1590.57 293.048 1590.55 286.756C1590.57 280.48 1587.4 276.479 1583.02 276.463C1578.62 276.479 1575.5 280.48 1575.48 286.756ZM1578 286.756C1578 281.958 1580.06 278.804 1583.02 278.787C1585.99 278.804 1588.03 281.958 1588.03 286.756C1588.03 291.554 1585.99 294.708 1583.02 294.691C1580.06 294.708 1578 291.554 1578 286.756ZM1628.84 274.205H1626.35V281.842H1622.2V274.77H1619.77V291.537H1622.2V284H1626.35V291.77H1628.84V274.205ZM1605.06 278.355H1613.76V282.207H1605.13V290.408H1607.06C1611.34 290.441 1614.48 290.292 1618.31 289.578L1618.01 287.453C1614.53 288.167 1611.54 288.333 1607.65 288.35V284.199H1616.25V276.264H1605.06V278.355ZM1605.63 301.365L1606.96 303.357C1609.76 302.312 1611.8 300.27 1612.87 297.912C1613.75 300.353 1615.56 302.494 1618.41 303.557C1621.17 302.411 1622.96 300.153 1623.87 297.763C1624.89 300.236 1626.95 302.295 1629.9 303.324L1631.2 301.365C1627.41 300.137 1625.17 297.148 1625.19 294.127V292.799H1622.63V294.127C1622.6 296.368 1621.17 299.307 1618.36 301.033C1615.56 299.439 1614.18 296.7 1614.2 294.127V292.799H1611.67V294.16C1611.66 296.933 1609.36 300.037 1605.63 301.365ZM1657.03 283.137H1639.4V275.268H1636.81V285.229H1657.03V283.137ZM1633.12 291.371H1660.15V289.246H1633.12V291.371ZM1636.64 302.959H1657.19V300.801H1639.23V294.393H1636.64V302.959ZM1687.81 274.172H1685.28V303.689H1687.81V274.172ZM1663.7 296.584H1665.56C1670.31 296.567 1673.2 296.418 1676.62 295.721L1676.35 293.496C1673.18 294.21 1670.49 294.359 1666.22 294.393V279.982H1674.82V277.824H1663.7V296.584ZM1672.83 287.652H1679.27V302.162H1681.76V274.902H1679.27V285.461H1672.83V287.652ZM1695.04 301.199C1696.22 301.183 1697.19 300.22 1697.17 299.041C1697.19 297.879 1696.22 296.916 1695.04 296.916C1693.88 296.916 1692.89 297.879 1692.92 299.041C1692.89 300.22 1693.88 301.183 1695.04 301.199ZM1703.68 301.199C1704.86 301.183 1705.82 300.22 1705.8 299.041C1705.82 297.879 1704.86 296.916 1703.68 296.916C1702.52 296.916 1701.52 297.879 1701.55 299.041C1701.52 300.22 1702.52 301.183 1703.68 301.199ZM1710.92 294.061V294.227H1713.77V294.061C1713.84 291.188 1714.58 289.91 1716.66 288.648C1718.72 287.387 1719.95 285.577 1719.95 282.971C1719.95 279.302 1717.24 276.629 1713.07 276.629C1709.27 276.629 1706.23 278.97 1706.07 283.004H1709.09C1709.27 280.265 1711.18 279.136 1713.07 279.152C1715.27 279.136 1717.03 280.58 1717.03 282.838C1717.03 284.697 1715.98 286.025 1714.6 286.855C1712.31 288.25 1710.95 289.611 1710.92 294.061ZM1710.32 299.041C1710.29 300.22 1711.28 301.183 1712.44 301.199C1713.62 301.183 1714.58 300.22 1714.57 299.041C1714.58 297.879 1713.62 296.916 1712.44 296.916C1711.28 296.916 1710.29 297.879 1710.32 299.041ZM1390.8 327.43H1377.46V340.545H1390.8V327.43ZM1379.05 352.498L1380.08 354.557C1384.46 353.743 1388.53 351.502 1390.34 348.099C1392.1 351.502 1396.15 353.743 1400.53 354.557L1401.6 352.498C1396.37 351.618 1391.58 348.53 1391.6 344.264V343.367H1389.01V344.264C1389.01 348.53 1384.25 351.618 1379.05 352.498ZM1380.01 338.42V329.588H1388.21V338.42H1380.01ZM1396.68 344.828H1399.27V335.465H1403.72V333.273H1399.27V325.172H1396.68V344.828ZM1429.42 339.018H1411.66V329.721H1429.12V327.596H1409.03V341.143H1417.73V348.779H1405.58V350.971H1432.61V348.779H1420.29V341.143H1429.42V339.018ZM1449.38 342.504H1446.92V354.291H1457.18V342.504H1454.75V346.189H1449.38V342.504ZM1443.96 333.273C1443.95 337.324 1447.13 340.08 1451.63 340.08C1455.63 340.08 1458.67 337.789 1459.19 334.303H1465.35V340.811H1467.97V325.172H1465.35V332.145H1459.17C1458.61 328.741 1455.6 326.5 1451.63 326.5C1447.13 326.5 1443.95 329.239 1443.96 333.273ZM1446.45 333.273C1446.45 330.584 1448.59 328.691 1451.63 328.691C1454.6 328.691 1456.75 330.584 1456.75 333.273C1456.75 335.979 1454.6 337.905 1451.63 337.922C1448.59 337.905 1446.45 335.979 1446.45 333.273ZM1449.38 352.232V348.182H1454.75V352.232H1449.38ZM1457.58 352.531L1458.94 354.523C1461.54 353.411 1463.35 351.319 1464.28 348.912C1465.2 351.353 1466.97 353.444 1469.7 354.523L1471.06 352.531C1467.45 351.203 1465.58 347.933 1465.61 344.828V342.305H1463.02V344.828C1463 347.816 1461.13 351.054 1457.58 352.531ZM1496.56 328.16H1475.74V330.318H1493.93V331.115C1493.92 334.651 1493.92 338.785 1492.8 344.43L1495.46 344.729C1496.52 338.785 1496.52 334.734 1496.56 331.115V328.16ZM1472.88 350.506H1499.78V348.348H1486V337.789H1483.44V348.348H1472.88V350.506ZM1507.12 349.775H1503.89L1502.07 358.807H1504.53L1507.12 349.775Z" fill="#3D3D3D"/>
<path d="M1534.64 327.861H1520.79V347.584H1523.12C1528.71 347.567 1532.58 347.401 1537.2 346.621L1536.9 344.463C1532.48 345.227 1528.75 345.426 1523.42 345.426V338.287H1533.98V336.162H1523.42V330.053H1534.64V327.861ZM1539.75 354.689H1542.34V339.283H1547.29V337.059H1542.34V325.172H1539.75V354.689ZM1559.44 334.236V330.385H1566.48V328.227H1549.85V330.385H1556.82V334.236C1556.8 339.35 1553.12 344.928 1548.88 346.953L1550.45 349.012C1553.82 347.318 1556.8 343.566 1558.18 339.233C1559.56 343.317 1562.53 346.721 1565.98 348.281L1567.45 346.223C1563.1 344.347 1559.46 339.25 1559.44 334.236ZM1570.6 354.689H1573.22V325.172H1570.6V354.689ZM1596.7 333.107V327.729H1594.14V333.107C1594.11 338.503 1590.69 344.164 1586.37 346.289L1588.03 348.381C1591.35 346.604 1594.14 342.869 1595.45 338.52C1596.76 342.62 1599.49 346.123 1602.74 347.816L1604.33 345.725C1600.13 343.666 1596.7 338.304 1596.7 333.107ZM1607.06 354.689H1609.65V339.416H1614.59V337.158H1609.65V325.172H1607.06V354.689ZM1639.26 325.205H1636.67V342.803H1639.26V335H1643.75V332.775H1639.26V325.205ZM1617.45 328.957H1628.27V332.842H1617.52V341.242H1619.81C1625.3 341.242 1629.25 341.076 1633.98 340.246L1633.72 338.154C1629.12 338.901 1625.32 339.067 1620.07 339.051V334.867H1630.83V326.799H1617.45V328.957ZM1620.57 354.291H1639.26V344.264H1620.57V354.291ZM1623.13 352.166V346.289H1636.74V352.166H1623.13ZM1672.5 337.59H1645.57V339.682H1672.5V337.59ZM1648.83 344.363H1666.46V347.219H1648.89V354.357H1669.91V352.232H1651.48V349.178H1669.01V342.338H1648.83V344.363ZM1649.16 335.166H1669.28V333.041H1651.78V328.293H1668.98V326.201H1649.16V335.166ZM1689.87 327.861H1676.22V341.441H1689.87V327.861ZM1678.78 339.35V329.986H1687.34V339.35H1678.78ZM1679.57 354.059H1699.39V351.867H1682.13V344.762H1679.57V354.059ZM1695.44 346.82H1698.03V336.361H1702.48V334.17H1698.03V325.172H1695.44V346.82ZM1399.04 376.172H1396.45V405.689H1399.04V390.051H1403.99V387.793H1399.04V376.172ZM1377.42 398.617H1391.24V378.695H1388.65V386.498H1380.01V378.695H1377.42V398.617ZM1380.01 396.426V388.59H1388.65V396.426H1380.01ZM1429.05 377.467H1409V379.592H1426.46C1426.48 381.534 1426.45 383.941 1425.77 387.229H1405.58V389.32H1432.61V387.229H1428.39C1429.05 383.908 1429.05 381.352 1429.05 379.359V377.467ZM1408.8 394.4H1426.56V397.688H1408.83V405.357H1429.92V403.232H1411.46V399.746H1429.15V392.309H1408.8V394.4ZM1457.81 376.172H1455.22V405.689H1457.81V390.051H1462.76V387.793H1457.81V376.172ZM1436.19 398.617H1450.01V378.695H1447.42V386.498H1438.78V378.695H1436.19V398.617ZM1438.78 396.426V388.59H1447.42V396.426H1438.78ZM1487.82 377.467H1467.77V379.592H1485.23C1485.25 381.534 1485.22 383.941 1484.54 387.229H1464.35V389.32H1491.38V387.229H1487.16C1487.82 383.908 1487.82 381.352 1487.82 379.359V377.467ZM1467.57 394.4H1485.33V397.688H1467.6V405.357H1488.69V403.232H1470.23V399.746H1487.92V392.309H1467.57V394.4ZM1516.81 376.205H1514.22V398.318H1516.81V388.125H1521.26V385.934H1516.81V376.205ZM1493.8 381.949H1511.4V379.824H1503.89V376.205H1501.3V379.824H1493.8V381.949ZM1495.49 389.088C1495.48 392.408 1498.33 394.55 1502.6 394.533C1506.82 394.55 1509.67 392.408 1509.71 389.088C1509.67 385.734 1506.82 383.576 1502.6 383.576C1498.33 383.576 1495.48 385.734 1495.49 389.088ZM1497.98 389.088C1497.97 386.979 1499.81 385.618 1502.6 385.635C1505.36 385.618 1507.21 386.979 1507.25 389.088C1507.21 391.163 1505.36 392.508 1502.6 392.475C1499.81 392.508 1497.97 391.163 1497.98 389.088ZM1498.35 405.059H1518.17V402.867H1500.91V396.559H1498.35V405.059ZM1554.93 379.326H1534.57V381.484H1552.37V382.281C1552.37 385.9 1552.37 390.316 1551.18 396.359L1553.83 396.625C1554.93 390.2 1554.93 386 1554.93 382.281V379.326ZM1531.65 401.34H1558.55V399.182H1531.65V401.34ZM1575.38 378.264H1562.2V380.389H1572.79V384.771H1562.27V393.803H1564.52C1570.38 393.819 1573.89 393.67 1578.07 393.006L1577.84 390.814C1573.85 391.495 1570.47 391.661 1564.89 391.645V386.896H1575.38V378.264ZM1566.35 405.059H1586.4V402.867H1568.94V396.227H1566.35V405.059ZM1577.27 386.166H1582.88V397.887H1585.51V376.205H1582.88V383.908H1577.27V386.166ZM1609.58 381.053V380.289H1616.39V378.164H1600.05V380.289H1606.96V381.053C1606.94 385.104 1603.77 388.739 1599.32 390.15L1600.68 392.209C1604.2 391.014 1606.99 388.457 1608.3 385.187C1609.63 388.241 1612.4 390.615 1615.86 391.711L1617.18 389.652C1612.78 388.324 1609.6 384.904 1609.58 381.053ZM1604.2 405.291H1623.33V393.604H1620.74V397.189H1606.79V393.604H1604.2V405.291ZM1606.79 403.166V399.281H1620.74V403.166H1606.79ZM1620.74 392.143H1623.33V376.172H1620.74V392.143ZM1652.68 376.172H1650.05V405.756H1652.68V376.172ZM1629.44 388.756C1629.45 395.048 1632.57 399.032 1636.97 399.016C1641.36 399.032 1644.53 395.048 1644.51 388.756C1644.53 382.48 1641.36 378.479 1636.97 378.463C1632.57 378.479 1629.45 382.48 1629.44 388.756ZM1631.96 388.756C1631.96 383.958 1634.02 380.804 1636.97 380.787C1639.94 380.804 1641.99 383.958 1641.99 388.756C1641.99 393.554 1639.94 396.708 1636.97 396.691C1634.02 396.708 1631.96 393.554 1631.96 388.756ZM1667.88 395.961V394.168H1665.39V395.961C1665.36 398.816 1663.12 402.021 1659.38 403.365L1660.68 405.324C1663.5 404.245 1665.53 402.17 1666.59 399.796C1667.49 402.286 1669.31 404.461 1672.13 405.557C1674.89 404.395 1676.7 402.104 1677.63 399.696C1678.63 402.187 1680.68 404.245 1683.62 405.324L1684.98 403.365C1681.13 402.087 1678.92 399.016 1678.94 395.961V394.168H1676.38V395.961C1676.37 398.235 1674.92 401.24 1672.08 403.017C1669.28 401.39 1667.87 398.617 1667.88 395.961ZM1658.22 384.771C1658.22 388.839 1661.44 391.678 1665.86 391.678C1669.81 391.678 1672.88 389.287 1673.38 385.768H1679.57V393.039H1682.2V376.172H1679.57V383.609H1673.36C1672.78 380.189 1669.74 377.849 1665.86 377.865C1661.44 377.849 1658.22 380.721 1658.22 384.771ZM1660.75 384.771C1660.71 382.032 1662.89 380.057 1665.86 380.09C1668.76 380.057 1670.94 382.032 1670.94 384.771C1670.94 387.511 1668.76 389.503 1665.86 389.52C1662.89 389.503 1660.71 387.511 1660.75 384.771ZM1695.04 378.463C1690.68 378.479 1687.62 382.48 1687.64 388.756C1687.62 395.048 1690.68 399.032 1695.04 399.016C1699.16 399.032 1702.12 395.413 1702.4 389.619H1708.99V405.756H1711.58V376.172H1708.99V387.461H1702.37C1701.97 381.933 1699.06 378.479 1695.04 378.463ZM1690.13 388.756C1690.15 383.958 1692.14 380.804 1695.04 380.787C1697.93 380.804 1699.96 383.958 1699.96 388.756C1699.96 393.554 1697.93 396.708 1695.04 396.691C1692.14 396.708 1690.15 393.554 1690.13 388.756ZM1743.52 399.713H1736.81V391.678C1739.25 390.366 1740.73 388.274 1740.73 385.635C1740.73 381.069 1736.25 378.064 1729.94 378.031C1723.63 378.064 1719.15 381.069 1719.15 385.635C1719.15 388.324 1720.68 390.449 1723.2 391.761V399.713H1716.49V401.904H1743.52V399.713ZM1721.67 385.635C1721.66 382.331 1725.09 380.156 1729.94 380.189C1734.74 380.156 1738.21 382.331 1738.21 385.635C1738.21 388.938 1734.74 391.146 1729.94 391.146C1725.09 391.146 1721.66 388.938 1721.67 385.635ZM1725.76 399.713V392.707C1727.02 393.039 1728.43 393.205 1729.94 393.205C1731.49 393.205 1732.91 393.022 1734.19 392.69V399.713H1725.76Z" fill="#4B7AF2"/>
<path d="M1475 461H1430.04L1425.3 470.458C1421.74 477.558 1416.82 484.173 1410.71 490.067C1408.66 492.047 1411.43 494.865 1414.33 493.745L1424.94 489.648C1439.51 484.026 1453.01 476.79 1465.03 468.155L1475 461Z" fill="white"/>
</g>
<defs>
<filter id="filter0_d_348_5299" x="194" y="142" width="409" height="293" filterUnits="userSpaceOnUse" color-interpolation-filters="sRGB">
<feFlood flood-opacity="0" result="BackgroundImageFix"/>
<feColorMatrix in="SourceAlpha" type="matrix" values="0 0 0 0 0 0 0 0 0 0 0 0 0 0 0 0 0 0 127 0" result="hardAlpha"/>
<feOffset dy="4"/>
<feGaussianBlur stdDeviation="14"/>
<feComposite in2="hardAlpha" operator="out"/>
<feColorMatrix type="matrix" values="0 0 0 0 0.8625 0 0 0 0 0.893055 0 0 0 0 1 0 0 0 1 0"/>
<feBlend mode="normal" in2="BackgroundImageFix" result="effect1_dropShadow_348_5299"/>
<feBlend mode="normal" in="SourceGraphic" in2="effect1_dropShadow_348_5299" result="shape"/>
</filter>
<filter id="filter1_d_348_5299" x="137" y="676" width="523" height="325" filterUnits="userSpaceOnUse" color-interpolation-filters="sRGB">
<feFlood flood-opacity="0" result="BackgroundImageFix"/>
<feColorMatrix in="SourceAlpha" type="matrix" values="0 0 0 0 0 0 0 0 0 0 0 0 0 0 0 0 0 0 127 0" result="hardAlpha"/>
<feOffset dy="4"/>
<feGaussianBlur stdDeviation="14"/>
<feComposite in2="hardAlpha" operator="out"/>
<feColorMatrix type="matrix" values="0 0 0 0 0.8625 0 0 0 0 0.893055 0 0 0 0 1 0 0 0 1 0"/>
<feBlend mode="normal" in2="BackgroundImageFix" result="effect1_dropShadow_348_5299"/>
<feBlend mode="normal" in="SourceGraphic" in2="effect1_dropShadow_348_5299" result="shape"/>
</filter>
<filter id="filter2_d_348_5299" x="1298" y="201" width="523" height="325" filterUnits="userSpaceOnUse" color-interpolation-filters="sRGB">
<feFlood flood-opacity="0" result="BackgroundImageFix"/>
<feColorMatrix in="SourceAlpha" type="matrix" values="0 0 0 0 0 0 0 0 0 0 0 0 0 0 0 0 0 0 127 0" result="hardAlpha"/>
<feOffset dy="4"/>
<feGaussianBlur stdDeviation="14"/>
<feComposite in2="hardAlpha" operator="out"/>
<feColorMatrix type="matrix" values="0 0 0 0 0.8625 0 0 0 0 0.893055 0 0 0 0 1 0 0 0 1 0"/>
<feBlend mode="normal" in2="BackgroundImageFix" result="effect1_dropShadow_348_5299"/>
<feBlend mode="normal" in="SourceGraphic" in2="effect1_dropShadow_348_5299" result="shape"/>
</filter>
</defs>
</svg>
